<svg xmlns="http://www.w3.org/2000/svg" viewBox="0 0 500 500">
  <path fill="#ff4600" d="M78 402v-46c0-4 0-5-5-6a72 72 0 0 1-5-143c10-1 10-1 10-11v-85c0-19 12-30 30-30h91c4 0 5-1 5-4a72 72 0 0 1 143-9v2c2 11 2 11 12 11h85c19 0 30 12 30 30v90c0 4 0 6-5 6a72 72 0 0 0-67 68c-2 36 24 68 60 74a26 26 0 0 0 6 1c6 0 6 2 6 7v89c0 19-12 30-30 30H108c-18 0-30-11-30-30v-44Z"/>
  <path fill="#fff" d="M382 125H134c-4 0-8 3-7 7l1 15 12 129a9 9 0 0 0 8 8h167a7 7 0 0 1 7 8l-4 53a12 12 0 0 1-9 10l-43 11-8 3-8-3-43-11a12 12 0 0 1-8-10l-3-26a9 9 0 0 0-8-8h-37a7 7 0 0 0-8 8l6 67a12 12 0 0 0 9 10l92 25 8 2 8-2 92-25c5-2 8-5 9-7l1-12 11-123 1-15a6 6 0 0 0-6-7H197a9 9 0 0 1-9-8l-4-38a7 7 0 0 1 8-8h193l1-6 1-14 1-11 1-15c0-4-3-7-7-7Z"/>
</svg>
