<svg xmlns="http://www.w3.org/2000/svg" viewBox="0 0 500 500"><defs><style>.cls-1{fill:#b4d9b7;}.cls-2{fill:#21a366;}</style></defs><g id="Frameworks"><path class="cls-1" d="M288.23,20.49A7.82,7.82,0,0,0,286.15,22c-.51.59-5.66,9.88-11.43,20.68S263.7,63.18,263,64.26c-2,3.1-1.81,3.07-12.14,3.47l-9.13.41-2-1c-2-1-2.19-1.26-15.4-20.31C217,36.25,210.6,27,210.12,26.41A6.17,6.17,0,0,0,205.24,24C203.65,24,161.8,38,160.36,39c-2.15,1.52-2.59,3.29-2.18,8.69.88,11,2.62,33,3,38.08l.45,5.66-1.08,2.1c-1,2-1.4,2.37-8.65,7.4a90.64,90.64,0,0,1-8.88,5.67c-3,.88-3.41.77-27.23-9.11C91.32,87.31,92,87.57,89.14,88.86c-1.41.67-28.9,34.85-29.45,36.63a4.62,4.62,0,0,0,0,2.85c.29.92,5.62,8.25,14.87,20.42C87.07,165.26,89,168,89.4,169.63c.51,2.4.51,2.4-4.3,13.87-4.25,10.25-5.21,11.69-8.1,12.73-.85.3-12,2.44-24.82,4.74-24.42,4.36-24.53,4.4-26.16,6.62-1.93,2.59-6.7,46.91-5.15,47.84.23.15,10.85,4.07,23.57,8.73s23.68,8.8,24.31,9.17c2.44,1.41,3,3,5.22,15.29,1.14,6.25,2.07,12.13,2.07,13.13a7.45,7.45,0,0,1-.85,3.37c-.56,1.07-6.18,6.55-18.2,17.72-9.59,8.88-17.73,16.69-18.13,17.28a5.19,5.19,0,0,0-.67,3c0,1.71.93,3.59,9.43,20.13,5.22,10,9.92,18.72,10.48,19.31A6.11,6.11,0,0,0,60.61,384c1.44.4,3.22.07,24.68-4.78,24.2-5.47,25-5.58,27.75-4.32,1.44.7,18.65,18.46,19.68,20.31,1.41,2.59,1.33,3.33-2.44,18.05-8.7,33.93-8.51,33.19-8,34.78a7.24,7.24,0,0,0,1.26,2.41c.44.51,9,5.51,18.9,11.1,16.4,9.21,18.28,10.17,19.8,10.17a6.29,6.29,0,0,0,2.81-.67c.63-.4,8.51-8.21,17.58-17.42s17.05-17.06,17.83-17.43c2.7-1.44,3.44-1.37,17,1.67,7,1.55,13.14,3.07,13.62,3.4,2.55,1.67,2.7,2,10.58,25.68,7.43,22.31,7.66,22.9,9.06,24.16a6.9,6.9,0,0,0,2.85,1.55c3.37.63,24.35-.7,37.74-2.4,6.07-.78,7.36-1.41,8.4-4.18.33-.89,2.77-11.92,5.4-24.5,3.18-15,5.07-23.31,5.51-24.05,1.45-2.29,2.52-2.84,13.8-7.14,12.18-4.66,13.73-5,16.43-3.55.67.37,9.18,7.07,18.87,14.91s18.17,14.54,18.8,14.91a4.8,4.8,0,0,0,3.07.52c1.88-.11,2.29-.41,12.91-8.44,21.57-16.31,23.6-17.9,24.31-18.9a6.2,6.2,0,0,0,.88-2.78c.19-1.62-.55-3.77-8.39-24.34-4.74-12.43-8.7-23.16-8.77-23.87-.37-2.55.48-4.14,6.4-12.28,3.18-4.33,6.14-8.29,6.58-8.73a7.7,7.7,0,0,1,5.59-2.37c1,0,12.06,1.11,24.53,2.48l22.64,2.44,1.59-.7a9,9,0,0,0,2.22-1.44c.52-.6,13.47-35.3,15.62-41.85a5.76,5.76,0,0,0-1.59-6.36c-.74-.78-9.92-7.7-20.39-15.39-18.79-13.8-19-14-19.94-16l-.93-2,.45-7.95c.59-10.4.66-10.88,2-12.88,1.11-1.59,2-2.07,22.68-12.47,11.88-5.95,21.83-11.06,22.17-11.32a8.34,8.34,0,0,0,2-4.14c0-1.56-9.58-45-10.17-46.18a6.8,6.8,0,0,0-2-2c-1.56-1,0-.89-37.48-3.3-14.39-.92-14.65-1-16.84-3.07-1.59-1.51-8.25-14.06-8.51-16.05a7.34,7.34,0,0,1,.3-3.11c.3-.82,6-10.69,12.65-21.94,11.62-19.54,12.14-20.5,12.14-22.27a8.43,8.43,0,0,0-.52-2.74c-.48-.93-31.45-32.71-33.22-34.08a5.66,5.66,0,0,0-3-.85l-2.11-.15L384.57,83.64C373.1,90,363,95.45,362.22,95.74c-2.55.89-4.21.33-11.1-3.51s-7.69-4.44-8.76-6.55c-1-1.85-.93-1.37-1.82-27.79-.74-21.83-.77-22.6-1.59-24.23-1.37-2.78,1.33-2-36.41-10.95-6.36-1.48-12-2.74-12.39-2.74A8.07,8.07,0,0,0,288.23,20.49Z"/><path class="cls-2" d="M263.94,430.6A26.84,26.84,0,0,1,250.55,427l-42.61-25.23c-6.37-3.57-3.26-4.83-1.17-5.55,8.5-3,10.21-3.64,19.27-8.79a3.22,3.22,0,0,1,3.17.22L262,407.1a4.24,4.24,0,0,0,4,0l127.67-73.69a4,4,0,0,0,1.95-3.45V182.65a4.09,4.09,0,0,0-2-3.52L265.94,105.49a3.94,3.94,0,0,0-3.93,0L134.42,179.12a4.08,4.08,0,0,0-2,3.48V329.93a3.89,3.89,0,0,0,2,3.41l35,20.2c19,9.49,30.58-1.69,30.58-12.94V195.2a3.64,3.64,0,0,1,3.7-3.67H219.8a3.65,3.65,0,0,1,3.68,3.67V340.67c0,25.31-13.8,39.86-37.8,39.86-7.39,0-13.2,0-29.44-8l-33.49-19.3a27,27,0,0,1-13.4-23.3V182.61a26.86,26.86,0,0,1,13.39-23.27L250.55,85.62a28,28,0,0,1,26.84,0L405,159.38a27,27,0,0,1,13.38,23.27V330A27,27,0,0,1,405,353.24L277.39,427a26.9,26.9,0,0,1-13.46,3.58"/><path class="cls-2" d="M303.38,329.08c-55.86,0-67.57-25.64-67.57-47.14a3.67,3.67,0,0,1,3.7-3.68H256a3.69,3.69,0,0,1,3.65,3.12c2.49,16.81,9.9,25.28,43.68,25.28,26.91,0,38.35-6.08,38.35-20.35,0-8.21-3.26-14.31-45.06-18.4-35-3.45-56.56-11.16-56.56-39.12,0-25.75,21.73-41.09,58.12-41.09,40.88,0,61.14,14.19,63.69,44.67a3.69,3.69,0,0,1-1,2.85,3.8,3.8,0,0,1-2.71,1.18H341.58a3.66,3.66,0,0,1-3.58-2.88c-4-17.68-13.64-23.33-39.88-23.33-29.37,0-32.79,10.23-32.79,17.9,0,9.29,4,12,43.65,17.25,39.25,5.21,57.88,12.56,57.88,40.14,0,27.8-23.2,43.75-63.66,43.75"/></g></svg>