<svg xmlns="http://www.w3.org/2000/svg" viewBox="0 0 500 500"><defs><style>.cls-1{fill:#2c2c2b;}</style></defs><g id="Frameworks"><path class="cls-1" d="M280.88,24.31a8.22,8.22,0,0,0-2.07,1.56c-.52.59-5.66,9.88-11.43,20.68s-11,20.46-11.7,21.53c-2,3.11-1.81,3.07-12.13,3.48l-9.14.41-2-1c-2-1-2.18-1.26-15.39-20.32-7.4-10.62-13.8-19.83-14.28-20.46a6.21,6.21,0,0,0-4.89-2.36c-1.59,0-43.43,13.91-44.88,14.91-2.14,1.51-2.59,3.29-2.18,8.69.89,11,2.63,33,3,38.07l.44,5.66-1.07,2.11c-1,2-1.41,2.37-8.66,7.4a87.69,87.69,0,0,1-8.88,5.66c-3,.89-3.4.78-27.23-9.1C84,91.13,84.68,91.39,81.79,92.69c-1.4.66-28.89,34.85-29.45,36.63a4.59,4.59,0,0,0,0,2.84c.3.93,5.62,8.25,14.87,20.43,12.51,16.5,14.47,19.27,14.84,20.86.52,2.41.52,2.41-4.29,13.88-4.26,10.25-5.22,11.69-8.1,12.73-.86.29-12,2.44-24.83,4.73-24.42,4.37-24.53,4.41-26.16,6.62-1.92,2.59-6.7,46.92-5.14,47.84.22.15,10.84,4.07,23.57,8.74s23.68,8.8,24.31,9.17c2.44,1.41,3,3,5.21,15.28,1.15,6.25,2.07,12.14,2.07,13.14a7.41,7.41,0,0,1-.85,3.36c-.55,1.08-6.18,6.55-18.2,17.73-9.58,8.87-17.72,16.68-18.13,17.27a5.3,5.3,0,0,0-.67,3c0,1.7.93,3.59,9.44,20.13,5.22,10,9.91,18.72,10.47,19.31a6.13,6.13,0,0,0,2.52,1.44c1.44.41,3.21.08,24.67-4.77,24.2-5.47,25-5.59,27.75-4.33,1.45.71,18.65,18.46,19.69,20.31,1.4,2.59,1.33,3.33-2.45,18.06-8.69,33.93-8.51,33.19-8,34.78a7.57,7.57,0,0,0,1.26,2.4c.45.52,9,5.52,18.91,11.1,16.39,9.22,18.28,10.18,19.79,10.18a6.34,6.34,0,0,0,2.82-.67c.62-.41,8.5-8.21,17.57-17.42S192.31,440.4,193.08,440c2.7-1.44,3.44-1.37,17,1.66,7,1.56,13.13,3.07,13.61,3.41,2.55,1.66,2.7,2,10.58,25.67,7.44,22.31,7.66,22.91,9.07,24.16a6.81,6.81,0,0,0,2.85,1.56c3.36.63,24.34-.7,37.73-2.41,6.07-.77,7.37-1.4,8.4-4.18.34-.89,2.78-11.91,5.4-24.49,3.19-15,5.07-23.31,5.52-24.05,1.44-2.29,2.51-2.85,13.8-7.14,12.17-4.66,13.72-5,16.43-3.55.66.37,9.17,7.06,18.86,14.91s18.17,14.54,18.8,14.91a4.8,4.8,0,0,0,3.07.52c1.89-.11,2.29-.41,12.91-8.44,21.57-16.32,23.61-17.91,24.31-18.9a6.08,6.08,0,0,0,.89-2.78c.18-1.63-.56-3.77-8.4-24.34-4.74-12.44-8.69-23.17-8.77-23.87-.37-2.55.48-4.14,6.4-12.28,3.18-4.33,6.14-8.29,6.59-8.73a7.63,7.63,0,0,1,5.59-2.37c1,0,12.06,1.11,24.53,2.48l22.64,2.44,1.59-.7a8.86,8.86,0,0,0,2.22-1.45c.52-.59,13.47-35.29,15.61-41.84a5.75,5.75,0,0,0-1.59-6.37c-.74-.77-9.91-7.69-20.38-15.39-18.8-13.8-19-14-19.95-16l-.92-2,.44-8c.59-10.39.67-10.88,2-12.87,1.11-1.59,2-2.07,22.68-12.47,11.87-6,21.83-11.06,22.16-11.32a8.43,8.43,0,0,0,2-4.15c0-1.55-9.59-45-10.18-46.17a6.71,6.71,0,0,0-2-2c-1.55-1,0-.88-37.48-3.29-14.39-.92-14.65-1-16.83-3.07-1.59-1.52-8.25-14.06-8.51-16.06a7.27,7.27,0,0,1,.29-3.1c.3-.82,6-10.7,12.66-21.95,11.62-19.53,12.13-20.49,12.13-22.27a8.46,8.46,0,0,0-.51-2.74c-.49-.92-31.45-32.7-33.23-34.07a5.51,5.51,0,0,0-3-.85l-2.11-.15L377.22,87.47c-11.47,6.36-21.53,11.8-22.34,12.1-2.56.89-4.22.33-11.1-3.52s-7.7-4.44-8.77-6.55c-1-1.85-.93-1.36-1.81-27.78-.74-21.83-.78-22.61-1.59-24.24-1.37-2.77,1.33-2-36.41-10.95-6.37-1.48-11.95-2.73-12.4-2.73A7.55,7.55,0,0,0,280.88,24.31Z"/></g></svg>