<svg xmlns="http://www.w3.org/2000/svg" viewBox="0 0 500 500"><defs><style>.cls-1{fill:#777;}.cls-2{fill:#78b8ea;}.cls-3{fill:#336791;}.cls-4{fill:#fff;}</style></defs><g id="BD"><path class="cls-1" d="M295.36,12.09c33,3,67.3,6.08,98,19,18.21,7.67,33.37,10.45,45.94,26.34a50.8,50.8,0,0,1,10.46,34.89c-.31,3.37.23,13.58.23,17,0,96-.3,192,.26,288,.12,21.56-9.13,36.9-25.26,49.29-21,16.14-45.4,25-70.77,31.29-39.44,9.81-79.53,12.69-120.06,10.63-28.55-1.45-56.7-5.34-84.2-13.28-21.65-6.25-42.4-14.53-60.49-28.36-10.81-8.26-19.67-18.09-23.78-31.51a43.67,43.67,0,0,1-1.58-12.93q0-147.72.12-295.45c0-7.52-1-25.81,1.42-33.33,4.26-13.37,13-19.4,23.81-27.64,19.92-15.15,41-18.85,64.84-25.27,22.78-6.12,48-7.39,71.43-9.25C227.14,11.39,291.32,11.72,295.36,12.09Z"/><path class="cls-2" d="M256.87,118.12c-39-.12-77.37-2.85-114.49-11.2-17.63-4-34.43-9-48.54-17.39-4.69-2.77-8.75-5.92-11.45-9.7C76.75,71.92,80,65,88,58.62c8.55-6.83,19.66-11.37,31.48-15.21,24.57-8,50.82-12.13,77.72-14.74a638.44,638.44,0,0,1,97.4-1.7c34.56,2,68.42,6.23,100,16.41,11.69,3.77,22.54,8.33,31.23,14.93,11.53,8.75,11.5,18.9-.22,27.62-11.39,8.48-26,13.7-41.53,17.91-31.16,8.46-63.89,12.11-97.28,13.63Q271.83,118.16,256.87,118.12Z"/><path class="cls-2" d="M434.82,284.2c-.7,16.48,1,32-.94,47.46-.84,6.74-4.46,12.23-8.95,17.08-12.59,13.62-28.72,21.65-45.69,28.14-24.38,9.31-49.74,14.38-75.66,17.09-19.69,2.06-39.4,3.25-59.16,2.47-39-1.54-77.41-6.4-113.92-21.29-15.08-6.15-29.32-13.72-40.72-25.73-6.94-7.3-10.6-15.85-10.43-26.1.22-12.72.06-25.44.06-38.95,5.35,4.19,9.89,8.13,14.82,11.51,22.58,15.48,48.07,23.81,74.49,29.69,22.64,5,45.59,7.54,68.77,8.62,45.56,2.13,90.36-2.11,134-15.6,21.81-6.74,42.56-15.95,59.68-31.75C432,286.11,432.93,285.56,434.82,284.2Z"/><path class="cls-2" d="M434.56,92.92c0,15.62.54,44.76-.18,59.32-.53,10.7-7.27,13.83-15.11,20.55-14.17,12.17-30.9,19.69-48.4,25.58-22.33,7.51-45.31,11.92-68.75,14.23-16.89,1.66-33.81,2.87-50.76,2.45-37.57-.91-74.73-4.93-110.48-17.48-16.54-5.81-32.36-13-45.81-24.58-9.85-8.45-16.3-18.53-15.75-32.28.43-10.89.06-31.48.11-42.39,0-1.48-.47-3.07.81-5,4.59,4,14.79,30.39,142.41,39.18a432.07,432.07,0,0,0,62.93.53C401.64,131.19,433,94.13,434.56,92.92Z"/><path class="cls-2" d="M434.67,360.93c0,15.4.31,29.58-.1,43.74-.31,10.63-6.26,18.78-13.88,25.54-19.89,17.68-44.27,26.14-69.42,32.63-20.95,5.4-42.3,8.29-63.91,9.75a465.62,465.62,0,0,1-51.35.56c-36-1.54-71.41-7.11-105.14-20.59-14-5.57-27.22-12.53-38.22-22.94-8.25-7.81-13.68-17.1-13.33-29.18.37-12.76.09-25.54.09-38.83,3.16,1.47,4.9,4.09,7.22,5.94,14.52,11.65,31,19.52,48.43,25.67,25.64,9.07,52.13,13.91,79.13,16.68a427.3,427.3,0,0,0,66.23,1.43c42.79-2.25,84.64-9.31,123.52-28.72A119,119,0,0,0,434.67,360.93Z"/><path class="cls-2" d="M79.41,177.74c25.36,23.3,55.65,33.7,87.25,41.15,36.27,8.54,73.18,10.79,110.25,9.19,41.2-1.78,81.59-8.3,119.64-25.26,13.72-6.12,26.44-13.88,37.24-24.48,1.56,1,.86,31.37.87,32.46q.09,18.47,0,36.92c0,9-3.34,16.6-9.33,23.22-14.06,15.53-32.44,23.91-51.58,30.73-21.58,7.7-44,11.95-66.71,14.74a426.17,426.17,0,0,1-69.87,2.42c-37.11-1.54-73.61-7.12-108.19-21.51-14.84-6.18-28.93-13.78-40-26-6.21-6.9-9.65-14.73-9.64-24.05C79.42,234.05,79.41,191.83,79.41,177.74Z"/><path class="cls-2" d="M287.43,469.28c-11.6,0-19.15-4.48-23.74-8.81-6.92-6.54-9.67-15-11.31-20l-.71-2.1c-3.3-8.92-4.42-21.77-5.08-38.3-.1-2.48-.18-5-.25-7.76-.06-2-.13-4.46-.23-7.07a50.18,50.18,0,0,1-13.18,4.17,63.57,63.57,0,0,1-26.13-1.35c-6.47-1.62-13.19-5-17-10.15-11.16,9.78-21.81,8.45-27.61,6.52-10.23-3.41-19.39-13-28-29.32-6.13-11.61-12.06-26.76-17.63-45-9.7-31.76-15.86-65.22-16.41-76.2-1.72-34.39,7.54-59,27.51-73.08,31.51-22.25,79.24-9.17,96.64-3.23,11.69-7,25.44-10.48,41-10.22A149.26,149.26,0,0,1,289,149.58a136.08,136.08,0,0,1,40.33-5.68c32.09.38,58.68,12.88,76.89,36.16,13,16.61,6.57,51.47,1.58,70.79-7,27.15-19.31,56-34.41,81.19a89.56,89.56,0,0,0,18.49-2.21c16.66-3.44,21.53,5.5,22.86,9.5,5.3,16.05-17.74,28.17-24.92,31.51-9.21,4.27-24.22,6.88-36.51,6.31l-.54,0-3.23-.29-.32,2.69-.31,2.64c-.82,31.87-5.37,52-14.74,65.39-9.82,14-23.47,17.9-35.49,20.47a53.25,53.25,0,0,1-11.2,1.26ZM263,353.29c7.49,6,8.15,17.27,8.73,38.34.08,2.63.14,5.12.24,7.44.28,7,.94,23.52,3.52,30.49.37,1,.69,2,1,3,2.87,8.81,4.32,13.23,16.75,10.56,10.45-2.24,15.81-4.24,20-10.23,6.11-8.69,9.53-26.18,10.15-52l12.71.31-12.62-1.51.37-3.15c1.21-10.38,2.08-17.89,9-22.85,5.57-4,11.91-3.59,17-2.68a19,19,0,0,1-7.5-11.14l-1.06-5.22,3-4.41c17.15-25.45,31.29-56.72,38.8-85.8,7.72-29.89,5.36-45.76,3-48.76-31.15-39.8-85.17-23.37-90.81-21.5l-1,.51-4.78.9-2.45-.51a120,120,0,0,0-22.29-2.31c-12.64-.21-22.83,2.77-31.18,9.11l-5.8,4.4-6.73-2.77c-14.37-5.88-56.59-17.69-78.87-1.92-12.37,8.76-18,25.93-16.75,51,.41,8.28,6,39.64,15.33,70.06,12.83,42,24.49,56,29.36,57.61.84.29,3-1.42,5.24-4.06,14.27-17.15,27.83-31.45,28.4-32.06l7.36-7.74,8.9,5.91a23.48,23.48,0,0,0,11.6,4l21.21-18.09-3.07,31.36a12.65,12.65,0,0,0,.17,3.44l.92,5.95-4,4.47-.46.52,11.66,5.38Z"/><path class="cls-3" d="M394.4,342.29c-37,7.62-39.53-4.9-39.53-4.9,39.05-57.94,55.38-131.49,41.29-149.5-38.43-49.1-105-25.88-106.07-25.28l-.36.07a131.61,131.61,0,0,0-24.67-2.57c-16.74-.27-29.44,4.39-39.07,11.69,0,0-118.68-48.89-113.16,61.49C114,256.77,146.49,411,185.23,364.4c14.16-17,27.84-31.43,27.84-31.43a36,36,0,0,0,23.47,6l.66-.56a26.44,26.44,0,0,0,.26,6.63c-10,11.15-7.05,13.11-27,17.22-20.19,4.16-8.33,11.56-.58,13.5,9.39,2.35,31.11,5.68,45.78-14.87l-.59,2.35c3.91,3.13,6.66,20.37,6.2,36s-.77,26.36,2.31,34.75,6.16,27.24,32.39,21.62c21.91-4.7,33.27-16.87,34.85-37.17,1.12-14.44,3.66-12.3,3.82-25.21l2-6.11c2.34-19.57.37-25.88,13.88-22.94l3.28.29c9.94.45,22.94-1.6,30.58-5.15C400.86,351.68,410.61,338.94,394.4,342.29Z"/><path class="cls-4" d="M288.76,461.45c-21.87,0-28.79-17.31-31.63-24.39-4.14-10.38-5-50.65-4.12-83.67a4.24,4.24,0,0,1,8.48.23c-1.07,38.09.45,72.61,3.51,80.29,4.79,12,12.06,22.45,32.61,18,19.5-4.18,26.81-11.58,30.06-30.44,2.5-14.47,7.43-55.64,8-63.76a4.24,4.24,0,1,1,8.45.62c-.63,8.46-5.55,49.56-8.14,64.59-3.84,22.27-13.77,32.38-36.64,37.28A50.8,50.8,0,0,1,288.76,461.45ZM170.21,376.88a17.63,17.63,0,0,1-5.62-.93c-14.21-4.73-27.73-27.86-40.21-68.75-9.5-31.12-15.52-63.6-16-74.16-1.57-31.29,6.49-53.44,23.95-65.81,34.55-24.48,92.67-1.17,95.12-.16a4.23,4.23,0,1,1-3.2,7.84h0c-.56-.23-56.29-22.55-87-.75-14.94,10.59-21.79,30.25-20.38,58.46.44,8.89,6.06,40.6,15.68,72.11,11.14,36.5,23.82,59.53,34.79,63.19,1.72.57,6.95,2.32,14.44-6.69,14.09-17,27-30.47,27.16-30.61a4.24,4.24,0,1,1,6.12,5.87c-.12.13-12.87,13.45-26.76,30.16C181.65,374.56,175.34,376.88,170.21,376.88Zm184.4-35.71a4.23,4.23,0,0,1-3.51-6.61C390.57,276,404.43,205.21,392.56,190c-14.94-19.08-36-29-62.69-29.63a117.79,117.79,0,0,0-38,5.5l-.64.26a4.25,4.25,0,0,1-3.63-7.64l1.14-.46h-.06l.06,0a123.14,123.14,0,0,1,40-6.14c29.5.31,53.87,11.69,70.47,32.9,7.85,10,7.87,33.16.05,63.44-8,30.88-23,64.06-41.16,91A4.23,4.23,0,0,1,354.61,341.17Zm2,27.12c-6.74,0-12.78-1-16.39-3.12a8.51,8.51,0,0,1-4.53-6.86c-1-17.82,8.82-20.92,13.84-22.34-.7-1.05-1.7-2.3-2.72-3.58a63,63,0,0,1-10-16.15c-.48-1.16-2-3.88-3.75-7-9.51-17-29.29-52.52-16.58-70.68,5.88-8.41,17.59-11.72,34.84-9.87-5.07-15.46-29.25-63.84-86.59-64.78-17.25-.29-31.4,5-42,15.75-23.8,24-22.93,67.53-22.92,68a4.24,4.24,0,0,1-8.47.22c-.06-1.93-1-47.57,25.37-74.15,12.32-12.43,28.53-18.57,48.19-18.25,36.69.6,60.31,19.25,73.66,34.8,14.55,16.93,21.69,35.62,22.27,41.85.44,4.64-2.89,5.57-3.56,5.7l-1.53,0c-16.93-2.71-27.79-.83-32.28,5.59-9.67,13.81,9,47.36,17,61.69,2,3.66,3.51,6.3,4.19,7.93a55.09,55.09,0,0,0,8.8,14.08c2.41,3,4.51,5.64,5.26,8.72.35.61,5.29,7.91,34.59,1.86,7.34-1.51,11.74-.22,13.09,3.85,2.65,8-12.21,17.35-20.43,21.18C378.57,366.12,366.8,368.29,356.62,368.29Zm-12.46-10.68c.92.94,5.57,2.56,15.2,2.14,8.57-.37,17.6-2.23,23-4.74a48.72,48.72,0,0,0,13.95-9.27L395,346c-18.74,3.87-32,3.35-39.38-1.53a17.38,17.38,0,0,1-1.44-1.07,17.72,17.72,0,0,1-2.07.67C347.92,345.23,343.58,346.45,344.16,357.61Zm-121,23.67a60.23,60.23,0,0,1-14.55-1.88c-5.18-1.3-13.92-5.2-13.78-11.61.14-7.19,10.6-9.35,14.54-10.16,14.22-2.93,15.15-4.1,19.59-9.74,1.3-1.65,2.91-3.69,5.11-6.15,3.26-3.65,6.83-5.51,10.6-5.51a15.86,15.86,0,0,1,6.21,1.49c4.53,1.88,8.32,6.42,9.88,11.86,1.4,4.91.73,9.63-1.89,13.3C250.25,374.92,237.9,381.28,223.14,381.28ZM204,368.16a20,20,0,0,0,6.68,3,52,52,0,0,0,12.5,1.63c12.08,0,21.77-5,28.81-14.86,1.47-2.05,1-4.66.64-6-.82-2.87-2.87-5.49-5-6.37a8.3,8.3,0,0,0-3-.83c-.47,0-1.89,0-4.28,2.68-2,2.26-3.48,4.11-4.77,5.74-5.54,7-8.07,9.41-24.54,12.8a26.4,26.4,0,0,0-7.1,2.23Zm32.59-19.55a4.25,4.25,0,0,1-4.19-3.59,19,19,0,0,1-.21-2.13A41.4,41.4,0,0,1,203,329.81a47.34,47.34,0,0,1-12.48-39.65c2.24-16,1.4-30.18.95-37.79-.13-2.11-.22-3.64-.21-4.7,0-1.34,0-4.89,11.92-10.92,4.23-2.14,12.71-5.88,22-6.84,15.34-1.58,25.46,5.25,28.49,19.24,8.17,37.8.64,54.51-4.85,66.72-1,2.26-2,4.41-2.77,6.49l-.68,1.84c-2.9,7.78-5.41,14.5-4.64,19.53a4.23,4.23,0,0,1-3.54,4.83ZM199.8,248.84l.17,3c.47,7.9,1.34,22.6-1,39.47A39,39,0,0,0,209.15,324a33,33,0,0,0,23.75,10.48h.18a116.39,116.39,0,0,1,4.36-13.19l.68-1.83c.87-2.34,1.9-4.62,3-7,5.29-11.75,11.87-26.38,4.29-61.45-1.51-6.94-5.15-11-11.13-12.28C222,235.94,203.65,245.19,199.8,248.84Zm25.58-1.79c-.21,1.49,2.75,5.49,6.6,6s7.14-2.59,7.35-4.09-2.75-3.15-6.6-3.68S225.58,245.55,225.38,247.05Zm7.48,7.51-1.08-.08a10.17,10.17,0,0,1-6.46-4,5.52,5.52,0,0,1-1.34-3.6c.27-2,2.65-3.12,6.37-3.12a19.09,19.09,0,0,1,2.58.18,15.51,15.51,0,0,1,5.31,1.65c2.42,1.35,2.6,2.85,2.49,3.63C240.43,251.35,237,254.56,232.86,254.56Zm-6.08-7.26c.13.92,2.41,4,5.39,4.38l.69,0a6.1,6.1,0,0,0,5-2.87c-.25-.48-2-1.69-5.38-2.15a14.93,14.93,0,0,0-2.18-.16C228.2,246.55,227.05,247,226.78,247.3ZM342.6,244c.21,1.5-2.74,5.5-6.6,6s-7.15-2.58-7.36-4.08,2.75-3.15,6.61-3.69S342.39,242.5,342.6,244Zm-7.49,6.8c-3.71,0-6.9-2.89-7.17-4.76-.3-2.24,3.4-3.95,7.21-4.48a17.53,17.53,0,0,1,2.47-.18c3.29,0,5.46,1,5.68,2.52.14,1-.63,2.57-2,4a9.18,9.18,0,0,1-5.24,2.87Zm2.51-8a16.3,16.3,0,0,0-2.28.16c-3.83.53-6.11,2.07-6,2.89s2.57,3.54,5.77,3.54l.79-.06a7.86,7.86,0,0,0,4.41-2.44,4.87,4.87,0,0,0,1.58-2.8C341.82,243.56,340.41,242.79,337.62,242.79ZM348.15,330a4.24,4.24,0,0,1-3.52-6.6c9-13.47,7.37-27.22,5.77-40.51a115.33,115.33,0,0,1-1.2-17.14,120.83,120.83,0,0,1,1.63-15.17c.84-5.46,1.64-10.63,1.31-16.76a4.24,4.24,0,1,1,8.46-.45,85.17,85.17,0,0,1-1.39,18.5A113.28,113.28,0,0,0,357.67,266a107.55,107.55,0,0,0,1.15,15.85c1.7,14.14,3.62,30.16-7.15,46.25A4.22,4.22,0,0,1,348.15,330Z"/></g></svg>