<svg xmlns="http://www.w3.org/2000/svg" viewBox="0 0 500 500"><defs><style>.cls-1{fill:#777;}.cls-2{fill:#78b8ea;}.cls-3{fill:#fff;stroke:#fff;stroke-miterlimit:10;stroke-width:16px;}.cls-4{fill:#1a6faf;}</style></defs><g id="BD"><path class="cls-1" d="M299.49,16.33c33,3,67.3,6.08,98,19C415.71,43,430.86,45.8,443.43,61.69a50.82,50.82,0,0,1,10.46,34.89c-.31,3.37.24,13.59.24,17,0,96-.3,192,.25,288,.13,21.56-9.13,36.9-25.26,49.29-21,16.14-45.4,25-70.77,31.3-39.44,9.8-79.53,12.69-120.06,10.62-28.55-1.45-56.69-5.34-84.2-13.28-21.64-6.25-42.4-14.53-60.48-28.35-10.82-8.27-19.68-18.1-23.79-31.52a43.59,43.59,0,0,1-1.58-12.93q0-147.72.12-295.45c0-7.52-1-25.81,1.42-33.33,4.26-13.37,13-19.39,23.81-27.63,19.93-15.16,41-18.86,64.84-25.28,22.78-6.12,48-7.39,71.43-9.25C231.27,15.63,295.45,16,299.49,16.33Z"/><path class="cls-2" d="M261,122.36c-39-.12-77.37-2.85-114.49-11.2-17.63-4-34.43-9-48.54-17.39-4.69-2.77-8.75-5.92-11.45-9.7-5.64-7.91-2.36-14.87,5.58-21.21,8.55-6.82,19.66-11.37,31.48-15.21,24.57-8,50.82-12.13,77.72-14.73a635.88,635.88,0,0,1,97.4-1.7c34.57,2,68.43,6.22,100,16.4,11.68,3.78,22.54,8.34,31.23,14.93,11.52,8.75,11.5,18.9-.23,27.62-11.39,8.49-26,13.7-41.52,17.91-31.16,8.46-63.89,12.11-97.28,13.63Q276,122.4,261,122.36Z"/><path class="cls-2" d="M439,288.45c-.7,16.47,1,32-.94,47.45-.84,6.75-4.46,12.23-8.94,17.08-12.6,13.62-28.73,21.66-45.7,28.14-24.38,9.31-49.73,14.38-75.66,17.09-19.68,2.06-39.4,3.25-59.15,2.47-39-1.53-77.42-6.4-113.92-21.29-15.08-6.15-29.33-13.72-40.73-25.72-6.94-7.31-10.59-15.86-10.42-26.11.21-12.71.05-25.43.05-38.95,5.35,4.19,9.89,8.14,14.82,11.51,22.59,15.48,48.07,23.81,74.49,29.69,22.65,5,45.59,7.54,68.77,8.63,45.56,2.13,90.36-2.12,134-15.61,21.82-6.74,42.56-15.95,59.68-31.74C436.1,290.36,437.06,289.81,439,288.45Z"/><path class="cls-2" d="M438.69,97.16c0,15.62.54,44.76-.18,59.32-.53,10.7-7.27,13.83-15.1,20.56-14.18,12.16-30.9,19.68-48.41,25.57-22.33,7.51-45.31,11.92-68.74,14.23-16.89,1.67-33.82,2.87-50.76,2.46-37.58-.91-74.73-4.94-110.49-17.49-16.53-5.81-32.36-13-45.81-24.58C89.36,168.79,82.91,158.7,83.45,145c.43-10.89.07-31.49.11-42.4,0-1.48-.46-3.07.81-5,4.59,4,14.79,30.4,142.41,39.18a430.69,430.69,0,0,0,62.93.53C405.77,135.43,437.14,98.37,438.69,97.16Z"/><path class="cls-2" d="M438.8,365.17c0,15.4.31,29.58-.1,43.74-.31,10.63-6.26,18.78-13.87,25.54-19.9,17.69-44.27,26.15-69.43,32.63-20.94,5.4-42.3,8.29-63.9,9.76a465.79,465.79,0,0,1-51.36.55c-36-1.54-71.41-7.11-105.14-20.58-14-5.58-27.21-12.53-38.21-22.94-8.26-7.82-13.69-17.11-13.33-29.19.37-12.76.08-25.54.08-38.83,3.16,1.47,4.91,4.09,7.22,5.95,14.52,11.64,31,19.51,48.44,25.67,25.63,9.06,52.12,13.9,79.12,16.68a427.42,427.42,0,0,0,66.24,1.42c42.78-2.25,84.64-9.31,123.52-28.72A119.15,119.15,0,0,0,438.8,365.17Z"/><path class="cls-2" d="M83.54,182c25.37,23.3,55.65,33.7,87.25,41.15,36.28,8.54,73.18,10.8,110.25,9.19,41.21-1.78,81.59-8.3,119.65-25.26,13.71-6.11,26.43-13.87,37.23-24.47,1.56,1,.87,31.36.87,32.46q.09,18.45,0,36.91c0,9-3.34,16.61-9.34,23.22-14.05,15.53-32.44,23.91-51.58,30.74-21.57,7.69-44,11.94-66.7,14.73a427.44,427.44,0,0,1-69.88,2.43c-37.11-1.55-73.6-7.13-108.18-21.52-14.85-6.18-28.94-13.78-40-26-6.21-6.9-9.65-14.73-9.63-24C83.55,238.29,83.54,196.08,83.54,182Z"/><path class="cls-3" d="M396.32,425.66a28.46,28.46,0,0,1-4.23-4.65c-7.21-8.71-15.42-16.25-25.29-21.88a98.56,98.56,0,0,1-12.15-7.72c-2.66-2.1-5.23-4.31-6.31-7.77,9-1.7,17.45-4.91,26.51-5.45,5.74-.35,11.17-2.1,16.64-3.71,1.72-.51,2.71-1.37,1.35-2.91-3.3-3.76-5.83-8.19-9.61-11.52-17.44-15.35-36.05-29-58.09-37.05a18,18,0,0,1-10.76-10c-6.84-14.67-14.35-29-20.78-43.9-4-9.15-7.13-18.66-12.32-27.3C263.38,212,239.34,188.54,210,170.09c-14.67-9.22-30.27-14.28-47.5-14.43a11.1,11.1,0,0,1-7.88-3c-7.12-6.54-15.64-10.71-24.52-14.2a42.84,42.84,0,0,0-16.63-3.42c-11.56.25-19.18,9.81-16.84,21.17,1.12,5.44,3.9,10,7.15,14.39,4,5.29,8,10.5,12,15.78,2.77,3.69,5.47,7.47,6.62,12,2.08,8.26,5.21,16.16,8.09,24.15,3.24,9,7,17.85,13.3,25,3.6,4.13,4.34,7,2.69,12.41-3.19,10.46-6.22,21.1-6.75,32.22-.72,15.22,1.07,30,7.69,43.87,3,6.28,6.8,12.1,12.94,15.81,7.39,4.47,15.6,1.28,18.25-6.93a59,59,0,0,0,1.71-9.13c.75-4.74,1.58-9.46,2.37-14.19A23.63,23.63,0,0,1,186.6,328a78.6,78.6,0,0,0,17.45,25.61c8,8,17.29,14.59,25.24,22.66A8.8,8.8,0,0,0,234.2,379c-1.7-2.4,168.42,57.8,169.6,57.9v-.6C401.8,432.42,400,428.46,396.32,425.66ZM171.12,205.39c-1,1-1.71,1.67-2.5-.25a48.66,48.66,0,0,0-9.16-14.63c-2.28-2.47-2-2.76,1.4-3.35,1-.17,2-.23,3.83-.44,2.1-.47,3.77,1.79,5.6,3.3A10.62,10.62,0,0,1,171.12,205.39Z"/><path class="cls-4" d="M396.32,425.66a28.46,28.46,0,0,1-4.23-4.65c-7.21-8.71-15.42-16.25-25.29-21.88a98.56,98.56,0,0,1-12.15-7.72c-2.66-2.1-5.23-4.31-6.31-7.77,9-1.7,17.45-4.91,26.51-5.45,5.74-.35,11.17-2.1,16.64-3.71,1.72-.51,2.71-1.37,1.35-2.91-3.3-3.76-5.83-8.19-9.61-11.52-17.44-15.35-36.05-29-58.09-37.05a18,18,0,0,1-10.76-10c-6.84-14.67-14.35-29-20.78-43.9-4-9.15-7.13-18.66-12.32-27.3C263.38,212,239.34,188.54,210,170.09c-14.67-9.22-30.27-14.28-47.5-14.43a11.1,11.1,0,0,1-7.88-3c-7.12-6.54-15.64-10.71-24.52-14.2a42.84,42.84,0,0,0-16.63-3.42c-11.56.25-19.18,9.81-16.84,21.17,1.12,5.44,3.9,10,7.15,14.39,4,5.29,8,10.5,12,15.78,2.77,3.69,5.47,7.47,6.62,12,2.08,8.26,5.21,16.16,8.09,24.15,3.24,9,7,17.85,13.3,25,3.6,4.13,4.34,7,2.69,12.41-3.19,10.46-6.22,21.1-6.75,32.22-.72,15.22,1.07,30,7.69,43.87,3,6.28,6.8,12.1,12.94,15.81,7.39,4.47,15.6,1.28,18.25-6.93a59,59,0,0,0,1.71-9.13c.75-4.74,1.58-9.46,2.37-14.19A23.63,23.63,0,0,1,186.6,328a78.6,78.6,0,0,0,17.45,25.61c8,8,17.29,14.59,25.24,22.66,1.28,1.3,3.19,6.41,5.25,6.75-1.7-2.4,166.92,57.43,168.1,57.53,0-.2,4.93,1.38,4.93,1.18C405.57,437.86,400,428.46,396.32,425.66ZM171.12,205.39c-1,1-1.71,1.67-2.5-.25a48.66,48.66,0,0,0-9.16-14.63c-2.28-2.47-2-2.76,1.4-3.35,1-.17,2-.23,3.83-.44,2.1-.47,3.77,1.79,5.6,3.3A10.62,10.62,0,0,1,171.12,205.39Z"/></g></svg>