<svg xmlns="http://www.w3.org/2000/svg" viewBox="0 0 500 500"><defs><style>.cls-1{fill:#1a6faf;}.cls-2{fill:#78b8ea;}</style></defs><g id="BD"><path class="cls-1" d="M285,19.6c33,3,67.3,6.08,98,19,18.21,7.68,33.36,10.46,45.93,26.35A50.8,50.8,0,0,1,439.4,99.85c-.31,3.37.24,13.58.24,17,0,96-.3,192,.25,288,.13,21.57-9.13,36.91-25.26,49.29-21,16.14-45.4,25-70.77,31.3-39.44,9.81-79.53,12.69-120.06,10.63-28.55-1.45-56.69-5.35-84.2-13.28C118,476.5,97.2,468.22,79.12,454.39c-10.82-8.26-19.68-18.09-23.79-31.51A43.67,43.67,0,0,1,53.75,410q0-147.72.12-295.45c0-7.52-1-25.81,1.42-33.33,4.26-13.37,13-19.4,23.81-27.64,19.92-15.15,41-18.86,64.84-25.27,22.78-6.12,48-7.39,71.43-9.25C216.78,18.89,281,19.23,285,19.6Z"/><path class="cls-2" d="M246.51,125.63c-39-.12-77.37-2.85-114.49-11.2-17.63-4-34.43-9.05-48.54-17.39-4.69-2.78-8.75-5.92-11.45-9.7-5.64-7.91-2.36-14.88,5.58-21.22,8.55-6.82,19.66-11.36,31.48-15.2,24.57-8,50.82-12.14,77.72-14.74a638.44,638.44,0,0,1,97.4-1.7c34.56,2,68.43,6.23,100,16.41,11.68,3.77,22.54,8.33,31.23,14.93,11.52,8.75,11.5,18.89-.23,27.62-11.39,8.48-26,13.69-41.52,17.9-31.16,8.46-63.89,12.11-97.29,13.64Q261.47,125.67,246.51,125.63Z"/><path class="cls-2" d="M424.46,291.71c-.7,16.47,1,32-.94,47.46-.84,6.74-4.46,12.23-8.95,17.08-12.59,13.62-28.72,21.65-45.69,28.13-24.38,9.32-49.73,14.39-75.66,17.1-19.68,2.06-39.4,3.25-59.15,2.47-39-1.54-77.42-6.4-113.92-21.29-15.08-6.16-29.33-13.72-40.73-25.73-6.94-7.3-10.6-15.86-10.42-26.11.21-12.71,0-25.43,0-38.94,5.35,4.18,9.89,8.13,14.82,11.51,22.58,15.48,48.07,23.8,74.49,29.69,22.65,5,45.59,7.54,68.77,8.62,45.56,2.13,90.36-2.11,134-15.6,21.82-6.75,42.56-16,59.68-31.75C421.61,293.62,422.57,293.07,424.46,291.71Z"/><path class="cls-2" d="M424.2,100.43c0,15.62.54,44.75-.18,59.32-.53,10.7-7.27,13.83-15.1,20.55C394.74,192.47,378,200,360.51,205.87c-22.33,7.52-45.31,11.92-68.74,14.24C274.87,221.77,258,223,241,222.56c-37.58-.91-74.73-4.93-110.49-17.49-16.53-5.8-32.36-13-45.81-24.57C74.87,172.05,68.42,162,69,148.22c.43-10.89.07-31.49.11-42.39,0-1.49-.46-3.07.81-5,4.59,4,14.79,30.39,142.41,39.18a430.69,430.69,0,0,0,62.93.52C391.28,138.69,422.65,101.64,424.2,100.43Z"/><path class="cls-2" d="M424.31,368.44c0,15.39.31,29.58-.1,43.74C423.9,422.8,418,431,410.34,437.72c-19.9,17.68-44.27,26.14-69.43,32.63-20.94,5.4-42.3,8.28-63.9,9.75a465.79,465.79,0,0,1-51.36.55c-36-1.53-71.41-7.1-105.14-20.58-14-5.57-27.21-12.53-38.21-22.94C74,429.32,68.61,420,69,408c.37-12.76.08-25.54.08-38.83,3.16,1.47,4.91,4.09,7.22,5.94,14.52,11.64,31,19.51,48.44,25.67,25.63,9.06,52.12,13.9,79.12,16.68a427.4,427.4,0,0,0,66.24,1.43c42.78-2.25,84.64-9.31,123.52-28.72A119.64,119.64,0,0,0,424.31,368.44Z"/><path class="cls-2" d="M69.05,185.25c25.36,23.3,55.65,33.7,87.25,41.14,36.28,8.55,73.18,10.8,110.25,9.2,41.21-1.78,81.59-8.3,119.65-25.27,13.71-6.11,26.43-13.87,37.23-24.47,1.56,1,.87,31.37.87,32.46q.09,18.47,0,36.92c0,9-3.34,16.6-9.34,23.22-14.05,15.53-32.44,23.91-51.58,30.73-21.57,7.7-44,11.95-66.7,14.74a427.44,427.44,0,0,1-69.88,2.42c-37.11-1.55-73.6-7.12-108.18-21.51-14.85-6.18-28.94-13.78-40-26C72.47,271.9,69,264.06,69,254.75,69.06,241.56,69.05,199.34,69.05,185.25Z"/></g></svg>