<svg xmlns="http://www.w3.org/2000/svg" viewBox="0 0 500 500"><defs><style>.cls-1{fill:#1a6faf;}.cls-2{fill:#78b8ea;}</style></defs><g id="BD"><path class="cls-1" d="M297.2,16.33c33,3,67.3,6.08,98,19C413.41,43,428.57,45.8,441.14,61.69A50.87,50.87,0,0,1,451.6,96.58c-.31,3.37.23,13.59.23,17,0,96-.3,192,.26,288,.12,21.56-9.13,36.9-25.27,49.29-21,16.14-45.39,25-70.76,31.3-39.44,9.8-79.53,12.69-120.06,10.62-28.55-1.45-56.7-5.34-84.2-13.28-21.65-6.25-42.4-14.53-60.49-28.35C80.5,442.86,71.64,433,67.53,419.61A43.26,43.26,0,0,1,66,406.68q0-147.72.12-295.45c0-7.52-1-25.81,1.42-33.33,4.26-13.37,13-19.39,23.81-27.63,19.92-15.16,41-18.86,64.84-25.28,22.78-6.12,48-7.39,71.43-9.25C229,15.63,293.16,16,297.2,16.33Z"/><path class="cls-2" d="M258.71,122.36c-39-.12-77.37-2.85-114.49-11.2-17.63-4-34.43-9-48.54-17.39C91,91,86.93,87.85,84.23,84.07c-5.64-7.91-2.37-14.87,5.58-21.21,8.55-6.82,19.66-11.37,31.48-15.21,24.57-8,50.82-12.13,77.71-14.73a636,636,0,0,1,97.41-1.7c34.56,2,68.42,6.22,100,16.4,11.69,3.78,22.54,8.34,31.23,14.93,11.53,8.75,11.5,18.9-.22,27.62-11.39,8.49-26,13.7-41.53,17.91-31.16,8.46-63.89,12.11-97.28,13.63Q273.66,122.4,258.71,122.36Z"/><path class="cls-2" d="M436.66,288.45c-.7,16.47,1,32-.94,47.45-.84,6.75-4.47,12.23-9,17.08-12.59,13.62-28.72,21.66-45.69,28.14-24.38,9.31-49.74,14.38-75.66,17.09-19.69,2.06-39.4,3.25-59.16,2.47-39-1.53-77.41-6.4-113.92-21.29-15.08-6.15-29.32-13.72-40.72-25.72-6.94-7.31-10.6-15.86-10.43-26.11.22-12.71,0-25.43,0-38.95,5.36,4.19,9.9,8.14,14.82,11.51,22.59,15.48,48.08,23.81,74.5,29.69,22.64,5,45.59,7.54,68.77,8.63,45.56,2.13,90.36-2.12,134-15.61,21.81-6.74,42.55-15.95,59.68-31.74C433.81,290.36,434.77,289.81,436.66,288.45Z"/><path class="cls-2" d="M436.4,97.16c0,15.62.54,44.76-.18,59.32-.53,10.7-7.28,13.83-15.11,20.56-14.17,12.16-30.9,19.68-48.41,25.57-22.33,7.51-45.3,11.92-68.74,14.23-16.89,1.67-33.81,2.87-50.76,2.46-37.57-.91-74.73-4.94-110.48-17.49-16.54-5.81-32.36-13-45.81-24.58-9.85-8.44-16.3-18.53-15.75-32.27.43-10.89.06-31.49.11-42.4,0-1.48-.47-3.07.81-5,4.59,4,14.79,30.4,142.41,39.18a430.67,430.67,0,0,0,62.93.53C403.48,135.43,434.85,98.37,436.4,97.16Z"/><path class="cls-2" d="M436.51,365.17c0,15.4.31,29.58-.11,43.74-.3,10.63-6.26,18.78-13.87,25.54-19.89,17.69-44.27,26.15-69.42,32.63-20.95,5.4-42.3,8.29-63.91,9.76a465.61,465.61,0,0,1-51.35.55c-36-1.54-71.41-7.11-105.15-20.58-13.94-5.58-27.21-12.53-38.21-22.94-8.25-7.82-13.68-17.11-13.33-29.19.37-12.76.08-25.54.08-38.83,3.16,1.47,4.91,4.09,7.23,5.95,14.52,11.64,31,19.51,48.43,25.67,25.64,9.06,52.13,13.9,79.12,16.68a427.45,427.45,0,0,0,66.24,1.42c42.79-2.25,84.64-9.31,123.52-28.72A119,119,0,0,0,436.51,365.17Z"/><path class="cls-2" d="M81.24,182c25.37,23.3,55.65,33.7,87.26,41.15,36.27,8.54,73.18,10.8,110.25,9.19,41.2-1.78,81.59-8.3,119.64-25.26,13.71-6.11,26.44-13.87,37.24-24.47,1.56,1,.86,31.36.87,32.46q.08,18.45,0,36.91c0,9-3.34,16.61-9.33,23.22-14.06,15.53-32.44,23.91-51.58,30.74-21.58,7.69-44,11.94-66.71,14.73A427.28,427.28,0,0,1,239,323.08c-37.11-1.55-73.61-7.13-108.19-21.52-14.84-6.18-28.93-13.78-40-26-6.21-6.9-9.65-14.73-9.64-24C81.26,238.29,81.24,196.08,81.24,182Z"/></g></svg>