<svg xmlns="http://www.w3.org/2000/svg" viewBox="0 0 500 500"><defs><style>.cls-1{fill:#8892bf;}</style></defs><g id="Linguagens"><path class="cls-1" d="M88,398.37c0-15.41-.11-30.82.09-46.23,0-3.7-.55-5.12-4.79-5.53-33.74-3.29-58.62-25-65.82-56.92-9-39.82,19.8-80.69,60.45-85.84C88,202.57,88,202.57,88,192.51q0-42.58,0-85.18c0-18.47,11.55-30,30.1-30q45.6,0,91.2.06c3.39,0,4.61-.58,4.85-4.38,2.28-36.4,31.48-65.62,67.19-67.55,37-2,68.81,22.91,75.65,59.29.12.63.19,1.28.27,1.92,1.27,10.65,1.27,10.65,11.79,10.65q42.43,0,84.86,0c18.52,0,30.16,11.6,30.17,30,0,30-.05,60,.09,90,0,4-.54,5.6-5.27,6a71.84,71.84,0,0,0-66.82,67.89c-2,35.94,23.42,67.82,59.43,74.55a26,26,0,0,0,6.76.74c5.46-.48,6,2.26,5.93,6.88-.22,29.69-.09,59.38-.12,89.07,0,18.43-11.7,30.15-30.08,30.17-30.4,0-60.8,0-91.2.07-3.24,0-149.32-.06-159.75-.06q-42.43,0-84.86,0c-18.53,0-30.17-11.58-30.19-30Q88,420.52,88,398.37Z"/></g></svg>