<svg xmlns="http://www.w3.org/2000/svg" viewBox="0 0 500 500"><defs><style>.cls-1{fill:#1a6faf;}.cls-2{fill:#78b8ea;}</style></defs><g id="BD"><path class="cls-1" d="M288.22,13.73c33,3,67.29,6.08,98,19,18.21,7.67,33.37,10.45,45.93,26.34A50.85,50.85,0,0,1,442.62,94c-.32,3.37.23,13.58.23,17,0,96-.3,192,.26,288,.12,21.57-9.14,36.91-25.27,49.29-21,16.14-45.39,25-70.76,31.3-39.44,9.8-79.53,12.69-120.06,10.63-28.55-1.46-56.7-5.35-84.2-13.29-21.65-6.24-42.4-14.53-60.49-28.35C71.52,440.25,62.66,430.43,58.55,417A43.25,43.25,0,0,1,57,404.08q0-147.74.13-295.46c0-7.52-1-25.8,1.41-33.33,4.27-13.37,13-19.39,23.82-27.63,19.92-15.16,41-18.86,64.84-25.28,22.78-6.11,48-7.38,71.43-9.25C220,13,284.18,13.36,288.22,13.73Z"/><path class="cls-2" d="M249.72,119.76c-39-.12-77.36-2.86-114.48-11.21-17.63-4-34.43-9-48.54-17.38C82,88.39,78,85.25,75.25,81.46c-5.64-7.9-2.37-14.87,5.57-21.21,8.55-6.82,19.67-11.36,31.48-15.2,24.58-8,50.83-12.14,77.72-14.74a638.59,638.59,0,0,1,97.41-1.7c34.56,1.95,68.42,6.22,100,16.41C399.1,48.79,410,53.35,418.64,60c11.53,8.75,11.5,18.89-.22,27.62-11.4,8.48-26,13.69-41.53,17.9-31.16,8.46-63.89,12.11-97.28,13.64Q264.69,119.79,249.72,119.76Z"/><path class="cls-2" d="M427.68,285.84c-.71,16.47,1,32-.94,47.46-.84,6.74-4.47,12.23-8.95,17.08C405.2,364,389.07,372,372.1,378.51c-24.38,9.31-49.74,14.39-75.67,17.1-19.68,2.06-39.4,3.24-59.15,2.46-39-1.53-77.42-6.4-113.92-21.29-15.08-6.15-29.32-13.72-40.73-25.72C75.7,343.76,72,335.2,72.21,325c.22-12.71.05-25.43.05-38.94,5.36,4.18,9.89,8.13,14.82,11.51,22.59,15.47,48.08,23.8,74.5,29.68,22.64,5.05,45.58,7.55,68.77,8.63,45.56,2.13,90.35-2.12,134-15.61,21.82-6.74,42.56-16,59.68-31.74C424.83,287.75,425.79,287.2,427.68,285.84Z"/><path class="cls-2" d="M427.42,94.56c0,15.61.54,44.75-.18,59.32-.53,10.7-7.28,13.83-15.11,20.55C398,186.6,381.23,194.11,363.72,200c-22.33,7.51-45.3,11.92-68.74,14.23-16.89,1.67-33.81,2.87-50.76,2.46-37.58-.91-74.73-4.94-110.48-17.49-16.54-5.8-32.36-13-45.81-24.58-9.85-8.44-16.3-18.53-15.75-32.27.43-10.89.06-31.49.11-42.4,0-1.48-.47-3.07.81-5,4.59,4,14.78,30.39,142.41,39.17a429.27,429.27,0,0,0,62.93.53C394.5,132.82,425.87,95.77,427.42,94.56Z"/><path class="cls-2" d="M427.52,362.57c0,15.39.31,29.57-.1,43.74-.3,10.62-6.26,18.77-13.87,25.54-19.9,17.68-44.27,26.14-69.43,32.62-20.94,5.4-42.29,8.29-63.9,9.76a465.61,465.61,0,0,1-51.35.55c-36-1.53-71.41-7.1-105.15-20.58-13.94-5.57-27.21-12.53-38.21-22.94-8.26-7.82-13.68-17.11-13.33-29.18.37-12.77.08-25.55.08-38.84,3.16,1.47,4.91,4.09,7.23,5.95,14.52,11.64,31,19.51,48.43,25.67,25.64,9.06,52.13,13.9,79.12,16.68A427.42,427.42,0,0,0,273.28,413c42.79-2.24,84.64-9.31,123.52-28.72A119,119,0,0,0,427.52,362.57Z"/><path class="cls-2" d="M72.26,179.38c25.37,23.3,55.65,33.7,87.25,41.14,36.28,8.55,73.18,10.8,110.26,9.2,41.2-1.78,81.59-8.3,119.64-25.27,13.71-6.11,26.44-13.87,37.24-24.47,1.55,1,.86,31.36.86,32.46q.09,18.45,0,36.91c0,9-3.34,16.61-9.33,23.23-14.06,15.52-32.44,23.9-51.58,30.73-21.58,7.7-44,11.95-66.71,14.73a426.25,426.25,0,0,1-69.87,2.43c-37.11-1.55-73.61-7.12-108.19-21.52-14.84-6.17-28.93-13.77-40-26-6.21-6.9-9.65-14.74-9.64-24.06C72.27,235.68,72.26,193.47,72.26,179.38Z"/></g></svg>