<svg xmlns="http://www.w3.org/2000/svg" xmlns:xlink="http://www.w3.org/1999/xlink" viewBox="0 0 500 500"><defs><style>.cls-1{fill:#254077;}.cls-2{fill:#242938;}.cls-3{fill:#edeeed;}.cls-4{fill:url(#Gradiente_sem_nome_4);}</style><linearGradient id="Gradiente_sem_nome_4" x1="-528.61" y1="-562.06" x2="-528.12" y2="-562.23" gradientTransform="matrix(800, 0, 0, -480, 422956.36, -269614.21)" gradientUnits="userSpaceOnUse"><stop offset="0" stop-color="#2298bd"/><stop offset="1" stop-color="#0ed7b5"/></linearGradient></defs><g id="Bibliotecas"><g id="twilcss"><path class="cls-1" d="M66.24,22c3.05-.08,271.88-.16,403.25-.38,9.42,0,11.8,1.8,11.78,8.23q-.39,178-.22,356.05c0,2.32.69,4.74-1.15,6.93-4.56,1.89-9.59,2.09-14.75,2.09q-193.95,0-387.92,0c-4,0-8.2.39-11.89-1.26-4.15-2.5-3.56-6-3.68-9.21-.37-9.66-.16-19.33-.16-29,0-106-.47-212.75-.29-318.8C61.77,28.15,59.16,26.23,66.24,22Z"/><path class="cls-2" d="M73.48,389.13c114.8.08,292.85.12,407.65.15a1.3,1.3,0,0,0,0-1.55c-117.46,0-300,0-419.38,0h0C61.41,269,60.9,147.35,61.21,28.63v-.12c0-5.18,6.12-6.33,5-6.54-.54-.1-8.13,4.09-8.67,4.4C47.12,32.37,30.93,44.23,31,60c.49,125.53.29,228.06.28,353.59,0,29.6,25,50.12,61.58,50.13q189.26.08,378.49,0c1.34,0,2.81.29,4.21.29a2.42,2.42,0,0,0,1.93-3.85c-3.74-5.19-7.58-10.21-10.75-15.49-14.44-24-13.13-23.91,8-45.28.63-.64,5.18-6.58,5.18-6.58-2,.51-2,1.54-11.44,2.09-106.64-.05-370.91.62-398.89-.31-5.25-.18-7-3.51-7.55-5.47C66.07,389.48,70.88,389.13,73.48,389.13Z"/><path class="cls-3" d="M450,434.09c7.4,10.86,7.4,10.86-7.59,10.86q-172,0-344.06,0c-6.76,0-13.54,0-20.08-1.46C59,439.22,48.23,445,48.44,422.05c.15-15.69,18.62-19.43,38.39-20.37,4.09-.2,8.21-.17,12.31-.17H440.56c14.6,0,14.6,0,7.86,10.46C445.63,414.57,446.35,431,450,434.09Z"/><path class="cls-4" d="M269.1,101.52q-77.51,0-96.88,77.5Q201.29,140.27,240,150c14.74,3.69,25.27,14.38,36.94,26.22,19,19.28,41,41.6,89,41.6q77.5,0,96.88-77.51Q433.81,179,395.05,169.34c-14.74-3.69-25.28-14.38-36.94-26.22C339.11,123.84,317.12,101.52,269.1,101.52ZM172.22,217.78q-77.5,0-96.88,77.5,29.07-38.75,67.82-29.06c14.74,3.68,25.27,14.37,36.94,26.21,19,19.28,41,41.6,89,41.6q77.5,0,96.88-77.5-29.06,38.75-67.81,29.06c-14.74-3.68-25.28-14.38-36.94-26.21C242.23,240.09,220.25,217.78,172.22,217.78Z"/></g></g></svg>