<svg xmlns="http://www.w3.org/2000/svg" viewBox="0 0 500 500"><defs><style>.cls-1{fill:#183454;}.cls-2{fill:#0e263d;}.cls-3{fill:#edeeed;}.cls-4{fill:#fff;}</style></defs><g id="Bibliotecas"><path class="cls-1" d="M63.26,37c3.05-.08,271.89-.16,403.25-.39,9.43,0,11.8,1.81,11.79,8.23q-.41,178-.23,356.06c0,2.32.69,4.73-1.14,6.92-4.57,1.9-9.59,2.1-14.75,2.09q-194,0-387.93,0c-4,0-8.2.38-11.89-1.27-4.14-2.5-3.56-6-3.68-9.21-.37-9.66-.16-19.32-.16-29,0-106-.46-212.75-.29-318.81C58.8,43.18,56.18,41.26,63.26,37Z"/><path class="cls-2" d="M70.5,404.16c114.8.08,292.86.11,407.66.15a1.32,1.32,0,0,0,0-1.55c-117.46,0-300,0-419.38,0h0c-.34-118.77-.86-240.37-.55-359.09v-.12c0-5.18,6.12-6.33,5-6.54-.53-.11-8.12,4.08-8.66,4.39C44.14,47.4,28,59.25,28,75.06c.5,125.53.3,228.06.29,353.58,0,29.6,25,50.13,61.58,50.14q189.24.08,378.49,0c1.34,0,2.8.29,4.21.29a2.43,2.43,0,0,0,1.93-3.86c-3.75-5.19-7.59-10.2-10.76-15.48-14.43-24-13.13-23.91,8-45.28.63-.64,5.18-6.59,5.18-6.59-2,.52-2,1.54-11.45,2.1-106.64-.05-370.9.62-398.89-.31-5.24-.18-7-3.51-7.55-5.47C63.09,404.5,67.9,404.16,70.5,404.16Z"/><path class="cls-3" d="M447,449.12c7.4,10.86,7.4,10.86-7.6,10.86q-172,0-344,0c-6.77,0-13.54,0-20.09-1.46-19.26-4.29-30,1.46-29.83-21.46.15-15.68,18.62-19.42,38.38-20.37,4.1-.19,8.21-.17,12.32-.17H437.58c14.6,0,14.6,0,7.87,10.46C442.66,429.6,443.37,446,447,449.12Z"/><path class="cls-4" d="M135.07,139.84c-27,38.82-23.66,89.34-3,130.6l1.51,2.93,1,1.86.6,1.07,1.08,1.92c.64,1.13,1.3,2.25,2,3.38l1.12,1.85c.75,1.2,1.51,2.39,2.29,3.58l1,1.5c1.08,1.61,2.18,3.21,3.31,4.78l.1.12.56.76c1,1.35,2,2.69,3,4l1.14,1.45q1.37,1.73,2.79,3.43l1.06,1.27c1.27,1.49,2.57,3,3.89,4.44l.08.08.15.17c1.29,1.4,2.6,2.78,3.95,4.16l1.26,1.27c1,1,2.09,2.07,3.15,3.09l1.29,1.23q2.13,2,4.32,3.93l.07.06.75.64c1.29,1.12,2.61,2.22,3.93,3.32L179,328c1.08.87,2.17,1.72,3.27,2.56l1.76,1.33q1.81,1.33,3.67,2.63l1.33.95.37.26c1.17.81,2.37,1.59,3.57,2.36l1.54,1c1.84,1.16,3.7,2.31,5.58,3.42l1.54.87c1.39.8,2.78,1.58,4.19,2.35l2.32,1.2,3,1.55.69.34,1.23.59c1.57.75,3.15,1.49,4.75,2.2l1,.45q2.74,1.2,5.54,2.31l1.36.53c1.72.67,3.47,1.32,5.23,1.93l.65.23c1.93.68,3.88,1.3,5.83,1.91l1.41.42a57.24,57.24,0,0,0,6,1.7C375.48,385,413.43,282.64,413.43,282.64c-31.87,41.53-88.44,52.48-142,40.29-2-.46-4-1.1-6-1.68l-1.49-.46q-2.9-.89-5.76-1.87l-.79-.28c-1.71-.61-3.39-1.24-5.08-1.89l-1.42-.56c-1.84-.72-3.68-1.48-5.49-2.27l-1.09-.49c-1.56-.71-3.1-1.41-4.63-2.15l-1.33-.65c-1.21-.58-2.39-1.2-3.58-1.82l-2.39-1.25c-1.45-.77-2.87-1.58-4.29-2.4l-1.44-.81c-1.89-1.11-3.75-2.26-5.59-3.42l-1.51-1c-1.33-.86-2.66-1.74-4-2.65l-1.28-.9q-1.91-1.33-3.76-2.71l-1.66-1.26q-1.71-1.31-3.39-2.65L204,288.55c-1.43-1.17-2.83-2.35-4.22-3.56l-.46-.39c-1.51-1.32-3-2.67-4.44-4l-1.25-1.21c-1.08-1-2.15-2.06-3.19-3.12L189.14,275q-2-2-3.92-4.14l-.19-.21c-1.35-1.48-2.68-3-4-4.52l-1-1.23c-1-1.16-1.92-2.35-2.85-3.53l-1-1.31c-1.13-1.46-2.22-2.91-3.3-4.39-29.76-40.59-40.45-96.58-16.67-142.55m62.77-6c-19.53,28.11-18.48,65.75-3.23,95.48A122.47,122.47,0,0,0,224.33,217c2.92,4.2,6.17,9.19,10,12.56,1.41,1.55,2.88,3.07,4.39,4.55l1.15,1.14c1.46,1.42,2.94,2.81,4.48,4.16l.18.16,0,0c1.7,1.49,3.45,2.92,5.23,4.33l1.19.93c1.79,1.37,3.6,2.71,5.47,4l.16.12,2.5,1.65,1.18.78c1.34.86,2.68,1.69,4.06,2.48l.57.34c1.18.68,2.38,1.35,3.58,2l1.28.67,2.51,1.3.37.17c1.73.84,3.46,1.66,5.24,2.44l1.15.47c1.42.6,2.85,1.19,4.29,1.74l1.84.68c1.3.48,2.61.93,3.94,1.37l1.77.57a43.17,43.17,0,0,0,5.7,1.64C397.51,284,420.8,206.36,420.8,206.36c-21,30.23-61.64,44.66-105,33.4q-2.89-.76-5.71-1.65l-1.72-.56c-1.34-.43-2.68-.89-4-1.37l-1.8-.67q-2.18-.84-4.3-1.74l-1.16-.49c-1.78-.78-3.53-1.59-5.26-2.45l-2.64-1.34-1.52-.78c-1.13-.61-2.24-1.24-3.34-1.89l-.8-.45c-1.37-.8-2.71-1.62-4-2.47l-1.22-.81-2.62-1.74c-1.86-1.28-3.67-2.62-5.45-4l-1.23-1c-19-15-34-35.47-41.19-58.7-7.5-24.1-5.88-51.14,7.11-73.1m54.56-1.9c-11.52,17-12.65,38-4.66,56.72,8.43,19.87,25.69,35.45,45.85,42.84l2.51.87,1.1.35a29.5,29.5,0,0,0,3.59,1c55.7,10.76,70.8-28.58,74.82-34.38-13.23,19.06-35.47,23.63-62.75,17a67.23,67.23,0,0,1-6.6-2,80.13,80.13,0,0,1-7.85-3.26,81.65,81.65,0,0,1-13.74-8.38c-24.42-18.53-39.59-53.87-23.65-82.65"/></g></svg>