<svg xmlns="http://www.w3.org/2000/svg" viewBox="0 0 500 500"><defs><style>.cls-1{fill:#2c2c2b;}</style></defs><g id="Frameworks"><path class="cls-1" d="M285.48,24.31a8.22,8.22,0,0,0-2.07,1.56c-.52.59-5.66,9.88-11.43,20.68S261,67,260.29,68.08c-2,3.11-1.82,3.07-12.14,3.48L239,72l-2-1c-2-1-2.18-1.26-15.39-20.32-7.4-10.62-13.8-19.83-14.28-20.46a6.21,6.21,0,0,0-4.89-2.36c-1.59,0-43.43,13.91-44.88,14.91-2.14,1.51-2.58,3.29-2.18,8.69.89,11,2.63,33,3,38.07l.44,5.66-1.07,2.11c-1,2-1.41,2.37-8.66,7.4a86.51,86.51,0,0,1-8.88,5.66c-3,.89-3.4.78-27.23-9.1-24.45-10.14-23.75-9.88-26.64-8.58-1.4.66-28.89,34.85-29.45,36.63a4.74,4.74,0,0,0,0,2.84c.3.93,5.63,8.25,14.88,20.43,12.5,16.5,14.46,19.27,14.83,20.86.52,2.41.52,2.41-4.29,13.88-4.25,10.25-5.22,11.69-8.1,12.73-.85.29-12,2.44-24.83,4.73C25,209.16,24.9,209.2,23.27,211.41c-1.92,2.59-6.69,46.92-5.14,47.84.22.15,10.84,4.07,23.57,8.74s23.68,8.8,24.31,9.17c2.44,1.41,3,3,5.21,15.28,1.15,6.25,2.08,12.14,2.08,13.14a7.41,7.41,0,0,1-.86,3.36c-.55,1.08-6.17,6.55-18.2,17.73-9.58,8.87-17.72,16.68-18.13,17.27a5.22,5.22,0,0,0-.66,3c0,1.7.92,3.59,9.43,20.13,5.22,10,9.92,18.72,10.47,19.31a6.2,6.2,0,0,0,2.52,1.44c1.44.41,3.22.08,24.67-4.77,24.2-5.47,25-5.59,27.75-4.33,1.45.71,18.65,18.46,19.69,20.31,1.4,2.59,1.33,3.33-2.44,18.06-8.7,33.93-8.51,33.19-8,34.78a7.36,7.36,0,0,0,1.25,2.4c.45.52,9,5.52,18.91,11.1,16.39,9.22,18.28,10.18,19.79,10.18a6.34,6.34,0,0,0,2.82-.67c.63-.41,8.51-8.21,17.57-17.42S196.91,440.4,197.68,440c2.71-1.44,3.45-1.37,17,1.66,7,1.56,13.13,3.07,13.61,3.41,2.55,1.66,2.7,2,10.58,25.67,7.44,22.31,7.66,22.91,9.07,24.16a6.81,6.81,0,0,0,2.85,1.56c3.36.63,24.34-.7,37.74-2.41,6.06-.77,7.36-1.4,8.39-4.18.34-.89,2.78-11.91,5.41-24.49,3.18-15,5.06-23.31,5.51-24.05,1.44-2.29,2.51-2.85,13.8-7.14,12.17-4.66,13.73-5,16.43-3.55.66.37,9.17,7.06,18.87,14.91s18.16,14.54,18.79,14.91a4.83,4.83,0,0,0,3.07.52c1.89-.11,2.3-.41,12.91-8.44,21.57-16.32,23.61-17.91,24.31-18.9a6.08,6.08,0,0,0,.89-2.78c.19-1.63-.55-3.77-8.4-24.34-4.73-12.44-8.69-23.17-8.77-23.87-.37-2.55.48-4.14,6.4-12.28,3.19-4.33,6.15-8.29,6.59-8.73a7.63,7.63,0,0,1,5.59-2.37c1,0,12.06,1.11,24.53,2.48l22.64,2.44,1.59-.7a8.86,8.86,0,0,0,2.22-1.45c.52-.59,13.47-35.29,15.61-41.84a5.75,5.75,0,0,0-1.59-6.37c-.74-.77-9.91-7.69-20.38-15.39-18.8-13.8-19-14-19.95-16l-.92-2,.44-8c.6-10.39.67-10.88,2-12.87,1.11-1.59,2-2.07,22.68-12.47,11.88-6,21.83-11.06,22.16-11.32a8.43,8.43,0,0,0,2-4.15c0-1.55-9.58-45-10.18-46.17a6.71,6.71,0,0,0-2-2c-1.55-1,0-.88-37.48-3.29-14.39-.92-14.65-1-16.83-3.07-1.59-1.52-8.25-14.06-8.51-16.06a7.12,7.12,0,0,1,.3-3.1c.29-.82,6-10.7,12.65-21.95C441,116.44,441.5,115.48,441.5,113.7A8.2,8.2,0,0,0,441,111c-.48-.92-31.45-32.7-33.23-34.07a5.51,5.51,0,0,0-3-.85l-2.11-.15L381.83,87.47c-11.47,6.36-21.54,11.8-22.35,12.1-2.55.89-4.22.33-11.1-3.52s-7.7-4.44-8.77-6.55c-1-1.85-.92-1.36-1.81-27.78-.74-21.83-.78-22.61-1.59-24.24-1.37-2.77,1.33-2-36.41-10.95-6.36-1.48-11.95-2.73-12.39-2.73A7.51,7.51,0,0,0,285.48,24.31Z"/></g></svg>