<svg xmlns="http://www.w3.org/2000/svg" viewBox="0 0 500 500"><defs><style>.cls-1{fill:#1a6faf;}.cls-2{fill:#78b8ea;}</style></defs><g id="BD"><path class="cls-1" d="M288.22,15.8c33,3,67.29,6.08,98,19,18.21,7.67,33.37,10.45,45.93,26.34a50.85,50.85,0,0,1,10.47,34.9c-.32,3.37.23,13.58.23,17,0,96-.3,192,.26,288,.12,21.57-9.14,36.91-25.27,49.29-21,16.14-45.39,25-70.76,31.3-39.44,9.8-79.53,12.69-120.06,10.63-28.55-1.45-56.7-5.35-84.2-13.29-21.65-6.24-42.4-14.53-60.49-28.35-10.81-8.27-19.67-18.09-23.78-31.52A43.25,43.25,0,0,1,57,406.15q0-147.73.13-295.46c0-7.52-1-25.8,1.41-33.32C62.77,64,71.49,58,82.32,49.73c19.92-15.16,41-18.86,64.84-25.27,22.78-6.12,48-7.39,71.43-9.26C220,15.09,284.18,15.43,288.22,15.8Z"/><path class="cls-2" d="M249.72,121.83c-39-.12-77.36-2.85-114.48-11.21-17.63-4-34.43-9-48.54-17.38C82,90.46,78,87.32,75.25,83.53c-5.64-7.9-2.37-14.87,5.57-21.21C89.37,55.5,100.49,51,112.3,47.12c24.58-8,50.83-12.14,77.72-14.74a638.59,638.59,0,0,1,97.41-1.7c34.56,2,68.42,6.22,100,16.41C399.1,50.86,410,55.42,418.64,62c11.53,8.75,11.5,18.89-.22,27.62-11.4,8.48-26,13.69-41.53,17.9C345.73,116,313,119.65,279.61,121.18Q264.69,121.85,249.72,121.83Z"/><path class="cls-2" d="M427.68,287.91c-.71,16.47,1,32-.94,47.46-.84,6.74-4.47,12.23-8.95,17.08-12.59,13.62-28.72,21.65-45.69,28.13-24.38,9.32-49.74,14.39-75.67,17.1-19.68,2.06-39.4,3.24-59.15,2.47-39-1.54-77.42-6.41-113.92-21.3C108.28,372.7,94,365.13,82.63,353.13,75.7,345.83,72,337.27,72.21,327c.22-12.71.05-25.43.05-38.94,5.36,4.18,9.89,8.13,14.82,11.51,22.59,15.47,48.08,23.8,74.5,29.69,22.64,5,45.58,7.54,68.77,8.62,45.56,2.13,90.35-2.11,134-15.6,21.82-6.75,42.56-16,59.68-31.75C424.83,289.82,425.79,289.27,427.68,287.91Z"/><path class="cls-2" d="M427.42,96.63c0,15.61.54,44.75-.18,59.32-.53,10.7-7.28,13.83-15.11,20.55-14.18,12.17-30.9,19.68-48.41,25.57C341.39,209.58,318.42,214,295,216.3c-16.89,1.67-33.81,2.87-50.76,2.46-37.58-.91-74.73-4.93-110.48-17.49-16.54-5.8-32.36-13-45.81-24.57-9.85-8.45-16.3-18.53-15.75-32.28.43-10.89.06-31.49.11-42.4,0-1.48-.47-3.07.81-5,4.59,4,14.78,30.39,142.41,39.17a429.27,429.27,0,0,0,62.93.53C394.5,134.89,425.87,97.84,427.42,96.63Z"/><path class="cls-2" d="M427.52,364.64c0,15.39.31,29.58-.1,43.74-.3,10.62-6.26,18.77-13.87,25.54-19.9,17.68-44.27,26.14-69.43,32.62-20.94,5.4-42.29,8.29-63.9,9.76a465.61,465.61,0,0,1-51.35.55c-36-1.53-71.41-7.1-105.15-20.58-13.94-5.57-27.21-12.53-38.21-22.94-8.26-7.81-13.68-17.11-13.33-29.18.37-12.77.08-25.55.08-38.84,3.16,1.47,4.91,4.09,7.23,5.95,14.52,11.64,31,19.51,48.43,25.67,25.64,9.06,52.13,13.9,79.12,16.68A428.68,428.68,0,0,0,273.28,415c42.79-2.25,84.64-9.31,123.52-28.73A119,119,0,0,0,427.52,364.64Z"/><path class="cls-2" d="M72.26,181.45c25.37,23.3,55.65,33.7,87.25,41.14,36.28,8.55,73.18,10.8,110.26,9.2,41.2-1.78,81.59-8.3,119.64-25.27,13.71-6.11,26.44-13.87,37.24-24.47,1.55,1,.86,31.36.86,32.46q.09,18.45,0,36.92c0,9-3.34,16.6-9.33,23.22-14.06,15.52-32.44,23.9-51.58,30.73-21.58,7.7-44,11.95-66.71,14.74a427.35,427.35,0,0,1-69.87,2.42C192.94,321,156.44,315.42,121.86,301c-14.84-6.18-28.93-13.78-40-26-6.21-6.9-9.65-14.74-9.64-24.06C72.27,237.75,72.26,195.54,72.26,181.45Z"/></g></svg>