<svg xmlns="http://www.w3.org/2000/svg" viewBox="0 0 500 500"><defs><style>.cls-1{fill:#686868;}.cls-2{fill:#424242;}.cls-3{fill:#edeeed;}</style></defs><g id="Bibliotecas"><path class="cls-1" d="M59.88,34.39c3-.08,271.88-.16,403.25-.38,9.43,0,11.8,1.8,11.78,8.22q-.39,178-.22,356.06c0,2.32.69,4.73-1.15,6.92-4.56,1.9-9.58,2.1-14.74,2.1q-194,0-387.93,0c-4,0-8.2.39-11.89-1.27-4.15-2.49-3.56-6-3.68-9.2-.37-9.66-.16-19.33-.16-29,0-106-.47-212.75-.29-318.8C55.41,40.57,52.8,38.65,59.88,34.39Z"/><path class="cls-2" d="M67.12,401.55c114.8.08,292.85.12,407.65.15a1.29,1.29,0,0,0,0-1.55c-117.45,0-300,0-419.37,0h0c-.35-118.76-.86-240.37-.55-359.09v-.12c0-5.18,6.12-6.33,5-6.54-.54-.11-8.12,4.09-8.66,4.4-10.46,6-26.64,17.86-26.58,33.66.49,125.53.3,228.06.28,353.59,0,29.6,25,50.12,61.58,50.13q189.26.07,378.5,0c1.33,0,2.8.29,4.21.29a2.43,2.43,0,0,0,1.93-3.86c-3.75-5.18-7.59-10.2-10.76-15.48-14.43-24-13.13-23.91,8-45.28.64-.64,5.18-6.59,5.18-6.59-2,.52-2,1.55-11.44,2.1-106.64-.05-370.9.62-398.89-.31-5.24-.18-7-3.51-7.55-5.47C59.71,401.9,64.52,401.55,67.12,401.55Z"/><path class="cls-3" d="M443.66,446.51c7.4,10.86,7.4,10.86-7.6,10.86q-172,0-344.06,0c-6.76,0-13.54,0-20.08-1.46-19.26-4.3-30.05,1.46-29.83-21.46.15-15.69,18.61-19.43,38.38-20.38,4.09-.19,8.21-.16,12.31-.16H434.2c14.6,0,14.6,0,7.87,10.46C439.27,427,440,443.42,443.66,446.51Z"/></g></svg>