<svg xmlns="http://www.w3.org/2000/svg" viewBox="0 0 500 500"><defs><style>.cls-1{fill:#1a6faf;}.cls-2{fill:#78b8ea;}</style></defs><g id="BD"><path class="cls-1" d="M300.73,19.6c33,3,67.29,6.08,98,19C416.94,46.29,432.1,49.07,444.66,65a50.86,50.86,0,0,1,10.47,34.89c-.32,3.37.23,13.58.23,17,0,96-.3,192,.25,288,.13,21.57-9.13,36.91-25.26,49.29-21,16.14-45.39,25-70.76,31.3-39.44,9.81-79.53,12.69-120.06,10.63-28.55-1.45-56.7-5.35-84.2-13.28-21.65-6.25-42.4-14.53-60.49-28.36C84,446.13,75.16,436.3,71.06,422.88A43.35,43.35,0,0,1,69.47,410q0-147.72.12-295.45c0-7.52-1-25.81,1.42-33.33,4.27-13.37,13-19.4,23.82-27.64,19.92-15.15,41-18.86,64.84-25.27,22.78-6.12,48-7.39,71.43-9.25C232.5,18.89,296.68,19.23,300.73,19.6Z"/><path class="cls-2" d="M262.23,125.63c-39-.12-77.36-2.85-114.48-11.2-17.64-4-34.44-9.05-48.55-17.39-4.69-2.78-8.74-5.92-11.44-9.7-5.65-7.91-2.37-14.88,5.57-21.22,8.55-6.82,19.67-11.36,31.48-15.2,24.58-8,50.83-12.14,77.72-14.74a638.48,638.48,0,0,1,97.4-1.7c34.57,2,68.43,6.23,100,16.41,11.69,3.77,22.54,8.33,31.23,14.93,11.53,8.75,11.5,18.89-.22,27.62-11.4,8.48-26,13.69-41.53,17.9-31.16,8.46-63.89,12.11-97.28,13.64Q277.2,125.67,262.23,125.63Z"/><path class="cls-2" d="M440.19,291.71c-.71,16.47,1,32-.95,47.46-.83,6.74-4.46,12.23-8.94,17.08-12.59,13.62-28.72,21.65-45.69,28.13-24.39,9.32-49.74,14.39-75.67,17.1-19.68,2.06-39.4,3.25-59.15,2.47-39-1.54-77.42-6.4-113.92-21.29-15.08-6.16-29.33-13.72-40.73-25.73-6.93-7.3-10.59-15.86-10.42-26.11.21-12.71,0-25.43,0-38.94,5.36,4.18,9.89,8.13,14.82,11.51,22.59,15.48,48.08,23.8,74.5,29.69,22.64,5,45.58,7.54,68.76,8.62,45.57,2.13,90.36-2.11,134-15.6,21.82-6.75,42.56-16,59.68-31.75C437.34,293.62,438.3,293.07,440.19,291.71Z"/><path class="cls-2" d="M439.93,100.43c0,15.62.54,44.75-.18,59.32-.53,10.7-7.28,13.83-15.11,20.55-14.18,12.17-30.9,19.68-48.41,25.57-22.33,7.52-45.3,11.92-68.74,14.24-16.89,1.66-33.81,2.86-50.76,2.45-37.58-.91-74.73-4.93-110.49-17.49-16.53-5.8-32.36-13-45.8-24.57-9.85-8.45-16.3-18.53-15.76-32.28.44-10.89.07-31.49.12-42.39,0-1.49-.47-3.07.81-5,4.59,4,14.78,30.39,142.41,39.18a430.66,430.66,0,0,0,62.93.52C407,138.69,438.38,101.64,439.93,100.43Z"/><path class="cls-2" d="M440,368.44c0,15.39.31,29.58-.1,43.74-.31,10.62-6.26,18.77-13.87,25.54-19.9,17.68-44.27,26.14-69.43,32.63-20.94,5.4-42.29,8.28-63.9,9.75a465.64,465.64,0,0,1-51.35.55c-36-1.53-71.41-7.1-105.15-20.58C122.29,454.5,109,447.54,98,437.13,89.76,429.32,84.34,420,84.69,408c.37-12.76.08-25.54.08-38.83,3.16,1.47,4.91,4.09,7.22,5.94,14.53,11.64,31,19.51,48.44,25.67,25.64,9.06,52.12,13.9,79.12,16.68a427.43,427.43,0,0,0,66.24,1.43c42.79-2.25,84.64-9.31,123.52-28.72A119.46,119.46,0,0,0,440,368.44Z"/><path class="cls-2" d="M84.77,185.25c25.37,23.3,55.65,33.7,87.25,41.14,36.28,8.55,73.18,10.8,110.26,9.2,41.2-1.78,81.58-8.3,119.64-25.27,13.71-6.11,26.44-13.87,37.24-24.47,1.55,1,.86,31.37.86,32.46q.09,18.47,0,36.92c0,9-3.34,16.6-9.33,23.22-14.06,15.53-32.44,23.91-51.58,30.73-21.58,7.7-44,11.95-66.71,14.74a427.35,427.35,0,0,1-69.87,2.42c-37.12-1.55-73.61-7.12-108.19-21.51-14.84-6.18-28.93-13.78-40-26-6.21-6.9-9.65-14.74-9.64-24.05C84.78,241.56,84.77,199.34,84.77,185.25Z"/></g></svg>