<svg xmlns="http://www.w3.org/2000/svg" viewBox="0 0 500 500"><defs><style>.cls-1{fill:#1a6faf;}.cls-2{fill:#78b8ea;}</style></defs><g id="BD"><path class="cls-1" d="M300.57,19.6c33,3,67.3,6.08,98,19,18.21,7.68,33.37,10.46,45.94,26.35A50.86,50.86,0,0,1,455,99.85c-.31,3.37.23,13.58.23,17,0,96-.3,192,.26,288,.12,21.57-9.13,36.91-25.26,49.29-21,16.14-45.4,25-70.77,31.3C320,495.21,279.9,498.09,239.37,496c-28.55-1.45-56.7-5.35-84.2-13.28-21.65-6.25-42.4-14.53-60.49-28.36C83.87,446.13,75,436.3,70.9,422.88A43.67,43.67,0,0,1,69.32,410q0-147.72.12-295.45c0-7.52-1-25.81,1.42-33.33,4.26-13.37,13-19.4,23.81-27.64,19.92-15.15,41-18.86,64.84-25.27,22.78-6.12,48-7.39,71.43-9.25C232.35,18.89,296.53,19.23,300.57,19.6Z"/><path class="cls-2" d="M262.08,125.63c-39-.12-77.37-2.85-114.49-11.2-17.63-4-34.43-9.05-48.54-17.39-4.7-2.78-8.75-5.92-11.45-9.7C82,79.43,85.23,72.46,93.18,66.12c8.55-6.82,19.66-11.36,31.48-15.2,24.57-8,50.82-12.14,77.72-14.74a638.44,638.44,0,0,1,97.4-1.7c34.56,2,68.42,6.23,100,16.41,11.69,3.77,22.54,8.33,31.23,14.93,11.53,8.75,11.5,18.89-.22,27.62-11.39,8.48-26,13.69-41.53,17.9C358.08,119.8,325.35,123.45,292,125Q277,125.67,262.08,125.63Z"/><path class="cls-2" d="M440,291.71c-.7,16.47,1,32-.94,47.46-.84,6.74-4.46,12.23-8.95,17.08-12.59,13.62-28.72,21.65-45.69,28.13-24.38,9.32-49.74,14.39-75.66,17.1-19.69,2.06-39.4,3.25-59.16,2.47-39-1.54-77.41-6.4-113.92-21.29-15.08-6.16-29.32-13.72-40.72-25.73-6.94-7.3-10.6-15.86-10.43-26.11.22-12.71.06-25.43.06-38.94,5.35,4.18,9.89,8.13,14.81,11.51,22.59,15.48,48.08,23.8,74.5,29.69,22.64,5,45.59,7.54,68.77,8.62,45.56,2.13,90.36-2.11,134-15.6,21.81-6.75,42.56-16,59.68-31.75C437.18,293.62,438.14,293.07,440,291.71Z"/><path class="cls-2" d="M439.77,100.43c0,15.62.54,44.75-.18,59.32-.53,10.7-7.27,13.83-15.11,20.55-14.17,12.17-30.9,19.68-48.41,25.57-22.32,7.52-45.3,11.92-68.74,14.24-16.89,1.66-33.81,2.86-50.76,2.45-37.57-.91-74.73-4.93-110.48-17.49-16.54-5.8-32.36-13-45.81-24.57C90.43,172.05,84,162,84.53,148.22c.43-10.89.06-31.49.11-42.39,0-1.49-.47-3.07.81-5,4.59,4,14.79,30.39,142.41,39.18a430.66,430.66,0,0,0,62.93.52C406.85,138.69,438.22,101.64,439.77,100.43Z"/><path class="cls-2" d="M439.88,368.44c0,15.39.31,29.58-.1,43.74-.31,10.62-6.27,18.77-13.88,25.54-19.89,17.68-44.27,26.14-69.42,32.63-21,5.4-42.3,8.28-63.91,9.75a465.61,465.61,0,0,1-51.35.55c-36-1.53-71.41-7.1-105.14-20.58-14-5.57-27.22-12.53-38.22-22.94C89.61,429.32,84.18,420,84.53,408c.37-12.76.09-25.54.09-38.83,3.15,1.47,4.9,4.09,7.22,5.94,14.52,11.64,31,19.51,48.43,25.67,25.64,9.06,52.13,13.9,79.13,16.68a427.3,427.3,0,0,0,66.23,1.43c42.79-2.25,84.64-9.31,123.52-28.72A119.51,119.51,0,0,0,439.88,368.44Z"/><path class="cls-2" d="M84.62,185.25c25.36,23.3,55.65,33.7,87.25,41.14,36.27,8.55,73.18,10.8,110.25,9.2,41.2-1.78,81.59-8.3,119.64-25.27,13.72-6.11,26.44-13.87,37.24-24.47,1.56,1,.86,31.37.87,32.46q.09,18.47,0,36.92c0,9-3.34,16.6-9.33,23.22C416.5,294,398.12,302.36,379,309.18c-21.58,7.7-44,11.95-66.71,14.74a427.28,427.28,0,0,1-69.87,2.42c-37.11-1.55-73.61-7.12-108.19-21.51-14.84-6.18-28.93-13.78-40-26-6.21-6.9-9.65-14.74-9.64-24.05C84.63,241.56,84.62,199.34,84.62,185.25Z"/></g></svg>