<svg xmlns="http://www.w3.org/2000/svg" viewBox="0 0 500 500"><defs><style>.cls-1{fill:#686868;}.cls-2{fill:#424242;}.cls-3{fill:#edeeed;}</style></defs><g id="Bibliotecas"><path class="cls-1" d="M60.05,29.17c3.05-.07,271.88-.16,403.25-.38,9.42,0,11.8,1.81,11.78,8.23q-.39,178-.22,356.05c0,2.33.69,4.74-1.15,6.93-4.56,1.9-9.59,2.09-14.75,2.09q-193.95,0-387.92,0c-4,0-8.2.38-11.89-1.27-4.15-2.5-3.56-6-3.68-9.21-.38-9.66-.16-19.32-.16-29,0-106-.47-212.76-.29-318.81C55.58,35.36,53,33.44,60.05,29.17Z"/><path class="cls-2" d="M67.29,396.34c114.8.08,292.85.11,407.65.15a1.32,1.32,0,0,0,0-1.56c-117.46,0-300,0-419.38,0h0c-.34-118.77-.85-240.37-.54-359.09v-.12c0-5.19,6.12-6.33,5-6.55-.54-.1-8.13,4.09-8.67,4.4-10.45,6-26.64,17.86-26.57,33.67.49,125.53.29,228.05.28,353.58,0,29.6,25,50.13,61.58,50.14q189.26.07,378.49,0c1.34,0,2.81.29,4.21.29a2.43,2.43,0,0,0,1.93-3.86c-3.74-5.19-7.58-10.2-10.75-15.48-14.44-24-13.13-23.91,8-45.28.63-.64,5.18-6.59,5.18-6.59-2,.52-2,1.54-11.44,2.1-106.64-.05-370.91.62-398.89-.32-5.25-.17-7-3.5-7.55-5.46C59.88,396.68,64.69,396.34,67.29,396.34Z"/><path class="cls-3" d="M443.82,441.3c7.4,10.85,7.4,10.86-7.59,10.86q-172,0-344.06,0c-6.76,0-13.54,0-20.09-1.46-19.26-4.29-30,1.46-29.83-21.46.15-15.68,18.62-19.42,38.39-20.37,4.09-.2,8.21-.17,12.31-.17H434.37c14.6,0,14.6,0,7.86,10.45C439.44,421.78,440.16,438.2,443.82,441.3Z"/></g></svg>