<svg xmlns="http://www.w3.org/2000/svg" xmlns:xlink="http://www.w3.org/1999/xlink" viewBox="0 0 500 500"><defs><style>.cls-1{fill:url(#Gradiente_sem_nome_2);}</style><linearGradient id="Gradiente_sem_nome_2" x1="12.59" y1="237.19" x2="480.98" y2="237.19" gradientUnits="userSpaceOnUse"><stop offset="0" stop-color="#ffda4b"/><stop offset="1" stop-color="#f9c600"/></linearGradient></defs><g id="Linguagens"><g id="JavaScript"><path class="cls-1" d="M84.77,396.54c0-15.41-.12-30.83.08-46.24.05-3.69-.54-5.11-4.78-5.52-33.75-3.3-58.62-25-65.83-56.93C5.26,248,34,207.16,74.7,202c10.07-1.27,10.07-1.27,10.07-11.33q0-42.59,0-85.18c0-18.47,11.56-30,30.11-30q45.6-.06,91.19.06c3.4,0,4.61-.58,4.85-4.38C213.2,34.76,242.4,5.55,278.11,3.62c37-2,68.81,22.9,75.65,59.28.12.64.19,1.29.27,1.93,1.28,10.65,1.28,10.65,11.8,10.65q42.42,0,84.85,0c18.53,0,30.16,11.6,30.18,30,0,30-.06,60,.09,90,0,4-.55,5.6-5.27,5.95a71.87,71.87,0,0,0-66.83,67.9c-2,35.93,23.42,67.82,59.43,74.55a26.08,26.08,0,0,0,6.77.74c5.46-.48,6,2.25,5.93,6.88-.22,29.69-.1,59.38-.12,89.07,0,18.43-11.7,30.15-30.09,30.17-30.4,0-60.79,0-91.19.07-3.25,0-149.32-.06-159.76-.06q-42.42,0-84.85,0c-18.53,0-30.17-11.58-30.2-30Q84.74,418.69,84.77,396.54Z"/><path d="M228.69,273.7c0,39.45,2.82,72.6-16.65,92.21-10.94,11-28.22,17.54-49.47,17.54-34.86,0-54.22-17-66.57-40.48q17.84-11.4,36.43-22c5.06,14.13,22.12,30,41.38,20.24,12.21-6.2,10.8-25,10.8-45.43V166.2c0-.64-.08-1.27.45-1.35h43.63Zm110.65-25.63c-11.13-4.77-24.95-10.4-28.34-20.7-3.8-11.54,2.68-21.05,9.89-24.28,15.86-7.13,34.77,4.6,38.69,16.64,11.93-7.11,23.83-14.25,34.63-22.49-12.69-21.08-31.3-36.17-65.22-35.08-18.67.59-32.7,6.49-43.18,15.29a52.48,52.48,0,0,0-19.34,37.78c-3.67,51.33,34.73,64.43,67.47,78.71,10.32,4.5,21.79,9.05,26.54,18,9.79,18.46-7.55,30.64-22.49,31.94-24,2.09-40.14-11.94-49.48-26.54-11.66,7.23-24.34,13.44-35.53,21.14,15.56,27.37,41.08,45.09,81,45,40.68-.12,70.84-19.73,73.31-56.67C410.62,276.56,373,262.48,339.34,248.07Z"/></g></g></svg>