<svg xmlns="http://www.w3.org/2000/svg" viewBox="0 0 500 500"><defs><style>.cls-1{fill:#686868;}.cls-2{fill:#424242;}.cls-3{fill:#edeeed;}</style></defs><g id="Bibliotecas"><path class="cls-1" d="M64,37c3-.08,271.88-.16,403.25-.39,9.42,0,11.8,1.81,11.78,8.23q-.39,178-.22,356.06c0,2.32.69,4.73-1.15,6.92-4.56,1.9-9.59,2.1-14.75,2.09q-194,0-387.92,0c-4,0-8.2.38-11.89-1.27-4.15-2.5-3.56-6-3.68-9.21-.38-9.66-.16-19.32-.16-29,0-106-.47-212.75-.29-318.81C59.54,43.18,56.93,41.26,64,37Z"/><path class="cls-2" d="M71.25,404.16c114.8.08,292.85.11,407.65.15a1.3,1.3,0,0,0,0-1.55c-117.46,0-300,0-419.38,0h0C59.18,284,58.67,162.38,59,43.66v-.12c0-5.18,6.12-6.33,5-6.54-.54-.11-8.13,4.08-8.67,4.39-10.45,6-26.64,17.86-26.58,33.67.5,125.53.3,228.06.29,353.58,0,29.6,25,50.13,61.58,50.14q189.24.08,378.49,0c1.34,0,2.81.29,4.21.29a2.43,2.43,0,0,0,1.93-3.86c-3.74-5.19-7.58-10.2-10.76-15.48-14.43-24-13.12-23.91,8-45.28.63-.64,5.18-6.59,5.18-6.59-2,.52-2,1.54-11.44,2.1-106.64-.05-370.91.62-398.89-.31-5.25-.18-7-3.51-7.55-5.47C63.84,404.5,68.65,404.16,71.25,404.16Z"/><path class="cls-3" d="M447.78,449.12c7.4,10.86,7.4,10.86-7.59,10.86q-172,0-344.06,0c-6.76,0-13.54,0-20.09-1.46-19.26-4.29-30,1.46-29.83-21.46.15-15.68,18.62-19.42,38.39-20.37,4.09-.19,8.21-.17,12.31-.17H438.33c14.6,0,14.6,0,7.86,10.46C443.4,429.6,444.11,446,447.78,449.12Z"/></g></svg>