<svg xmlns="http://www.w3.org/2000/svg" viewBox="0 0 500 500"><defs><style>.cls-1{fill:#686868;}.cls-2{fill:#424242;}.cls-3{fill:#edeeed;}.cls-4{fill:#130754;}.cls-5{fill:#ffca00;}.cls-6{fill:#e70488;}</style></defs><g id="Bibliotecas"><path class="cls-1" d="M64.75,37c3-.08,271.88-.16,403.25-.39,9.43,0,11.8,1.81,11.78,8.23q-.39,178-.22,356.06c0,2.32.69,4.73-1.15,6.92-4.56,1.9-9.59,2.1-14.74,2.09q-194,0-387.93,0c-4,0-8.2.38-11.89-1.27-4.15-2.5-3.56-6-3.68-9.21-.37-9.66-.16-19.32-.16-29,0-106-.47-212.75-.29-318.81C60.28,43.18,57.67,41.26,64.75,37Z"/><path class="cls-2" d="M72,404.16c114.8.08,292.85.11,407.65.15a1.29,1.29,0,0,0,0-1.55c-117.46,0-300,0-419.37,0h0c-.34-118.77-.85-240.37-.54-359.09v-.12c0-5.18,6.12-6.33,5-6.54-.54-.11-8.13,4.08-8.67,4.39-10.45,6-26.63,17.86-26.57,33.67.49,125.53.29,228.06.28,353.58,0,29.6,25,50.13,61.58,50.14q189.26.08,378.5,0c1.33,0,2.8.29,4.21.29a2.43,2.43,0,0,0,1.92-3.86c-3.74-5.19-7.58-10.2-10.75-15.48-14.44-24-13.13-23.91,8-45.28.64-.64,5.18-6.59,5.18-6.59-2,.52-2,1.54-11.44,2.1-106.64-.05-370.91.62-398.89-.31-5.24-.18-7-3.51-7.55-5.47C64.58,404.5,69.39,404.16,72,404.16Z"/><path class="cls-3" d="M448.53,449.12c7.4,10.86,7.4,10.86-7.6,10.86q-172,0-344.06,0c-6.76,0-13.54,0-20.08-1.46C57.53,454.24,46.74,460,47,437.07c.14-15.68,18.61-19.42,38.38-20.37,4.09-.19,8.21-.17,12.31-.17H439.07c14.6,0,14.6,0,7.86,10.46C444.14,429.6,444.86,446,448.53,449.12Z"/><path class="cls-4" d="M221.59,75h37.16v77.16H221.59Zm0,158.51h37.16v77.16H221.59Z"/><path class="cls-5" d="M221.59,174.64h37.16v36.41H221.59Z"/><path class="cls-4" d="M161.88,138.39h37.17v256.5H161.88ZM280.05,297.13h37.16V374.3H280.05Zm0-158.65h37.16v77.17H280.05Z"/><path class="cls-6" d="M280.05,238.19h37.16v36.4H280.05Z"/><path class="cls-4" d="M338.5,54.86h37.16V311.35H338.5Z"/></g></svg>