<svg xmlns="http://www.w3.org/2000/svg" viewBox="0 0 500 500"><defs><style>.cls-1{fill:#686868;}.cls-2{fill:#424242;}.cls-3{fill:#edeeed;}</style></defs><g id="Bibliotecas"><path class="cls-1" d="M68.64,37c3-.08,271.89-.16,403.25-.39,9.43,0,11.8,1.81,11.79,8.23q-.4,178-.23,356.06c0,2.32.69,4.73-1.14,6.92-4.57,1.9-9.59,2.1-14.75,2.09q-194,0-387.93,0c-4,0-8.19.38-11.89-1.27-4.14-2.5-3.55-6-3.68-9.21-.37-9.66-.16-19.32-.16-29,0-106-.46-212.75-.29-318.81C64.18,43.18,61.56,41.26,68.64,37Z"/><path class="cls-2" d="M75.88,404.16c114.8.08,292.86.11,407.66.15a1.32,1.32,0,0,0,0-1.55c-117.46,0-300,0-419.38,0h0C63.82,284,63.3,162.38,63.61,43.66v-.12c0-5.18,6.12-6.33,5-6.54-.53-.11-8.12,4.08-8.66,4.39-10.46,6-26.64,17.86-26.58,33.67.5,125.53.3,228.06.29,353.58,0,29.6,25,50.13,61.58,50.14q189.24.08,378.49,0c1.34,0,2.8.29,4.21.29a2.43,2.43,0,0,0,1.93-3.86c-3.74-5.19-7.58-10.2-10.76-15.48-14.43-24-13.13-23.91,8-45.28.63-.64,5.18-6.59,5.18-6.59-2,.52-2,1.54-11.45,2.1-106.64-.05-370.9.62-398.89-.31-5.24-.18-7-3.51-7.55-5.47C68.48,404.5,73.28,404.16,75.88,404.16Z"/><path class="cls-3" d="M452.42,449.12c7.4,10.86,7.4,10.86-7.6,10.86q-172,0-344,0c-6.76,0-13.54,0-20.09-1.46-19.26-4.29-30.05,1.46-29.83-21.46.15-15.68,18.62-19.42,38.38-20.37,4.1-.19,8.21-.17,12.32-.17H443c14.6,0,14.6,0,7.87,10.46C448,429.6,448.75,446,452.42,449.12Z"/></g></svg>