<svg xmlns="http://www.w3.org/2000/svg" viewBox="0 0 500 500"><defs><style>.cls-1{fill:#8892bf;}.cls-2{fill:#fcfcfc;}</style></defs><g id="Linguagens"><g id="php"><path class="cls-1" d="M72.18,402c0-15.41-.12-30.83.08-46.24,0-3.7-.54-5.11-4.78-5.53-33.75-3.29-58.63-25-65.83-56.92-9-39.82,19.8-80.69,60.45-85.84,10.08-1.27,10.08-1.27,10.08-11.33q0-42.6,0-85.18c0-18.48,11.55-30,30.11-30,30.4,0,60.79-.06,91.19.07,3.4,0,4.61-.58,4.85-4.38C200.61,40.24,229.81,11,265.52,9.1c37-2,68.81,22.9,75.65,59.28.12.64.19,1.29.27,1.93C342.72,81,342.72,81,353.24,81q42.42,0,84.85,0c18.53,0,30.16,11.61,30.18,30,0,30-.06,60,.08,90.05,0,4-.54,5.6-5.27,5.95a71.86,71.86,0,0,0-66.82,67.9c-2,35.93,23.42,67.82,59.43,74.54a25.64,25.64,0,0,0,6.76.75c5.47-.48,6,2.25,5.94,6.88-.22,29.69-.1,59.38-.12,89.07,0,18.43-11.7,30.15-30.09,30.17-30.4,0-60.8,0-91.19.07-3.25,0-149.33-.06-159.76-.06q-42.42,0-84.85,0c-18.54,0-30.17-11.58-30.2-30Q72.15,424.17,72.18,402Z"/><path class="cls-2" d="M136.55,208.45q21.47.18,31.12,12.38t6.37,33.3a64,64,0,0,1-5.64,18.93,56.58,56.58,0,0,1-11.65,16.75q-9.1,9.46-19.48,12a89.57,89.57,0,0,1-21.47,2.55H94L87,339H61.74l26-130.5Zm215.77,0q21.48.18,31.13,12.38t6.37,33.3a64,64,0,0,1-5.64,18.93,56.58,56.58,0,0,1-11.65,16.75q-9.11,9.46-19.48,12a89.59,89.59,0,0,1-21.48,2.55H309.73L302.82,339h-25.3l26-130.5ZM228,173.68l-7.1,34.77h22.57q18.56.36,27.66,7.64,9.28,7.29,5.46,27.67l-12.19,60.61H238.9l11.65-57.88q1.81-9.11-1.1-12.92t-12.56-3.83l-20.2-.18-14.92,74.81H176.65l26.21-130.69ZM116.89,229.2c-1.46.12-2.85.18-4.19.18H109L98.14,283.8a13.45,13.45,0,0,0,2.18.18h2.55q17.47.18,29.12-3.46,11.65-3.81,15.66-26.57,3.27-19.11-6.55-22Q131.44,229,116.89,229.2Zm215.78,0c-1.46.12-2.85.18-4.19.18H324.8L313.92,283.8a13.45,13.45,0,0,0,2.18.18h2.55q17.48.18,29.12-3.46,11.66-3.81,15.66-26.57,3.27-19.11-6.56-22Q347.23,229,332.67,229.2Z"/></g></g></svg>