<svg xmlns="http://www.w3.org/2000/svg" viewBox="0 0 500 500">
  <path fill="#009fe3" d="M85 407v-46c0-4-1-5-5-6a71 71 0 0 1-5-142c10-2 10-2 10-12v-85c0-18 11-30 30-30h91c3 0 5 0 5-4a72 72 0 0 1 143-8v1c1 11 1 11 12 11h85c18 0 30 12 30 30v90c0 4-1 6-5 6a72 72 0 0 0-67 68c-2 36 23 68 59 75a25 25 0 0 0 7 0c6 0 6 3 6 7v89c0 19-12 30-30 30H115c-19 0-30-11-30-30v-44Z"/>
  <path fill="#fff" d="M356 178a56 56 0 0 1 28 16 74 74 0 0 1 10 15l-31 21-4-5a25 25 0 0 0-21-12c-13-1-22 6-22 18a16 16 0 0 0 2 8c3 6 8 10 26 17 32 14 46 23 54 36a65 65 0 0 1 5 55 60 60 0 0 1-49 35 137 137 0 0 1-34 0 82 82 0 0 1-46-24 79 79 0 0 1-11-17 32 32 0 0 1 4-3l16-9 13-8 3 4a60 60 0 0 0 17 16 42 42 0 0 0 43-2 19 19 0 0 0 3-25c-4-5-11-9-31-18a111 111 0 0 1-42-26 59 59 0 0 1-12-22 90 90 0 0 1-1-28 55 55 0 0 1 46-43 113 113 0 0 1 34 1Zm-105 19v18h-59v166h-41V215H93v-18a178 178 0 0 1 1-18l78-1 78 1Z"/>
</svg>
