<svg xmlns="http://www.w3.org/2000/svg" viewBox="0 0 500 500"><defs><style>.cls-1{fill:#878787;}.cls-2{fill:#bc34fd;}.cls-3{fill:#fed52e;}.cls-4{fill:#fed831;}.cls-5{fill:#5cadfe;}.cls-6{fill:#9c5dfd;}.cls-7{fill:#60a9fe;}.cls-8{fill:#9960fd;}.cls-9{fill:#768cfe;}.cls-10{fill:#fed42d;}.cls-11{fill:#a058fd;}.cls-12{fill:#9764fd;}.cls-13{fill:#fedb34;}.cls-14{fill:#9f59fd;}.cls-15{fill:#a354fd;}.cls-16{fill:#9368fd;}.cls-17{fill:#7391fe;}.cls-18{fill:#9d5cfd;}.cls-19{fill:#906cfd;}.cls-20{fill:#feda32;}.cls-21{fill:#6f96fe;}.cls-22{fill:#59b2fe;}.cls-23{fill:#689ffe;}.cls-24{fill:#63a4fe;}.cls-25{fill:#b33ffd;}.cls-26{fill:#a650fd;}.cls-27{fill:#b938fd;}.cls-28{fill:#fedc35;}.cls-29{fill:#9763fd;}.cls-30{fill:#8a74fd;}.cls-31{fill:#8f6dfd;}.cls-32{fill:#926afd;}.cls-33{fill:#8975fd;}.cls-34{fill:#a156fd;}.cls-35{fill:#9467fd;}.cls-36{fill:#62a6fe;}.cls-37{fill:#6c99fe;}.cls-38{fill:#6a9cfe;}.cls-39{fill:#fed932;}.cls-40{fill:#54b8fe;}.cls-41{fill:#a94cfd;}.cls-42{fill:#7193fe;}.cls-43{fill:#50bdfe;}.cls-44{fill:#7a88fe;}.cls-45{fill:#66a1fe;}.cls-46{fill:#8c71fd;}.cls-47{fill:#9a60fd;}.cls-48{fill:#8777fd;}.cls-49{fill:#857afd;}.cls-50{fill:#9b5efd;}.cls-51{fill:#b53dfd;}.cls-52{fill:#b83afd;}.cls-53{fill:#af45fd;}.cls-54{fill:#b142fd;}.cls-55{fill:#8e6ffd;}.cls-56{fill:#ac49fd;}.cls-57{fill:#847bfd;}.cls-58{fill:#ac48fd;}.cls-59{fill:#8b72fd;}.cls-60{fill:#8877fd;}.cls-61{fill:#ad47fd;}.cls-62{fill:#b63cfd;}.cls-63{fill:#6b9afe;}.cls-64{fill:#827dfd;}.cls-65{fill:#a74efd;}.cls-66{fill:#8679fd;}.cls-67{fill:#8778fd;}.cls-68{fill:#7f82fd;}.cls-69{fill:#4dc0fe;}.cls-70{fill:#a452fd;}.cls-71{fill:#b241fd;}.cls-72{fill:#817ffd;}.cls-73{fill:#8d6ffd;}.cls-74{fill:#7b87fe;}.cls-75{fill:#fedd3c;}.cls-76{fill:#b143fd;}.cls-77{fill:#817efd;}.cls-78{fill:#ae46fd;}.cls-79{fill:#837cfd;}.cls-80{fill:#4ac4fe;}.cls-81{fill:#56b5fe;}.cls-82{fill:#57b4fe;}.cls-83{fill:#7d84fd;}.cls-84{fill:#fede42;}.cls-85{fill:#7c85fe;}.cls-86{fill:#fee35d;}.cls-87{fill:#fee04b;}.cls-88{fill:#fee150;}.cls-89{fill:#47c9fe;}.cls-90{fill:#fee257;}.cls-91{fill:#fedf44;}.cls-92{fill:#fee464;}.cls-93{fill:#febe16;}.cls-94{fill:#febb13;}.cls-95{fill:#feba13;}.cls-96{fill:#fec11a;}.cls-97{fill:#febf18;}.cls-98{fill:#fec821;}.cls-99{fill:#fec922;}.cls-100{fill:#feca22;}.cls-101{fill:#fed32c;}.cls-102{fill:#feb109;}.cls-103{fill:#feaf07;}.cls-104{fill:#fec31c;}.cls-105{fill:#feb710;}.cls-106{fill:#feb912;}.cls-107{fill:#feb50e;}.cls-108{fill:#fecb24;}.cls-109{fill:#fecd25;}.cls-110{fill:#fecb23;}.cls-111{fill:#fed129;}.cls-112{fill:#fece26;}.cls-113{fill:#fea700;}.cls-114{fill:#fec51d;}.cls-115{fill:#fec61f;}.cls-116{fill:#fed32b;}.cls-117{fill:#feab04;}.cls-118{fill:#fedf49;}</style></defs><g id="Frameworks"><g id="vite"><path class="cls-1" d="M283.88,18.72a7.78,7.78,0,0,0-2.07,1.55c-.52.59-5.67,9.88-11.44,20.68s-11,20.46-11.69,21.54c-2,3.1-1.81,3.07-12.13,3.47l-9.14.41-2-1c-2-1-2.19-1.26-15.39-20.31-7.4-10.62-13.81-19.83-14.29-20.46a6.17,6.17,0,0,0-4.88-2.37c-1.59,0-43.44,13.91-44.88,14.91-2.15,1.52-2.59,3.29-2.18,8.69.89,11,2.62,33,3,38.07l.45,5.67-1.07,2.1c-1,2-1.41,2.37-8.66,7.4a87.69,87.69,0,0,1-8.88,5.66c-3,.89-3.41.78-27.23-9.1C87,85.54,87.67,85.79,84.79,87.09c-1.41.67-28.9,34.85-29.45,36.63a4.62,4.62,0,0,0,0,2.85c.29.92,5.62,8.25,14.87,20.42,12.51,16.5,14.47,19.28,14.84,20.87.52,2.4.52,2.4-4.29,13.87-4.26,10.25-5.22,11.69-8.11,12.73-.85.3-12,2.44-24.82,4.74-24.42,4.36-24.53,4.4-26.16,6.62-1.92,2.59-6.7,46.91-5.14,47.84.22.15,10.84,4.07,23.56,8.73s23.68,8.8,24.31,9.17c2.44,1.41,3,3,5.22,15.28C70.77,293.1,71.69,299,71.69,300a7.45,7.45,0,0,1-.85,3.37c-.55,1.07-6.18,6.54-18.2,17.72-9.59,8.88-17.73,16.68-18.13,17.28a5.19,5.19,0,0,0-.67,3c0,1.71.93,3.59,9.44,20.13,5.21,10,9.91,18.72,10.47,19.31a6.22,6.22,0,0,0,2.51,1.45c1.45.4,3.22.07,24.68-4.78,24.2-5.47,25-5.58,27.75-4.32,1.44.7,18.65,18.46,19.68,20.31,1.41,2.59,1.33,3.33-2.44,18.05-8.69,33.93-8.51,33.19-8,34.78a7.43,7.43,0,0,0,1.26,2.41c.44.51,9,5.51,18.91,11.1C154.46,469,156.34,470,157.86,470a6.29,6.29,0,0,0,2.81-.67c.63-.4,8.51-8.21,17.58-17.42s17.05-17.06,17.83-17.43c2.7-1.44,3.44-1.37,17,1.67,7,1.55,13.14,3.07,13.62,3.4,2.55,1.67,2.7,2,10.58,25.68,7.44,22.31,7.66,22.9,9.06,24.16a6.9,6.9,0,0,0,2.85,1.55c3.37.63,24.35-.7,37.74-2.4,6.07-.78,7.36-1.41,8.4-4.18.33-.89,2.77-11.92,5.4-24.5,3.18-15,5.07-23.31,5.51-24.05,1.45-2.29,2.52-2.85,13.81-7.14,12.17-4.66,13.72-5,16.42-3.55.67.37,9.18,7.07,18.87,14.91s18.17,14.54,18.8,14.91a4.8,4.8,0,0,0,3.07.52c1.88-.11,2.29-.41,12.91-8.44,21.57-16.31,23.61-17.9,24.31-18.9a6.2,6.2,0,0,0,.89-2.78c.18-1.62-.56-3.77-8.4-24.34-4.74-12.43-8.7-23.16-8.77-23.87-.37-2.55.48-4.14,6.4-12.28,3.18-4.33,6.14-8.29,6.59-8.73a7.66,7.66,0,0,1,5.58-2.37c1,0,12.06,1.11,24.53,2.48l22.65,2.44,1.59-.7a9.16,9.16,0,0,0,2.22-1.44c.51-.6,13.46-35.3,15.61-41.85a5.75,5.75,0,0,0-1.59-6.36c-.74-.78-9.92-7.7-20.39-15.39-18.79-13.8-19-14-19.94-16l-.92-2,.44-7.95c.59-10.4.67-10.88,2-12.88,1.11-1.59,2-2.07,22.68-12.47,11.88-6,21.83-11.06,22.17-11.32a8.34,8.34,0,0,0,2-4.14c0-1.56-9.58-45-10.17-46.18a6.68,6.68,0,0,0-2-2c-1.56-1,0-.89-37.48-3.3-14.39-.92-14.65-1-16.84-3.07-1.59-1.51-8.25-14.06-8.5-16a7.34,7.34,0,0,1,.29-3.11c.3-.82,6-10.69,12.65-21.94,11.62-19.54,12.14-20.5,12.14-22.28a8.36,8.36,0,0,0-.52-2.73c-.48-.93-31.45-32.71-33.22-34.08a5.66,5.66,0,0,0-3-.85l-2.11-.15L380.22,81.87c-11.47,6.37-21.53,11.81-22.35,12.1-2.55.89-4.21.33-11.09-3.51S339.08,86,338,83.91c-1-1.85-.93-1.37-1.82-27.79-.74-21.83-.77-22.6-1.59-24.23-1.37-2.78,1.33-2-36.4-10.95-6.37-1.48-11.95-2.74-12.4-2.74A8.07,8.07,0,0,0,283.88,18.72Z"/><path class="cls-2" d="M285.78,375.68q-13.2,23.76-26.39,47.53c-1.84,3.32-4.38,5.27-8.35,5a7.14,7.14,0,0,1-6-3.53c-2.69-4.53-5.2-9.15-7.79-13.74,0-.94.9-1.19,1.45-1.6q14.63-10.84,29.32-21.63c3.55-2.63,7-5.35,10.63-7.91C280.91,378.2,282.89,376.14,285.78,375.68Z"/><path class="cls-3" d="M206.18,165l.31-.79c5.68-1.35,11.53-1.67,17.28-2.67,6.4-1.12,12.86-1.88,19.29-2.82,4.88-.72,9.75-1.5,14.63-2.2,5.17-.74,10.36-1.37,15.54-2.13s10.32-1.73,15.52-2.37c7.05-.86,14.05-2,21.08-3,2.21-.31,4.41-1.25,6.72-.59a45.12,45.12,0,0,1-2.18,7.65c-2,.16-4,.21-6,.5-7.54,1.13-15.06,2.37-22.59,3.5-10.35,1.55-20.71,3-31.06,4.56-5.92.87-11.8,2-17.74,2.6-3.23.32-6.34,1.09-9.53,1.47-3.64.44-7.27.95-10.9,1.42l-10.46,1.29-.1-1.79.17-.49c.74-1.2.24-2.5.32-3.76Z"/><path class="cls-4" d="M316.55,148.5c-2.31-.66-4.51.28-6.72.59-7,1-14,2.11-21.08,3-5.2.64-10.34,1.62-15.52,2.37s-10.37,1.39-15.54,2.13c-4.88.7-9.75,1.48-14.63,2.2-6.43.94-12.89,1.7-19.29,2.82-5.75,1-11.6,1.32-17.28,2.67,0-.91,0-1.83.08-2.74.74-1.18.23-2.48.33-3.72l0-1.24c5.33-.13,10.44-1.84,15.78-2.08,2.88-.13,5.72-1.38,8.6-1.45,5.36-.15,10.44-2,15.76-2.25,3.14-.15,6.19-1.17,9.3-1.39,5.32-.37,10.47-1.72,15.77-2.19,5.49-.49,11-1.46,16.39-2.45,4.71-.85,9.48-1.24,14.2-2,5.31-.82,10.6-2,16-2.07C317.77,143.24,317.68,146,316.55,148.5Z"/><path class="cls-5" d="M168.9,158.41a63.85,63.85,0,0,1,10.28,2c.68.2,1.33.06,2,.27,0,.81-.61,1.11-1.17,1.52-10.25,7.58-20.48,15.21-30.74,22.78q-11.68,8.63-23.46,17.12c-1.78,1.29-3.19,3.29-5.7,3.4q-2.2-3.85-4.43-7.7a2.3,2.3,0,0,0,1.63-.62c4.82-3.71,9.76-7.23,14.62-10.88,9.6-7.21,19.43-14.1,29.07-21.25C163.71,163,166.81,161.27,168.9,158.41Z"/><path class="cls-6" d="M381.18,204.88c-3.09,5.31-5.55,11-8.92,16.12-1-1.16-1.62,0-2.23.43-6,4.44-12.06,8.93-18.11,13.38-11.72,8.62-23.42,17.28-35.23,25.79-2.18,1.58-4.06,3.8-7,4.23a2.7,2.7,0,0,0,.06-.41,55.11,55.11,0,0,0,3.69-7.32l3.48-6.38c2.55-1.18,4.6-3.05,6.83-4.7,10.83-8,21.76-15.89,32.62-23.87,6.93-5.1,13.76-10.34,20.71-15.43C378.29,205.85,379.39,204.52,381.18,204.88Z"/><path class="cls-7" d="M120.07,205.45c2.51-.11,3.92-2.11,5.7-3.4q11.79-8.48,23.46-17.12c10.26-7.57,20.49-15.2,30.74-22.78.56-.41,1.17-.71,1.17-1.52a75.06,75.06,0,0,1,10,1.79,5.17,5.17,0,0,1-1.7,1.78q-3.92,2.84-7.81,5.71c-8.18,6.07-16.35,12.17-24.55,18.22-5.55,4.1-11.15,8.11-16.72,12.18s-10.88,8-16.32,12A54.43,54.43,0,0,1,120.07,205.45Z"/><path class="cls-8" d="M381.18,204.88c-1.79-.36-2.89,1-4.07,1.84-6.95,5.09-13.78,10.33-20.71,15.43-10.86,8-21.79,15.86-32.62,23.87-2.23,1.65-4.28,3.52-6.83,4.7.32-.86.65-1.71,1-2.56q2.08-4.12,4.18-8.25l2.11-4c1,.71,1.61.13,2.38-.44q13.41-10,26.87-20c7.65-5.64,15.35-11.22,23-16.84,3.69-2.69,7.34-5.44,11.07-8.08.4-.28,1.07-1.76,1.82-.19q-3.58,6.56-7.16,13.1C381.93,204,381.81,204.63,381.18,204.88Z"/><path class="cls-9" d="M152.92,263a50.83,50.83,0,0,1-3.92-6.88c.28-1.14,1.34-1.56,2.14-2.16,3.87-2.95,7.77-5.84,11.69-8.72q16.63-12.24,33.3-24.45c2.4-1.76,4.74-3.61,7.11-5.42l.06,2.74,0,.76a9.33,9.33,0,0,0-.33,3.75c-.29,1.5,0,3.07-.49,4.55-4.47,2.63-8.46,5.93-12.63,9-8.33,6.12-16.65,12.27-25,18.34C160.86,257.37,157.2,260.62,152.92,263Z"/><path class="cls-10" d="M206.05,171.49l10.46-1.29c3.63-.47,7.26-1,10.9-1.42,3.19-.38,6.3-1.15,9.53-1.47,5.94-.6,11.82-1.73,17.74-2.6,10.35-1.53,20.71-3,31.06-4.56,7.53-1.13,15.05-2.37,22.59-3.5,2-.29,4-.34,6-.5-.85,1.84-1,3.86-1.44,5.79l-.44.65c-.27-1.5-1.49-1.13-2.34-1-4.67.61-9.35,1.2-14,2-6.34,1.11-12.75,1.63-19.07,2.88-4.69.93-9.45,1.46-14.18,2.14-3.7.53-7.4,1-11.1,1.53-2.67.36-5.39.5-8,1.1-6.29,1.44-12.72,2-19.08,2.87s-12.67,2.17-19.07,2.8A24.06,24.06,0,0,1,206.05,171.49Z"/><path class="cls-11" d="M205.06,354.42a38.57,38.57,0,0,1-3.59-6.31,54.28,54.28,0,0,1,6.31-5L224.26,331c3.31-2.45,6.6-4.95,9.92-7.39q8.7-6.37,17.42-12.73c3-2.2,5.72-4.83,9.26-6.24l-1.8,9.95-.44.92a13.09,13.09,0,0,0-3.24,2c-3.06,2.28-6.1,4.58-9.19,6.83-5.26,3.83-10.6,7.57-15.83,11.45C222,342,213.66,348.43,205.06,354.42Z"/><path class="cls-12" d="M389.37,190.38c-.75-1.57-1.42-.09-1.82.19-3.73,2.64-7.38,5.39-11.07,8.08-7.67,5.62-15.37,11.2-23,16.84q-13.47,9.93-26.87,20c-.77.57-1.42,1.15-2.38.44l1.87-4a25.09,25.09,0,0,0,2.38-4.64l1.63-2.77c2.61-1,4.69-2.93,6.92-4.53,8.75-6.3,17.38-12.79,26.06-19.19,3.32-2.44,6.68-4.82,10-7.28,7.33-5.45,14.64-10.94,22-16.39a2.86,2.86,0,0,1,2.14-.57C394.55,181.11,392.34,186,389.37,190.38Z"/><path class="cls-13" d="M207.4,148.86c0-.92,0-1.83.08-2.74a2.39,2.39,0,0,1,2.43-2.09c3.68-.14,7.25-1.07,10.88-1.53,6.23-.79,12.44-1.7,18.65-2.61,2.88-.42,5.74-1,8.63-1.43,6-.85,12-1.36,18-2.51s11.82-2,17.68-2.65c5.47-.59,10.92-1.5,16.3-2.36,7-1.11,14.16-1.35,21-3.28a1.12,1.12,0,0,1,1.38.47L321,133c-.18-.13-.37-.39-.53-.37-3.62.49-7.27.88-10.85,1.56-3.39.64-6.8,1.06-10.2,1.53-5,.69-10.06,1.43-15.08,2.18-6.05.91-12.1,1.9-18.16,2.78-5.1.73-10.23,1.32-15.33,2.05-4.29.62-8.54,1.57-12.84,2-5.29.5-10.47,1.64-15.74,2.24C217.33,147.52,212.4,148.54,207.4,148.86Z"/><path class="cls-14" d="M309.72,264.83c2.91-.43,4.79-2.65,7-4.23,11.81-8.51,23.51-17.17,35.23-25.79C358,230.36,364,225.87,370,221.43c.61-.44,1.24-1.59,2.23-.43-2.35,4.37-4.54,8.83-7.25,13a3.84,3.84,0,0,0-2.29.88c-3.44,2.39-7,4.69-10.23,7.3-7.38,5.9-15.18,11.23-22.71,16.92-6.57,5-13.23,9.81-19.89,14.64-2.15,1.56-4.19,3.47-6.9,4.15l1.87-3.59,3.18-6.76Z"/><path class="cls-15" d="M359.2,244.42a152,152,0,0,1-7.89,13.88c-1.5-.48-2.33.78-3.26,1.46-6.89,5.05-13.68,10.24-20.55,15.31q-14.94,11-30,21.89c-1.84,1.32-3.31,3.38-5.86,3.55l1.38-2.69,5.31-10a2.72,2.72,0,0,0,2-.81c4-3,8-5.85,11.94-8.79,8.29-6.16,16.54-12.36,24.85-18.49,6.5-4.8,13.07-9.51,19.61-14.27A3.84,3.84,0,0,1,359.2,244.42Z"/><path class="cls-16" d="M189.57,327.29a54.65,54.65,0,0,1-3.91-6.86c3-3.55,7.11-5.73,10.75-8.48,11.31-8.54,22.77-16.88,34.21-25.27,1.37-1,2.62-2.31,4.48-2.44-.48,2.86-1,5.72-1.45,8.58a11.93,11.93,0,0,0-1,3.62c-1.12-.17-1.84.62-2.59,1.17-5.25,3.84-10.46,7.74-15.68,11.63-4.43,3.31-8.81,6.68-13.28,9.93C197.32,321.94,193.43,324.59,189.57,327.29Z"/><path class="cls-17" d="M203.24,215.38c-2.37,1.81-4.71,3.66-7.11,5.42Q179.5,233,162.83,245.25c-3.92,2.88-7.82,5.77-11.69,8.72-.8.6-1.86,1-2.14,2.16l-3.93-6.78a4.73,4.73,0,0,0,2-1q11.7-8.73,23.44-17.43,13.47-9.94,27-19.79c2-1.43,3.57-3.48,6.19-3.88l.12,1.35-.42,6.32v.5Z"/><path class="cls-18" d="M260.86,304.6c-3.54,1.41-6.25,4-9.26,6.24q-8.7,6.38-17.42,12.73c-3.32,2.44-6.61,4.94-9.92,7.39l-16.48,12.13a54.28,54.28,0,0,0-6.31,5,29,29,0,0,1-3.14-5.49,9.06,9.06,0,0,1,.94-.92q12.48-9.22,25-18.41c9.73-7.13,19.51-14.19,29.18-21.4,2.13-1.58,4.63-2.81,6.1-5.2a5.15,5.15,0,0,1,2.22,5.18Z"/><path class="cls-19" d="M235.1,284.24c-1.86.13-3.11,1.44-4.48,2.44-11.44,8.39-22.9,16.73-34.21,25.27-3.64,2.75-7.74,4.93-10.75,8.48a44.19,44.19,0,0,1-3.61-6.35,70,70,0,0,1,6-4.66c8.81-6.37,17.55-12.85,26.28-19.32,3.92-2.91,7.64-6.09,11.69-8.78,3.74-2.49,6.91-5.82,11.17-7.52l.12.45a10.12,10.12,0,0,0-.56,3.17,22.06,22.06,0,0,0-1.27,5.89Z"/><path class="cls-20" d="M207.4,148.86c5-.32,9.93-1.34,14.89-1.89,5.27-.6,10.45-1.74,15.74-2.24,4.3-.41,8.55-1.36,12.84-2,5.1-.73,10.23-1.32,15.33-2.05,6.06-.88,12.11-1.87,18.16-2.78,5-.75,10.05-1.49,15.08-2.18,3.4-.47,6.81-.89,10.2-1.53,3.58-.68,7.23-1.07,10.85-1.56.16,0,.35.24.53.37a16.59,16.59,0,0,1-1.32,4.58,1.37,1.37,0,0,0-1.41-.49c-6,.38-11.82,1.79-17.77,2.43-6.38.69-12.67,2.22-19.06,2.91-9,1-17.88,2.76-26.87,3.79-5.86.68-11.67,1.75-17.51,2.62-4.51.67-9.09,1-13.53,2-5.35,1.14-10.87,1.08-16.16,2.54,0-1.1,0-2.19,0-3.29Z"/><path class="cls-21" d="M142.76,245.28l-2.86-5c2.75-2.2,5.73-4.11,8.55-6.22,6.68-5,13.46-9.81,20.11-14.83,6.82-5.16,13.79-10.11,20.69-15.17q7.68-5.64,15.34-11.33l.1,1.81-.05,1.23a9.4,9.4,0,0,0-.33,3.73l-.17.47a102,102,0,0,1-8.51,6.57q-15,10.95-29.86,21.95c-4.52,3.32-8.93,6.8-13.52,10C149.07,240.77,146.2,243.42,142.76,245.28Z"/><path class="cls-22" d="M168.9,158.41c-2.09,2.86-5.19,4.54-7.94,6.59-9.64,7.15-19.47,14-29.07,21.25-4.86,3.65-9.8,7.17-14.62,10.88a2.3,2.3,0,0,1-1.63.62L111.78,191c1,.61,1.82.09,2.65-.52,13.57-10,27.18-20,40.7-30,1.41-1,3.48-1.61,3.82-3.8Z"/><path class="cls-23" d="M206.05,171.49a24.06,24.06,0,0,0-.39,5.42l-.17.47c-2.26,1.59-4.56,3.15-6.8,4.78q-14.08,10.26-28.13,20.54-13.41,9.86-26.72,19.82c-3.28,2.47-6.77,4.65-9.81,7.43a25.21,25.21,0,0,1-2.61-4.6c.83-.51,1.71-1,2.49-1.53,10.18-7.55,20.33-15.14,30.53-22.65,12.73-9.38,25.53-18.68,38.25-28.07,1.25-.92,3-1.47,3.26-3.4Z"/><path class="cls-24" d="M128.57,220.41,126,215.86a2.51,2.51,0,0,0,1.81-.73c2.74-2.09,5.51-4.14,8.29-6.18,7.44-5.45,14.89-10.87,22.32-16.33,11.23-8.25,22.48-16.48,33.64-24.84,1.73-1.3,4.15-1.94,4.93-4.37a33.4,33.4,0,0,1,6.34,1.25c0,.79-.55,1.12-1.12,1.54-5.84,4.31-11.64,8.69-17.48,13-8.14,6-16.32,12-24.47,17.93Z"/><path class="cls-25" d="M309.29,333.63q-2.24,3.83-4.48,7.66c-1.33,0-2.24.87-3.17,1.57-5.61,4.23-11.24,8.45-16.93,12.57q-15.37,11.13-30.61,22.47c-8.35,6.19-16.88,12.16-25,18.65a24,24,0,0,1-2.77-4.88,3.91,3.91,0,0,1,.68-.87c4.15-3.09,8.27-6.2,12.48-9.21,3-2.16,5.67-4.88,9.15-6.4,3.25,1.37,4.6,1,6.56-2,.66-1,1.26-2,1.89-3,3-.92,5.26-3.08,7.72-4.9q12.49-9.19,25-18.37c5.8-4.26,11.58-8.56,17.43-12.76C307.75,333.81,308.31,332.57,309.29,333.63Z"/><path class="cls-26" d="M291.67,300.51c2.55-.17,4-2.23,5.86-3.55q15.06-10.83,30-21.89c6.87-5.07,13.66-10.26,20.55-15.31.93-.68,1.76-1.94,3.26-1.46-2.19,4.11-4.11,8.38-6.79,12.23-1.28-.9-2,.39-2.69.9-6.08,4.36-12.1,8.82-18.12,13.25-10.07,7.41-20.08,14.9-30.23,22.2-2.21,1.59-4.12,3.75-6.91,4.48Z"/><path class="cls-27" d="M285.78,375.68c-2.89.46-4.87,2.52-7.1,4.11-3.59,2.56-7.08,5.28-10.63,7.91q-14.66,10.82-29.32,21.63c-.55.41-1.43.66-1.45,1.6a32.94,32.94,0,0,1-3.25-5.72,5.34,5.34,0,0,1,.64-.62c7.38-5.39,14.79-10.75,22.15-16.16,5.91-4.35,11.77-8.76,17.67-13.12,4.4-3.26,8.85-6.43,13.21-9.74,1.68-1.28,3.23-2.69,5.43-3C290.46,366.82,288.65,371.55,285.78,375.68Z"/><path class="cls-28" d="M322.43,128.13a1.12,1.12,0,0,0-1.38-.47c-6.87,1.93-14,2.17-21,3.28-5.38.86-10.83,1.77-16.3,2.36-5.86.64-11.82,1.52-17.68,2.65s-12,1.66-18,2.51c-2.89.41-5.75,1-8.63,1.43-6.21.91-12.42,1.82-18.65,2.61-3.63.46-7.2,1.39-10.88,1.53a2.39,2.39,0,0,0-2.43,2.09,18,18,0,0,1,.37-5c4.23-1.33,8.66-1.53,13-2.23,5.59-.9,11.22-1.57,16.83-2.37,6.13-.86,12.26-1.73,18.38-2.65,4.12-.62,8.29-1,12.37-1.76,5.14-.93,10.35-1.4,15.48-2.43,4.14-.83,8.36-1.22,12.55-1.83,7.9-1.15,15.79-2.35,23.7-3.43,1-.14,2.27-.51,3.19.51A7.32,7.32,0,0,1,322.43,128.13Z"/><path class="cls-29" d="M189.57,327.29c3.86-2.7,7.75-5.35,11.55-8.12,4.47-3.25,8.85-6.62,13.28-9.93,5.22-3.89,10.43-7.79,15.68-11.63.75-.55,1.47-1.34,2.59-1.17-.36,3.66.06,4.43,3.24,5.93-.79,1.7-2.34,2.67-3.79,3.62-5.57,3.65-10.79,7.8-16.16,11.72-6.94,5.06-13.83,10.21-20.8,15.24-.58.42-1.39.7-1.4,1.63A56,56,0,0,1,189.57,327.29Z"/><path class="cls-30" d="M375.34,150.7,389.81,148c-7.32,6-15.12,11.34-22.69,17-8.23,6.15-16.58,12.15-24.82,18.29-1.52,1.13-3.5,1.87-4.08,4-4.64,1.09-9.31,2-14,2.71a5.2,5.2,0,0,1,1.7-2c11-8.06,21.89-16.19,32.84-24.27,4.39-3.23,8.91-6.3,13.21-9.64C373.16,153.13,375,152.58,375.34,150.7Z"/><path class="cls-31" d="M405.15,148c1.46,1.4,3,2.71,3.17,4.95-1.56-.6-2.37.74-3.31,1.42-9.79,7.19-19.51,14.48-29.27,21.7-8.26,6.11-16.51,12.23-24.85,18.22-2.65,1.91-5,4.43-8.33,5.22l1.54-3.7a9.37,9.37,0,0,0,1.79-3.46c.5-.51.4-1.2.54-1.81a5,5,0,0,0,2.38-1.21c4.84-3.53,9.7-7,14.53-10.58Q384.27,163.36,405.15,148Z"/><path class="cls-32" d="M342.56,199.48c3.37-.79,5.68-3.31,8.33-5.22,8.34-6,16.59-12.11,24.85-18.22,9.76-7.22,19.48-14.51,29.27-21.7.94-.68,1.75-2,3.31-1.42a9.1,9.1,0,0,1-2.05,7.31,5.87,5.87,0,0,0-3.24,1.43q-6,4.38-11.94,8.79-12.64,9.36-25.3,18.72c-6.52,4.81-13,9.63-19.59,14.36-2.72,2-5.13,4.41-8.4,5.54.83-2,1.34-4.23,2.68-6a10.22,10.22,0,0,0,1.8-3.5A1.35,1.35,0,0,1,342.56,199.48Z"/><path class="cls-33" d="M175.63,302.81a12.46,12.46,0,0,1-2.31-4.05c3.05-1.64,5.59-4,8.4-6,8.26-5.83,16.22-12.1,24.39-18.06,5.57-4.06,11.12-8.14,16.7-12.18q7.09-5.13,14.1-10.41c1.14-.86,2.76-1.37,3.07-3.11,1.14.28,1.22,1.43,1.78,2.18a12.25,12.25,0,0,1-.84,4.52c-4.29,1.89-7.73,5.1-11.5,7.75-7.82,5.52-15.33,11.47-23,17.17q-8.57,6.36-17.26,12.53C184.62,296.36,180.49,300.09,175.63,302.81Z"/><path class="cls-34" d="M359.2,244.42a3.84,3.84,0,0,0-2.43,1.05c-6.54,4.76-13.11,9.47-19.61,14.27-8.31,6.13-16.56,12.33-24.85,18.49-4,2.94-8,5.83-11.94,8.79a2.72,2.72,0,0,1-2,.81q1-2.24,1.94-4.47c1.23-1.67,1.73-3.68,2.69-5.48,2.71-.68,4.75-2.59,6.9-4.15,6.66-4.83,13.32-9.69,19.89-14.64,7.53-5.69,15.33-11,22.71-16.92,3.27-2.61,6.79-4.91,10.23-7.3A3.84,3.84,0,0,1,365,234C362.85,237.34,361.51,241.15,359.2,244.42Z"/><path class="cls-35" d="M397.17,176.5a2.86,2.86,0,0,0-2.14.57c-7.33,5.45-14.64,10.94-22,16.39-3.31,2.46-6.67,4.84-10,7.28-8.68,6.4-17.31,12.89-26.06,19.19-2.23,1.6-4.31,3.49-6.92,4.53l.18-.85q1.5-3.18,3-6.34l1.57-2.39a2.4,2.4,0,0,0,1.9-.46q12.93-9.57,25.89-19.07l37.66-27.76c.66-.48,1.23-1,1.86,0C400.42,170.52,399.18,173.73,397.17,176.5Z"/><path class="cls-36" d="M197,163.41c-.78,2.43-3.2,3.07-4.93,4.37-11.16,8.36-22.41,16.59-33.64,24.84C151,198.08,143.53,203.5,136.09,209c-2.78,2-5.55,4.09-8.29,6.18a2.51,2.51,0,0,1-1.81.73,13.66,13.66,0,0,1-2-3.58q8.16-6,16.32-12c5.57-4.07,11.17-8.08,16.72-12.18,8.2-6,16.37-12.15,24.55-18.22q3.89-2.88,7.81-5.71a5.17,5.17,0,0,0,1.7-1.78A27.91,27.91,0,0,1,197,163.41Z"/><path class="cls-37" d="M204.59,192.77q-7.68,5.67-15.34,11.33c-6.9,5.06-13.87,10-20.69,15.17-6.65,5-13.43,9.86-20.11,14.83-2.82,2.11-5.8,4-8.55,6.22a19.11,19.11,0,0,1-2.24-4.09q12.84-9.47,25.68-18.94c6.63-4.88,13.28-9.73,19.91-14.62,6-4.4,11.85-8.9,17.86-13.23,1.67-1.21,3.75-1.88,3.93-4.37Z"/><path class="cls-38" d="M134,230c3-2.78,6.53-5,9.81-7.43q13.31-10,26.72-19.82,14-10.3,28.13-20.54c2.24-1.63,4.54-3.19,6.8-4.78,0,.9,0,1.81.07,2.71l0,.73-.44,2.44c-5.24,2.85-9.66,6.85-14.48,10.28-8.24,5.88-16.32,12-24.45,18-5.79,4.28-11.54,8.61-17.35,12.85-4.23,3.09-8.52,6.08-12.78,9.11A15.51,15.51,0,0,1,134,230Z"/><path class="cls-39" d="M207.39,153.39c5.29-1.46,10.81-1.4,16.16-2.54,4.44-.95,9-1.32,13.53-2,5.84-.87,11.65-1.94,17.51-2.62,9-1,17.87-2.82,26.87-3.79,6.39-.69,12.68-2.22,19.06-2.91,6-.64,11.79-2,17.77-2.43a1.37,1.37,0,0,1,1.41.49c-.32,1-.64,2.07-.95,3.11-5.41.09-10.7,1.25-16,2.07-4.72.72-9.49,1.11-14.2,2-5.44,1-10.9,2-16.39,2.45-5.3.47-10.45,1.82-15.77,2.19-3.11.22-6.16,1.24-9.3,1.39-5.32.27-10.4,2.1-15.76,2.25-2.88.07-5.72,1.32-8.6,1.45-5.34.24-10.45,1.95-15.78,2.08,0-.91.06-1.82.08-2.73Z"/><path class="cls-40" d="M140.4,153.37c3.55.16,6.93,1.27,10.4,1.84a2.55,2.55,0,0,1-1.37,2c-6,4.38-12,8.71-18,13.09-3.09,2.26-6.06,4.67-9.17,6.9-4.33,3.09-8.47,6.46-13,9.25a52.94,52.94,0,0,1-3.82-6.71,5.6,5.6,0,0,0,.59-.33c10.18-7.46,20.38-14.89,30.52-22.41C137.92,155.93,139.67,155.17,140.4,153.37Z"/><path class="cls-15" d="M205.06,354.42c8.6-6,16.9-12.4,25.3-18.66,5.23-3.88,10.57-7.62,15.83-11.45,3.09-2.25,6.13-4.55,9.19-6.83a13.09,13.09,0,0,1,3.24-2c-.62,3-1.25,6-1.87,9a3,3,0,0,0-2.24.89c-3.64,2.64-7.31,5.24-10.9,7.95-8.86,6.69-17.84,13.23-26.78,19.8-2.94,2.16-6.26,3.89-8.61,6.81A26.37,26.37,0,0,1,205.06,354.42Z"/><path class="cls-41" d="M216.9,375.19a51.9,51.9,0,0,1-4.11-7.22q9-6.64,18.09-13.32c3.66-2.71,7.22-5.58,11-8.14,3.42-2.32,6.71-4.79,10-7.29.56-.42,1.49-1.22,1.78.37-.13.55-.25,1.11-.37,1.67a59.79,59.79,0,0,1-2,9.54c-.31-1.42-1.06-.38-1.47-.18-3.27,1.56-5.85,4.13-8.8,6.18-6.26,4.37-12.39,8.92-18.43,13.58C220.66,371.89,218.08,372.73,216.9,375.19Z"/><path class="cls-42" d="M142.76,245.28c3.44-1.86,6.31-4.51,9.49-6.74,4.59-3.21,9-6.69,13.52-10q14.91-11,29.86-21.95a102,102,0,0,0,8.51-6.57c0,.91.05,1.81.07,2.72l-.51,4.53c-2.62.4-4.22,2.45-6.19,3.88Q184,221,170.5,230.93q-11.76,8.67-23.44,17.43a4.73,4.73,0,0,1-2,1A22.7,22.7,0,0,1,142.76,245.28Z"/><path class="cls-43" d="M140.4,153.37c-.73,1.8-2.48,2.56-3.89,3.6-10.14,7.52-20.34,14.95-30.52,22.41a5.6,5.6,0,0,1-.59.33A62.43,62.43,0,0,1,101,172c5.92-4.33,11.85-8.64,17.75-13,3.37-2.49,7-4.59,9.86-7.76A115.3,115.3,0,0,1,140.4,153.37Z"/><path class="cls-44" d="M152.92,263c4.28-2.39,7.94-5.64,11.88-8.49,8.38-6.07,16.7-12.22,25-18.34,4.17-3.07,8.16-6.37,12.63-9l0,3.15,0,1.37c0,.86-.06,1.71-.1,2.56l-.36.61c-1.19-.18-2,.65-2.8,1.25-5.25,3.84-10.46,7.74-15.68,11.62-4.87,3.61-9.71,7.26-14.61,10.83-4.35,3.17-8.77,6.25-13.16,9.37A21.59,21.59,0,0,1,152.92,263Z"/><path class="cls-45" d="M128.57,220.41l31.68-23.28c8.15-6,16.33-11.93,24.47-17.93,5.84-4.31,11.64-8.69,17.48-13,.57-.42,1.13-.75,1.12-1.54a6.54,6.54,0,0,1,2.87.38l.25.41c-.15,1-.31,1.92-.46,2.87a9.45,9.45,0,0,0-1.83.82c-6.84,5-13.69,10-20.49,15-10.29,7.64-20.53,15.34-30.82,23-7.46,5.53-15,11-22.47,16.46Z"/><path class="cls-46" d="M338.22,187.3c.58-2.13,2.56-2.87,4.08-4,8.24-6.14,16.59-12.14,24.82-18.29,7.57-5.65,15.37-11,22.69-17l10-1.79c-3.84,4.4-9,7.22-13.54,10.68-12.06,9.13-24.37,17.92-36.51,26.92-1.64,1.22-3.67,2-4.71,4C342.87,186,340.5,187.21,338.22,187.3Z"/><path class="cls-47" d="M193.76,334.58c0-.93.82-1.21,1.4-1.63,7-5,13.86-10.18,20.8-15.24,5.37-3.92,10.59-8.07,16.16-11.72,1.45-.95,3-1.92,3.79-3.62,5-.93,9.6-2.9,14.49-4.05a10.34,10.34,0,0,1-2.63,2.43c-2.86,1.92-5.52,4.13-8.35,6.1-5.4,3.78-10.59,7.86-15.85,11.83-4.43,3.35-8.87,6.7-13.4,9.88-4.72,3.32-9,7.23-14.15,10A15.81,15.81,0,0,1,193.76,334.58Z"/><path class="cls-48" d="M240,249c-.31,1.74-1.93,2.25-3.07,3.11q-7,5.28-14.1,10.41c-5.58,4-11.13,8.12-16.7,12.18-8.17,6-16.13,12.23-24.39,18.06-2.81,2-5.35,4.36-8.4,6a9,9,0,0,1-1.76-3.11,5,5,0,0,1,.71-.86c9.15-6.8,18.46-13.39,27.55-20.29,9.57-7.24,19.42-14.11,29.07-21.25,1.71-1.26,3.84-2.16,4.76-4.32C235.77,248.12,237.89,247.53,240,249Z"/><path class="cls-49" d="M169.7,292.42a14.31,14.31,0,0,1-2.13-3.72c2.08-2.71,5.13-4.27,7.77-6.25,12.2-9.17,24.58-18.13,36.91-27.12a1.93,1.93,0,0,0,1-1.82c.63-.18,1.28-.16,1.94-.33,2.95-.76,5.94-1.36,8.92-2,.81,1.47-.71,1.86-1.34,2.34-4.2,3.24-8.52,6.34-12.81,9.48-5.86,4.3-11.73,8.58-17.58,12.9C184.88,281.45,177.42,287.12,169.7,292.42Z"/><path class="cls-50" d="M196,338.56c5.11-2.77,9.43-6.68,14.15-10,4.53-3.18,9-6.53,13.4-9.88,5.26-4,10.45-8.05,15.85-11.83,2.83-2,5.49-4.18,8.35-6.1a10.34,10.34,0,0,0,2.63-2.43c3-.74,5.76-2.82,9.11-1.63-1.47,2.39-4,3.62-6.1,5.2-9.67,7.21-19.45,14.27-29.18,21.4q-12.49,9.18-25,18.41a9.06,9.06,0,0,0-.94.92A12.4,12.4,0,0,1,196,338.56Z"/><path class="cls-26" d="M253.64,339.59c-.29-1.59-1.22-.79-1.78-.37-3.28,2.5-6.57,5-10,7.29-3.77,2.56-7.33,5.43-11,8.14q-9,6.69-18.09,13.32a26.39,26.39,0,0,1-2.83-4.92c3.39-2.45,6.8-4.87,10.17-7.35q8.33-6.12,16.6-12.29c5.41-4,10.8-8.05,16.25-12,.62-.45,1.36-1.78,2.44-.48A62.32,62.32,0,0,1,253.64,339.59Z"/><path class="cls-51" d="M229.09,396.55c8.13-6.49,16.66-12.46,25-18.65q15.25-11.31,30.61-22.47c5.69-4.12,11.32-8.34,16.93-12.57.93-.7,1.84-1.6,3.17-1.57a29.31,29.31,0,0,1-3.59,6.8c-1.38-.23-2.22.75-3.17,1.44-2.84,2.08-5.63,4.22-8.46,6.31l-24.28,17.81Q249.46,385.29,233.65,397c-1,.76-2.52,1.17-2.75,2.76A7.28,7.28,0,0,1,229.09,396.55Z"/><path class="cls-52" d="M293.13,362.58c-2.2.3-3.75,1.71-5.43,3-4.36,3.31-8.81,6.48-13.21,9.74-5.9,4.36-11.76,8.77-17.67,13.12-7.36,5.41-14.77,10.77-22.15,16.16a5.34,5.34,0,0,0-.64.62,6.9,6.9,0,0,1-1.8-3.17c1.71-2,4.07-3.28,6.14-4.85,8.47-6.45,17.16-12.63,25.77-18.89,4.55-3.32,9.13-6.59,13.66-9.92,5.86-4.31,11.68-8.68,17.55-13,.58-.44,1.16-1.3,2.11-.58A70.24,70.24,0,0,1,293.13,362.58Z"/><path class="cls-53" d="M322.91,309.26c-1.82,2.54-2.6,5.66-4.54,8.13-.68-1-1.17-.1-1.63.21-2.7,1.76-5.18,3.83-7.79,5.71-8.27,5.95-16.38,12.13-24.58,18.19-5.61,4.14-11.26,8.23-16.91,12.32-.89.64-1.68,1.55-2.95,1.47a84.1,84.1,0,0,1,4.37-8.63c1.12.25,1.87-.52,2.63-1.07,5.72-4.13,11.42-8.27,17.09-12.47,10.67-7.89,21.31-15.83,32-23.72C321.24,308.93,322.07,308.09,322.91,309.26Z"/><path class="cls-54" d="M264.51,355.29c1.27.08,2.06-.83,2.95-1.47,5.65-4.09,11.3-8.18,16.91-12.32,8.2-6.06,16.31-12.24,24.58-18.19,2.61-1.88,5.09-3.95,7.79-5.71.46-.31.95-1.24,1.63-.21l-4.95,8.51a2.8,2.8,0,0,0-1.87.68c-3.68,2.72-7.34,5.44-11,8.2C293.34,340.24,286,345.5,278.75,351c-5.43,4.1-11.06,7.94-16.47,12.09a3,3,0,0,1-2.06.78Z"/><path class="cls-55" d="M345,187.8c1-1.94,3.07-2.75,4.71-4,12.14-9,24.45-17.79,36.51-26.92,4.57-3.46,9.7-6.28,13.54-10.68a6.37,6.37,0,0,1,5.38,1.74q-20.89,15.38-41.81,30.75c-4.83,3.55-9.69,7.05-14.53,10.58a5,5,0,0,1-2.38,1.21A7.91,7.91,0,0,0,345,187.8Z"/><path class="cls-16" d="M402.14,167.58c-.63-1-1.2-.47-1.86,0l-37.66,27.76q-12.94,9.53-25.89,19.07a2.4,2.4,0,0,1-1.9.46l.66-1.77c1-1.05,1.12-2.55,1.82-3.76l.49-.28c3.27-1.13,5.68-3.58,8.4-5.54,6.57-4.73,13.07-9.55,19.59-14.36q12.66-9.34,25.3-18.72,6-4.41,11.94-8.79a5.87,5.87,0,0,1,3.24-1.43Q404.2,163.91,402.14,167.58Z"/><path class="cls-56" d="M334.1,289.08,330,296.44a2.74,2.74,0,0,0-2.28.82c-2.44,2.72-5.71,4.39-8.6,6.49-7,5.07-13.83,10.25-20.78,15.34-6.23,4.56-12.55,9-18.64,13.74-1.59,1.25-3,3-5.4,3a45.78,45.78,0,0,1,3.59-7.26c1.37.21,2.22-.77,3.16-1.46,2.12-1.55,4.16-3.21,6.28-4.74,14.76-10.68,29.48-21.41,44.06-32.34C332.11,289.48,332.81,288.2,334.1,289.08Z"/><path class="cls-57" d="M348.62,155.61a52.58,52.58,0,0,1,10-1.73,6.19,6.19,0,0,1-1.72,1.74c-4,3.14-8.28,5.92-12.3,9-9,6.86-18.21,13.34-27.24,20.1-3.34,2.51-7,4.63-9.95,7.62-2.19-.58-2.21-2.33-2.22-4.1l.49-.9a4.54,4.54,0,0,0,2.2-1c3-2.18,6.12-4.29,9.12-6.51,9.5-7,19-14.08,28.46-21.09A11.35,11.35,0,0,0,348.62,155.61Z"/><path class="cls-58" d="M216.9,375.19c1.18-2.46,3.76-3.3,5.72-4.81,6-4.66,12.17-9.21,18.43-13.58,2.95-2.05,5.53-4.62,8.8-6.18.41-.2,1.16-1.24,1.47.18-.75,2.83-.76,5.8-1.77,8.58a2.21,2.21,0,0,0-1.5.33q-10.63,7.91-21.27,15.81c-2.27,1.69-4.49,3.44-6.74,5.16A31.7,31.7,0,0,1,216.9,375.19Z"/><path class="cls-59" d="M175.63,302.81c4.86-2.72,9-6.45,13.51-9.66q8.69-6.16,17.26-12.53c7.69-5.7,15.2-11.65,23-17.17,3.77-2.65,7.21-5.86,11.5-7.75-.13,1.05-.27,2.1-.4,3.15l-.61,1.37c-3,2.11-6,4.2-9,6.35q-9.63,7-19.21,14c-5.83,4.32-11.49,8.88-17.43,13-5.7,4-11.18,8.29-16.82,12.37A8,8,0,0,1,175.63,302.81Z"/><path class="cls-60" d="M375.34,150.7c-.37,1.88-2.18,2.43-3.4,3.39-4.3,3.34-8.82,6.41-13.21,9.64-11,8.08-21.87,16.21-32.84,24.27a5.2,5.2,0,0,0-1.7,2l-9.06,1.79c1.08-.81,1.8-2,2.88-2.81,2.36-1.86,4.86-3.51,7.28-5.29,10.14-7.46,20.27-14.93,30.31-22.51,3.91-2.95,8.29-5.31,11.57-9.06Z"/><path class="cls-61" d="M322.91,309.26c-.84-1.17-1.67-.33-2.31.14-10.69,7.89-21.33,15.83-32,23.72-5.67,4.2-11.37,8.34-17.09,12.47-.76.55-1.51,1.32-2.63,1.07,1.09-2.4,2.17-4.81,3.26-7.21a1.26,1.26,0,0,1,.33-.05c1.3.26,2.12-.66,3-1.3Q290.74,327,306,315.77c6.64-4.89,13.22-9.87,19.83-14.79.58-.44,1.22-.88,2-.46A75.65,75.65,0,0,1,322.91,309.26Z"/><path class="cls-62" d="M297.46,354.81c-.95-.72-1.53.14-2.11.58-5.87,4.31-11.69,8.68-17.55,13-4.53,3.33-9.11,6.6-13.66,9.92-8.61,6.26-17.3,12.44-25.77,18.89-2.07,1.57-4.43,2.82-6.14,4.85a5.13,5.13,0,0,1-1.33-2.31c.23-1.59,1.73-2,2.75-2.76q15.79-11.72,31.66-23.32l24.28-17.81c2.83-2.09,5.62-4.23,8.46-6.31.95-.69,1.79-1.67,3.17-1.44Z"/><path class="cls-63" d="M136,233.5c4.26-3,8.55-6,12.78-9.11,5.81-4.24,11.56-8.57,17.35-12.85,8.13-6,16.21-12.12,24.45-18,4.82-3.43,9.24-7.43,14.48-10.28l.12,1.35-.17.46c-.18,2.49-2.26,3.16-3.93,4.37-6,4.33-11.9,8.83-17.86,13.23-6.63,4.89-13.28,9.74-19.91,14.62q-12.85,9.47-25.68,18.94Z"/><path class="cls-64" d="M213.28,253.51a1.93,1.93,0,0,1-1,1.82c-12.33,9-24.71,17.95-36.91,27.12-2.64,2-5.69,3.54-7.77,6.25a19.5,19.5,0,0,1-2.8-4.92c1.5-.21,2.55-1.23,3.7-2.07,8.71-6.38,17.48-12.7,26.1-19.21,3.11-2.33,6.46-4.37,9.2-7.18C207,255.15,210.11,254.13,213.28,253.51Z"/><path class="cls-65" d="M286.57,311.36c2.79-.73,4.7-2.89,6.91-4.48,10.15-7.3,20.16-14.79,30.23-22.2,6-4.43,12-8.89,18.12-13.25.72-.51,1.41-1.8,2.69-.9l-4,7.34c-1.14-1.12-1.85.18-2.47.63-8.47,6.18-16.86,12.49-25.33,18.67-9.13,6.67-18.35,13.23-27.3,20.16a3.38,3.38,0,0,1-2.28.84q1.33-2.9,2.65-5.79Z"/><path class="cls-66" d="M169.7,292.42c7.72-5.3,15.18-11,22.71-16.53,5.85-4.32,11.72-8.6,17.58-12.9,4.29-3.14,8.61-6.24,12.81-9.48.63-.48,2.15-.87,1.34-2.34a62,62,0,0,1,9.51-2.24c-.92,2.16-3.05,3.06-4.76,4.32-9.65,7.14-19.5,14-29.07,21.25-9.09,6.9-18.4,13.49-27.55,20.29a5,5,0,0,0-.71.86A8.57,8.57,0,0,1,169.7,292.42Z"/><path class="cls-67" d="M367.17,152.13c-3.28,3.75-7.66,6.11-11.57,9.06-10,7.58-20.17,15.05-30.31,22.51-2.42,1.78-4.92,3.43-7.28,5.29-1.08.85-1.8,2-2.88,2.81-2.52.55-5,1.46-7.66.9a1.36,1.36,0,0,0-.1-.36c3-3,6.61-5.11,9.95-7.62,9-6.76,18.27-13.24,27.24-20.1,4-3.08,8.3-5.86,12.3-9a6.19,6.19,0,0,0,1.72-1.74A59.72,59.72,0,0,1,367.17,152.13Z"/><path class="cls-68" d="M163,280.65a27.69,27.69,0,0,1-2.86-5c2-.51,3.21-2.15,4.76-3.28,8.19-5.95,16.31-12,24.52-17.92,4-2.84,7.48-6.28,12-8.28l0,3.17a.17.17,0,0,0,0,.29c-.46.72-.18,1.55-.36,2.31s-.9,1-1.46,1.33c-3.4,2.06-6.38,4.71-9.62,7-7.53,5.29-14.87,10.84-22.21,16.39C166.16,277.92,164.21,278.84,163,280.65Z"/><path class="cls-41" d="M334.1,289.08c-1.29-.88-2,.4-2.69.92-14.58,10.93-29.3,21.66-44.06,32.34-2.12,1.53-4.16,3.19-6.28,4.74-.94.69-1.79,1.67-3.16,1.46l1.92-4.47,1.46-2.28a4.73,4.73,0,0,0,1.5-.39c2.91-2,5.83-4,8.65-6.06,8-5.93,15.89-12,24-17.86,6.76-4.85,13.39-9.87,20.12-14.77.68-.49,1.4-1.87,2.66-.77A39,39,0,0,1,334.1,289.08Z"/><path class="cls-69" d="M128.61,151.19c-2.83,3.17-6.49,5.27-9.86,7.76-5.9,4.36-11.83,8.67-17.75,13a55,55,0,0,1-4.12-7.23,5.82,5.82,0,0,0,1-.37c4.07-2.3,7.64-5.31,11.3-8.16,2.88-2.24,6.36-3.76,8.54-6.88A102.53,102.53,0,0,1,128.61,151.19Z"/><path class="cls-70" d="M255.42,330.94c-1.08-1.3-1.82,0-2.44.48-5.45,3.94-10.84,8-16.25,12s-11,8.21-16.6,12.29c-3.37,2.48-6.78,4.9-10.17,7.35a7.46,7.46,0,0,1-1.74-3.1c2.35-2.92,5.67-4.65,8.61-6.81,8.94-6.57,17.92-13.11,26.78-19.8,3.59-2.71,7.26-5.31,10.9-7.95a3,3,0,0,1,2.24-.89c-.13,1.06-.27,2.11-.4,3.16Z"/><path class="cls-55" d="M237.24,273.8c-4.26,1.7-7.43,5-11.17,7.52-4,2.69-7.77,5.87-11.69,8.78-8.73,6.47-17.47,12.95-26.28,19.32a70,70,0,0,0-6,4.66,6.31,6.31,0,0,1-1.42-2.55,2.31,2.31,0,0,1,1.16-1.83c11-7.58,21.58-15.85,32.41-23.7,7.33-5.32,14.56-10.76,21.83-16.16a3.87,3.87,0,0,1,2.21-1C238.36,270.58,237.44,272.12,237.24,273.8Z"/><path class="cls-71" d="M260.22,363.84a3,3,0,0,0,2.06-.78c5.41-4.15,11-8,16.47-12.09,7.22-5.47,14.59-10.73,21.81-16.19,3.65-2.76,7.31-5.48,11-8.2a2.8,2.8,0,0,1,1.87-.68c-1.33,2.6-2.36,5.37-4.13,7.73-1-1.06-1.54.18-2,.53-5.85,4.2-11.63,8.5-17.43,12.76q-12.51,9.19-25,18.37c-2.46,1.82-4.7,4-7.72,4.9A42.1,42.1,0,0,1,260.22,363.84Z"/><path class="cls-46" d="M177.47,306c5.64-4.08,11.12-8.37,16.82-12.37,5.94-4.17,11.6-8.73,17.43-13q9.56-7.08,19.21-14c3-2.15,6-4.24,9-6.35l-.9,5a4.06,4.06,0,0,0-2.64,1.11q-6.47,4.88-13,9.68c-11.73,8.63-23.42,17.31-35.24,25.79-3.09,2.22-5.77,5.07-9.41,6.48A4.91,4.91,0,0,1,177.47,306Z"/><path class="cls-72" d="M163,280.65c1.21-1.81,3.16-2.73,4.81-4,7.34-5.55,14.68-11.1,22.21-16.39,3.24-2.28,6.22-4.93,9.62-7,.56-.34,1.24-.6,1.46-1.33l.37.23c-.08,1.67,1.39,2.19,2.3,3.13-2.74,2.81-6.09,4.85-9.2,7.18-8.62,6.51-17.39,12.83-26.1,19.21-1.15.84-2.2,1.86-3.7,2.07A10.77,10.77,0,0,1,163,280.65Z"/><path class="cls-45" d="M130.37,223.58c7.49-5.48,15-10.93,22.47-16.46,10.29-7.62,20.53-15.32,30.82-23,6.8-5,13.65-10,20.49-15a9.45,9.45,0,0,1,1.83-.82l.14.89-.17.49c-.25,1.93-2,2.48-3.26,3.4-12.72,9.39-25.52,18.69-38.25,28.07-10.2,7.51-20.35,15.1-30.53,22.65-.78.57-1.66,1-2.49,1.53Z"/><path class="cls-73" d="M178.73,308.26c3.64-1.41,6.32-4.26,9.41-6.48C200,293.3,211.65,284.62,223.38,276q6.52-4.8,13-9.68A4.06,4.06,0,0,1,239,265.2l-.32,2.71-.45.93a3.87,3.87,0,0,0-2.21,1c-7.27,5.4-14.5,10.84-21.83,16.16-10.83,7.85-21.37,16.12-32.41,23.7a2.31,2.31,0,0,0-1.16,1.83A10,10,0,0,1,178.73,308.26Z"/><path class="cls-74" d="M155.75,267.94c4.39-3.12,8.81-6.2,13.16-9.37,4.9-3.57,9.74-7.22,14.61-10.83,5.22-3.88,10.43-7.78,15.68-11.62.82-.6,1.61-1.43,2.8-1.25l0,3.15-.17.49-.38.89a7.46,7.46,0,0,0-1.65.65c-3.46,2.48-6.93,4.95-10.32,7.52-10.55,8-21.17,15.89-32,23.54A10.83,10.83,0,0,1,155.75,267.94Z"/><path class="cls-75" d="M323.35,125c-.92-1-2.17-.65-3.19-.51-7.91,1.08-15.8,2.28-23.7,3.43-4.19.61-8.41,1-12.55,1.83-5.13,1-10.34,1.5-15.48,2.43-4.08.73-8.25,1.14-12.37,1.76-6.12.92-12.25,1.79-18.38,2.65-5.61.8-11.24,1.47-16.83,2.37-4.34.7-8.77.9-13,2.23,0-.75,0-1.5.07-2.26a27.22,27.22,0,0,0,3.59-.21c4.19-.85,8.45-1.33,12.68-1.94,3.09-.44,6.17-1,9.28-1.38,4.14-.5,8.23-1.48,12.39-1.84,4.45-.38,8.81-1.36,13.27-1.8,6.13-.6,12.2-1.88,18.31-2.78,7-1,14-2,20.94-3q7-1,13.89-2c4-.59,7.94-1.2,11.9-1.8A6,6,0,0,1,323.35,125Z"/><path class="cls-76" d="M248.63,375.19c-3.48,1.52-6.12,4.24-9.15,6.4-4.21,3-8.33,6.12-12.48,9.21a3.91,3.91,0,0,0-.68.87,43.2,43.2,0,0,1-3.7-6.43c4.76-2.71,8.85-6.37,13.36-9.45,3.94-2.69,7.41-6,11.67-8.28a3.9,3.9,0,0,1-.17,2.59A4.89,4.89,0,0,0,248.63,375.19Z"/><path class="cls-77" d="M327.79,159.34,340,157.1c-2.88,4-7.41,6.05-11.14,9-4.5,3.59-9.27,6.86-14,10.21-2.46,1.75-4.53,4.17-7.56,5.1v-1.34c1.24-2.74,1.59-5.75,2.49-8.6.69,1.17,1.35.4,2-.07C317.15,167.41,322.82,163.84,327.79,159.34Z"/><path class="cls-78" d="M247.65,367.51c-4.26,2.25-7.73,5.59-11.67,8.28-4.51,3.08-8.6,6.74-13.36,9.45a22.77,22.77,0,0,1-2.58-4.56c2.25-1.72,4.47-3.47,6.74-5.16q10.62-7.92,21.27-15.81a2.21,2.21,0,0,1,1.5-.33C248.93,362.09,248.74,364.9,247.65,367.51Z"/><path class="cls-79" d="M307.35,181.43c3-.93,5.1-3.35,7.56-5.1,4.69-3.35,9.46-6.62,14-10.21,3.73-3,8.26-5,11.14-9a71.74,71.74,0,0,1,8.61-1.49,11.35,11.35,0,0,1-3.2,3.09c-9.5,7-19,14.07-28.46,21.09-3,2.22-6.08,4.33-9.12,6.51a4.54,4.54,0,0,1-2.2,1A27,27,0,0,1,307.35,181.43Z"/><path class="cls-80" d="M117.76,149.31c-2.18,3.12-5.66,4.64-8.54,6.88-3.66,2.85-7.23,5.86-11.3,8.16a5.82,5.82,0,0,1-1,.37A57.55,57.55,0,0,1,93,157.91c4.69-2.27,8.32-6,12.61-8.87.68-.45,1.06-1.09.45-1.9Z"/><path class="cls-81" d="M109.22,186.42c4.55-2.79,8.69-6.16,13-9.25,3.11-2.23,6.08-4.64,9.17-6.9,6-4.38,12-8.71,18-13.09a2.55,2.55,0,0,0,1.37-2l4.53.87a1.57,1.57,0,0,1-.74,1.3c-4,3-8.05,6-12.09,9-6.2,4.58-12.34,9.25-18.64,13.7-4.34,3.06-8.35,6.6-13,9.18A6.83,6.83,0,0,1,109.22,186.42Z"/><path class="cls-82" d="M110.82,189.22c4.69-2.58,8.7-6.12,13-9.18,6.3-4.45,12.44-9.12,18.64-13.7,4-3,8.05-6,12.09-9a1.57,1.57,0,0,0,.74-1.3l3.62.54c-.34,2.19-2.41,2.75-3.82,3.8-13.52,10.07-27.13,20-40.7,30-.83.61-1.61,1.13-2.65.52Z"/><path class="cls-41" d="M338.21,281.94c-1.26-1.1-2,.28-2.66.77-6.73,4.9-13.36,9.92-20.12,14.77-8.1,5.81-16,11.93-24,17.86-2.82,2.1-5.74,4.08-8.65,6.06a4.73,4.73,0,0,1-1.5.39c.6-1.21,1.21-2.41,1.81-3.62a3.38,3.38,0,0,0,2.28-.84c8.95-6.93,18.17-13.49,27.3-20.16,8.47-6.18,16.86-12.49,25.33-18.67.62-.45,1.33-1.75,2.47-.63A17.87,17.87,0,0,1,338.21,281.94Z"/><path class="cls-83" d="M201.42,246.19c-4.52,2-8,5.44-12,8.28-8.21,5.91-16.33,12-24.52,17.92-1.55,1.13-2.77,2.77-4.76,3.28a5.33,5.33,0,0,1-1.28-2.28,15.78,15.78,0,0,0,1.73-1c3.52-2.66,7-5.4,10.53-8,7.15-5.3,14.26-10.65,21.54-15.76,2.92-2,5.48-4.68,8.89-6,0,1.05,0,2.1,0,3.15Z"/><path class="cls-84" d="M324.17,122.15c-4,.6-7.93,1.21-11.9,1.8q-6.93,1-13.89,2c-7,1-14,1.93-20.94,3-6.11.9-12.18,2.18-18.31,2.78-4.46.44-8.82,1.42-13.27,1.8-4.16.36-8.25,1.34-12.39,1.84-3.11.37-6.19.94-9.28,1.38-4.23.61-8.49,1.09-12.68,1.94a27.22,27.22,0,0,1-3.59.21v-.47l.39-.88c4.27-.62,8.55-1.21,12.82-1.85,3.73-.57,7.44-1.19,11.16-1.78a2.86,2.86,0,0,0,2.15.24c2-.24,4-.67,6-1,7.22-1.09,14.48-1.94,21.71-3,8.87-1.28,17.72-2.68,26.58-4,10.24-1.5,20.5-2.8,30.69-4.61,1.45-.26,3.31-1,4.87.19A.33.33,0,0,1,324.17,122.15Z"/><path class="cls-85" d="M201.55,242.57c-3.41,1.32-6,4-8.89,6-7.28,5.11-14.39,10.46-21.54,15.76-3.54,2.63-7,5.37-10.53,8a15.78,15.78,0,0,1-1.73,1,5.92,5.92,0,0,1-1.31-2.28c10.8-7.65,21.42-15.55,32-23.54,3.39-2.57,6.86-5,10.32-7.52a7.46,7.46,0,0,1,1.65-.65c0,.95,0,1.91.07,2.86A.2.2,0,0,1,201.55,242.57Z"/><path class="cls-56" d="M327.81,300.52c-.8-.42-1.44,0-2,.46-6.61,4.92-13.19,9.9-19.83,14.79Q290.75,327,275.47,338.1c-.88.64-1.7,1.56-3,1.3a14.6,14.6,0,0,1,1.85-3.6c2.36.05,3.81-1.72,5.4-3,6.09-4.76,12.41-9.18,18.64-13.74,6.95-5.09,13.82-10.27,20.78-15.34,2.89-2.1,6.16-3.77,8.6-6.49a2.74,2.74,0,0,1,2.28-.82C329.23,297.77,328.91,299.35,327.81,300.52Z"/><path class="cls-86" d="M248.93,125.72c6.54-1.69,13.21-2.72,19.82-4,4.12-.8,8.2-1.86,12.39-2.28a23,23,0,0,0,5.56-.22c4.83-.7,9.63-1.6,14.5-2.07,3-.29,6-.75,8.89-1.3,5.12-1,10.28-1.6,15.43-2.28a1.68,1.68,0,0,1,.42,1.37c-3,.52-6,1.11-9,1.54-10.29,1.48-20.59,2.89-30.87,4.37-7.7,1.1-15.38,2.34-23.09,3.41C258.29,124.88,253.7,126.2,248.93,125.72Z"/><path class="cls-87" d="M208.31,137.55l-.39.88a5.22,5.22,0,0,1,.77-3.71c.61.83,1.48.58,2.27.48a73.38,73.38,0,0,0,9-1.37c3-.8,6.23-.41,9.13-1.72h.45a4.09,4.09,0,0,0,1.08.13c4.14-.56,8.3-1,12.38-1.77,2.9-.57,5.93-.38,8.73-1.53h.45c1.95-.4,4,0,5.88-.91l2.27-.45c1.35-.2,2.8.46,4.07-.45h.45c.5,0,1,.08,1.36-.45h.45c3.28.28,6.4-.73,9.57-1.21,1.64-.25,3.51.32,4.92-1.06h.45c2-.07,4.08.4,5.89-.9H288a19.93,19.93,0,0,0,7.24-.91h.46A82.51,82.51,0,0,0,308,120.89c2.67-.57,5.51-.13,8-1.46h.45c2.92.3,5.7-.77,8.57-.92l.13.08c-.09.62,0,1.3-.52,1.8-2.84-.66-5.64.3-8.35.7-3.56.52-7.14,1-10.69,1.51-1.77-1.11-3.32.3-5,.49-5.35.61-10.69,1.32-16,2.07s-10.92,1.63-16.39,2.42c-4.8.7-9.64,1.19-14.41,2.08-5.71,1.05-11.49,1.65-17.23,2.51-3.89.58-7.78,1.28-11.7,1.66-4.43.43-8.7,1.8-13.18,2C210.57,135.87,208.68,135.49,208.31,137.55Z"/><path class="cls-88" d="M252.21,128.94h-.45c-.26-.13-.53-.4-.76-.37-4.34.59-8.7,1.13-13,1.88-2.81.49-5.79.22-8.42,1.66h-.45a32.06,32.06,0,0,0-4.15.22c-5.37.64-10.67,1.89-16.11,2a3.22,3.22,0,0,1,2.95-1.4c.81-.06,1.71.39,2.36-.45h0c3.86.39,7.62-.5,11.39-1q12-1.58,23.9-3.54c3-.49,6.25-.28,9.11-1.77,2.18.18,4.35.28,6.33-.9,2.21.37,4.28-.28,6.34-.91,2.4.54,4.75-.27,7-.61,7.29-1.1,14.6-2,21.88-3.21,8.46-1.34,17-2.15,25.41-3.86l0,.5a1.68,1.68,0,0,1-.38,1.36l-.13-.08c-3-.86-5.79-.11-8.57.92H316c-6.55.08-12.89,1.83-19.39,2.33a1.27,1.27,0,0,0-1,.84h-.46c-2.47-.16-4.94-.3-7.24.91h-.45a13.62,13.62,0,0,0-5.89.9h-.45c-1.74-.54-3.35.37-5,.55-3.18.34-6.47.31-9.48,1.72h-.45c-.77-.81-1,0-1.36.45h-.45c-1.41-.33-2.8-.5-4.07.45l-2.27.45C256.07,127.93,254,127.41,252.21,128.94Z"/><path class="cls-89" d="M106,147.14c.61.81.23,1.45-.45,1.9-4.29,2.83-7.92,6.6-12.61,8.87-1.61-3.22-1.32-6.4,1-9a7.74,7.74,0,0,1,8.56-2.39C103.7,146.94,104.87,146.8,106,147.14Z"/><path class="cls-90" d="M325.57,117.23c0-.16,0-.33,0-.5-1.21-1.56-2.46,0-3.63.06a117.34,117.34,0,0,0-13,1.53c-4.63.88-9.35,1.13-13.95,2.09-2.85.59-5.77.57-8.57,1.23-3.16.75-6.44.72-9.57,1.55-1.86.5-4.06-.6-5.62,1.22-2.14.14-4.42-.75-6.34.91-2.17-.1-4.36-.37-6.33.9-1-.7-2-.33-3-.06a23.73,23.73,0,0,1-3.75.56c-2.94.31-5.88.8-8.8,1.29-4.19.7-8.32,1.76-12.62,1.33,6.13-1.5,12.32-2.68,18.56-3.62,4.77.48,9.36-.84,14-1.48,7.71-1.07,15.39-2.31,23.09-3.41,10.28-1.48,20.58-2.89,30.87-4.37,3-.43,6-1,9-1.54A2.77,2.77,0,0,1,325.57,117.23Z"/><path class="cls-68" d="M327.79,159.34c-5,4.5-10.64,8.07-16,12.08-.61.47-1.27,1.24-2,.07l.33-1.76c.85-1.19.78-2.71,1.39-4a7.27,7.27,0,0,0,.92-3.15l.44-.65Z"/><path class="cls-91" d="M305.63,122.6c3.55-.55,7.13-1,10.69-1.51,2.71-.4,5.51-1.36,8.35-.7a1.79,1.79,0,0,1-.42,1.42c-1.56-1.18-3.42-.45-4.87-.19-10.19,1.81-20.45,3.11-30.69,4.61-8.86,1.31-17.71,2.71-26.58,4-7.23,1-14.49,1.88-21.71,3-2,.3-4,.73-6,1a2.86,2.86,0,0,1-2.15-.24c.4-.53.93-.55,1.56-.62,3.9-.42,7.82-.74,11.66-1.5,6.24-1.24,12.59-1.71,18.85-2.82,5.05-.9,10.16-1.43,15.24-2.17,4.73-.68,9.48-1.28,14.19-2C297.74,124.14,301.83,124.11,305.63,122.6Z"/><path class="cls-92" d="M325.52,113.55c-5.15.68-10.31,1.3-15.43,2.28-2.91.55-5.91,1-8.89,1.3-4.87.47-9.67,1.37-14.5,2.07a23,23,0,0,1-5.56.22c5.79-1.2,11.57-2.42,17.37-3.58,7.36-1.46,14.73-2.84,22.09-4.33C322.78,111.06,324.44,111.51,325.52,113.55Z"/><path class="cls-90" d="M230.37,129.34c4.3.43,8.43-.63,12.62-1.33,2.92-.49,5.86-1,8.8-1.29a23.73,23.73,0,0,0,3.75-.56c1-.27,2-.64,3,.06-2.86,1.49-6.07,1.28-9.11,1.77q-11.92,2-23.9,3.54c-3.77.5-7.53,1.39-11.39,1A148.51,148.51,0,0,1,230.37,129.34Z"/><path class="cls-88" d="M208.86,134.37c5.44-.15,10.74-1.4,16.11-2a32.06,32.06,0,0,1,4.15-.22c-2.9,1.31-6.11.92-9.13,1.72a73.38,73.38,0,0,1-9,1.37c-.79.1-1.66.35-2.27-.48A.53.53,0,0,1,208.86,134.37Z"/><path class="cls-13" d="M207.39,153.39l-.37.43a8.54,8.54,0,0,1,.33-3.72C207.37,151.2,207.38,152.29,207.39,153.39Z"/><path class="cls-39" d="M206.9,157.79c-.1,1.24.41,2.54-.33,3.72A8.37,8.37,0,0,1,206.9,157.79Z"/><path class="cls-90" d="M214.17,132.52c-.65.84-1.55.39-2.36.45A3.67,3.67,0,0,1,214.17,132.52Z"/><path class="cls-39" d="M206.12,169.21l-.14-.89c.15-.95.31-1.91.46-2.87C206.36,166.71,206.86,168,206.12,169.21Z"/><path class="cls-93" d="M238.69,267.91l.32-2.71.9-5,.61-1.37a2.32,2.32,0,0,1,1.91-.92c6.65-.36,13.14-1.88,19.74-2.63,3-.34,5.88-1.14,8.85-1.37,5.44-.44,10.75-1.68,16.18-2.22,4.37-.43,8.73-1.18,13.05-2,5.14-1,10.45-.73,15.45-2.47a1.56,1.56,0,0,1,2.22.89c-.32.85-.65,1.7-1,2.56l-3.48,6.38c-5.43-.21-10.59,1.7-16,2-3,.2-6,1.21-9,1.49-6.47.59-12.85,1.83-19.28,2.65s-12.7,1.87-19,2.83C246.32,266.69,242.51,267.31,238.69,267.91Z"/><path class="cls-94" d="M238.69,267.91c3.82-.6,7.63-1.22,11.46-1.8,6.34-1,12.67-2,19-2.83s12.81-2.06,19.28-2.65c3-.28,6-1.29,9-1.49,5.37-.34,10.53-2.25,16-2a55.11,55.11,0,0,1-3.69,7.32c-1.36-1.08-2.84-.59-4.28-.29-2.34.48-4.69.85-7.08,1.12-5.91.68-11.83,1.36-17.66,2.51-5.14,1-10.35,1.35-15.49,2.34-6.15,1.18-12.4,1.94-18.64,2.55-3.15.31-6.1,1.56-9.27,1.6l-.12-.45c.2-1.68,1.12-3.22,1-5Z"/><path class="cls-95" d="M237.36,274.25c3.17,0,6.12-1.29,9.27-1.6,6.24-.61,12.49-1.37,18.64-2.55,5.14-1,10.35-1.33,15.49-2.34,5.83-1.15,11.75-1.83,17.66-2.51,2.39-.27,4.74-.64,7.08-1.12,1.44-.3,2.92-.79,4.28.29a2.7,2.7,0,0,1-.06.41l-1.68,2.7a3.27,3.27,0,0,0-1.08-.23c-6.15.86-12.3,1.71-18.44,2.63-6.43,1-12.85,2-19.29,3q-9.09,1.35-18.21,2.59c-4.74.64-9.41,1.8-14.22,1.94A10.12,10.12,0,0,1,237.36,274.25Z"/><path class="cls-96" d="M203.77,255.32c-.91-.94-2.38-1.46-2.3-3.13,0-.85,0-1.7,0-2.54a.17.17,0,0,1,0-.29c2.06-.76,4.28-.52,6.42-1,2.45-.55,5-.88,7.49-1.26,3.11-.47,6.25-.7,9.34-1.22,5.16-.86,10.35-1.5,15.52-2.34,9.07-1.48,18.22-2.42,27.31-3.8s18.5-2.61,27.71-4.09c9.37-1.51,18.81-2.55,28.13-4.33.89-.17,2-.47,2.7.54l-1.87,4-2.11,4c-4.67,0-9.21,1-13.81,1.59-5.33.64-10.63,1.63-16,2.42-2.95.43-5.94.71-8.89,1.15-5.47.79-10.93,1.68-16.39,2.47-3,.43-6,.53-8.89,1.16-5.43,1.19-11,1.62-16.41,2.48-.56-.75-.64-1.9-1.78-2.18-2.09-1.47-4.21-.88-6.33-.07a62,62,0,0,0-9.51,2.24c-3,.65-6,1.25-8.92,2-.66.17-1.31.15-1.94.33C210.11,254.13,207,255.15,203.77,255.32Z"/><path class="cls-97" d="M241.76,251.18c5.46-.86,11-1.29,16.41-2.48,2.9-.63,5.93-.73,8.89-1.16,5.46-.79,10.92-1.68,16.39-2.47,2.95-.44,5.94-.72,8.89-1.15,5.32-.79,10.62-1.78,16-2.42,4.6-.55,9.14-1.59,13.81-1.59q-2.1,4.13-4.18,8.25a1.56,1.56,0,0,0-2.22-.89c-5,1.74-10.31,1.52-15.45,2.47-4.32.79-8.68,1.54-13.05,2-5.43.54-10.74,1.78-16.18,2.22-3,.23-5.89,1-8.85,1.37-6.6.75-13.09,2.27-19.74,2.63a2.32,2.32,0,0,0-1.91.92c.13-1.05.27-2.1.4-3.15A12.25,12.25,0,0,0,241.76,251.18Z"/><path class="cls-98" d="M337.8,209.07l-.49.28c-.3-1.08-1.22-.79-1.88-.71-3.93.49-7.89.85-11.76,1.64-5.37,1.09-10.82,1.47-16.2,2.36-6.93,1.16-13.91,2-20.86,3-5.55.8-11.09,1.66-16.63,2.48-6.06.89-12.12,1.73-18.18,2.64-2.73.41-5.44,1.27-8.18,1.36-5.27.19-10.33,1.67-15.54,2.23-6.68.7-13.34,1.7-20,2.93-2,.38-5.5-1.11-5.63,3.05l0-3.15c.53-1.48.2-3.05.49-4.55l.38-.89c6.13-.35,12.13-1.69,18.22-2.42,6.81-.81,13.59-2,20.38-3,4.29-.63,8.58-1.2,12.87-1.83q8.86-1.29,17.73-2.61c4.14-.62,8.27-1.29,12.41-1.89,4.95-.72,9.93-1.23,14.85-2.11s10.13-1.39,15.17-2.31c7.84-1.44,15.85-2,23.7-3.54,1-.19,1.61-.06,1.82,1C339.14,204.84,338.63,207,337.8,209.07Z"/><path class="cls-99" d="M340.48,203c-.21-1.06-.8-1.19-1.82-1-7.85,1.52-15.86,2.1-23.7,3.54-5,.92-10.13,1.41-15.17,2.31s-9.9,1.39-14.85,2.11c-4.14.6-8.27,1.27-12.41,1.89q-8.86,1.32-17.73,2.61c-4.29.63-8.58,1.2-12.87,1.83-6.79,1-13.57,2.2-20.38,3-6.09.73-12.09,2.07-18.22,2.42,0-1,0-1.9-.05-2.86l0-.76c3.39-.08,6.67-.9,10-1.35,5.18-.71,10.37-1.38,15.55-2.12s10.63-1.71,16-2.35c1.81-.22,3.48-1,5.3-1,5.29.1,10.3-1.83,15.57-2.09,3.26-.16,6.48-1.23,9.74-1.49,6.36-.51,12.61-1.72,18.88-2.69,6-.92,12-1.9,18-2.64,5.12-.63,10.15-1.79,15.28-2.31,4.31-.44,8.58-1.22,12.87-1.81a1.46,1.46,0,0,1,1.84,1.21A10.22,10.22,0,0,1,340.48,203Z"/><path class="cls-100" d="M342.28,199.52a1.46,1.46,0,0,0-1.84-1.21c-4.29.59-8.56,1.37-12.87,1.81-5.13.52-10.16,1.68-15.28,2.31-6,.74-12,1.72-18,2.64-6.27,1-12.52,2.18-18.88,2.69-3.26.26-6.48,1.33-9.74,1.49-5.27.26-10.28,2.19-15.57,2.09-1.82,0-3.49.74-5.3,1-5.34.64-10.64,1.58-16,2.35s-10.37,1.41-15.55,2.12c-3.34.45-6.62,1.27-10,1.35l-.06-2.74.15.05,7.75-1.2c6.05-1,12.08-2,18.14-2.87,9.1-1.3,18.24-2.38,27.33-3.74,8.35-1.24,16.72-2.37,25.07-3.61s17-2.34,25.52-3.67c11.59-1.82,23.23-3.31,34.81-5.24.72-.12,1.71-.5,2.09.68l-1.54,3.7A1.35,1.35,0,0,0,342.28,199.52Z"/><path class="cls-100" d="M203.28,218.88c0,1,0,1.91.05,2.86l-.38.89A9.33,9.33,0,0,1,203.28,218.88Z"/><path class="cls-101" d="M312.49,162.59a7.27,7.27,0,0,1-.92,3.15c-.12-.88-.56-1-1.42-.84-1.46.33-2.95.49-4.43.71q-9,1.29-18,2.58c-5.44.78-10.87,1.6-16.31,2.4l-17.53,2.53c-5.47.8-10.94,1.64-16.41,2.44-7.1,1-14.19,2.13-21.31,3-3.56.44-7,1.53-10.63,1.53,0-.9-.05-1.81-.07-2.71l.17-.47c6.4-.63,12.7-1.94,19.07-2.8s12.79-1.43,19.08-2.87c2.61-.6,5.33-.74,8-1.1,3.7-.51,7.4-1,11.1-1.53,4.73-.68,9.49-1.21,14.18-2.14,6.32-1.25,12.73-1.77,19.07-2.88,4.64-.82,9.32-1.41,14-2C311,161.46,312.22,161.09,312.49,162.59Z"/><path class="cls-102" d="M286.57,311.36l-.82,1a1.29,1.29,0,0,0-1.37-.93c-5.86.51-11.57,2.09-17.44,2.49-2.63.18-5.16,1.56-7.88.61l1.8-9.95.87-2.73c5.54-.19,10.94-1.52,16.43-2.14,5-.57,9.9-1.5,14.89-1.91l-1.38,2.69Z"/><path class="cls-103" d="M259.06,314.55c2.72.95,5.25-.43,7.88-.61,5.87-.4,11.58-2,17.44-2.49a1.29,1.29,0,0,1,1.37.93q-1.32,2.89-2.65,5.79c-.6,1.21-1.21,2.41-1.81,3.62l-1.46,2.28a1.44,1.44,0,0,0-1.86-.84c-5.56,1.52-11.39,1.34-17,2.72-1.59.39-3.57-.1-4.66,1.71.13-1.05.27-2.1.4-3.16.62-3,1.25-6,1.87-9Z"/><path class="cls-104" d="M326.08,231.87c-.72-1-1.81-.71-2.7-.54-9.32,1.78-18.76,2.82-28.13,4.33-9.21,1.48-18.48,2.69-27.71,4.09s-18.24,2.32-27.31,3.8c-5.17.84-10.36,1.48-15.52,2.34-3.09.52-6.23.75-9.34,1.22-2.5.38-5,.71-7.49,1.26-2.14.47-4.36.23-6.42,1,0-1.06,0-2.12,0-3.17l.17-.47c4.32-1.26,8.81-1.63,13.24-2.2,6-.78,12-1.61,18-2.56,5.31-.85,10.67-1.41,16-2.37,7.86-1.43,15.84-2.2,23.76-3.35,6.51-1,13-2.09,19.49-3.06,10.5-1.55,21-3,31.51-4.59a21.43,21.43,0,0,1,4.92-.36A25.09,25.09,0,0,1,326.08,231.87Z"/><path class="cls-104" d="M328.46,227.23a21.43,21.43,0,0,0-4.92.36c-10.5,1.58-21,3-31.51,4.59-6.5,1-13,2.11-19.49,3.06-7.92,1.15-15.9,1.92-23.76,3.35-5.3,1-10.66,1.52-16,2.37-6,.95-12,1.78-18,2.56-4.43.57-8.92.94-13.24,2.2,0-1.05,0-2.1,0-3.15a.2.2,0,0,0,0-.31,1.41,1.41,0,0,1,.32-.17c1.9-.84,4-.78,5.94-1.1,4.21-.68,8.39-1.6,12.62-2,6.26-.57,12.46-1.55,18.66-2.49,7.68-1.16,15.37-2.27,23-3.44,6.05-.92,12.12-1.77,18.17-2.66,5.25-.77,10.5-1.57,15.75-2.32s10.51-1.41,15.75-2.18c6.14-.9,12.22-2.21,18.45-2.3l-.18.85Z"/><path class="cls-105" d="M303,277.88c-1,1.8-1.46,3.81-2.69,5.48-.35-.12-.72-.39-1.05-.35-6.53.76-13,1.81-19.51,2.78-9.61,1.43-19.23,2.81-28.81,4.35-5.76.93-11.59,1.33-17.28,2.68.48-2.86,1-5.72,1.45-8.58.15-.31.29-.62.43-.93,8-.16,15.71-2,23.57-3,5.7-.73,11.39-1.62,17.08-2.43q8-1.14,16-2.28c4.22-.61,8.39-1.64,12.71-1.31Z"/><path class="cls-106" d="M304.86,274.29c-4.32-.33-8.49.7-12.71,1.31q-8,1.15-16,2.28c-5.69.81-11.38,1.7-17.08,2.43-7.86,1-15.61,2.84-23.57,3a22.06,22.06,0,0,1,1.27-5.89c4.81-.14,9.48-1.3,14.22-1.94q9.12-1.23,18.21-2.59c6.44-.95,12.86-2,19.29-3,6.14-.92,12.29-1.77,18.44-2.63a3.27,3.27,0,0,1,1.08.23Z"/><path class="cls-107" d="M233.65,292.82c5.69-1.35,11.52-1.75,17.28-2.68,9.58-1.54,19.2-2.92,28.81-4.35,6.49-1,13-2,19.51-2.78.33,0,.7.23,1.05.35q-1,2.24-1.94,4.47l-5.31,10c-5,.41-9.92,1.34-14.89,1.91-5.49.62-10.89,1.95-16.43,2.14a5.15,5.15,0,0,0-2.22-5.18c-3.35-1.19-6.11.89-9.11,1.63-4.89,1.15-9.54,3.12-14.49,4.05-3.18-1.5-3.6-2.27-3.24-5.93A11.93,11.93,0,0,1,233.65,292.82Z"/><path class="cls-108" d="M307.47,192.7c2.66.56,5.14-.35,7.66-.9l9.06-1.79c4.72-.69,9.39-1.62,14-2.71,2.28-.09,4.65-1.31,6.79.5a7.91,7.91,0,0,1,1.42,2.71c-.14.61,0,1.3-.54,1.81-6.73-.28-13.14,2-19.78,2.52-4.68.35-9.32,1.31-14,2-5.25.78-10.49,1.61-15.74,2.36-4.8.69-9.61,1.34-14.41,2.11-6.27,1-12.59,1.64-18.88,2.54s-12.67,2.16-19.05,2.88-12.46,1.66-18.65,2.57c-5.61.83-11.31,1.17-16.83,2.52-2,.48-5.11-.66-5.18,3.1l.42-6.32c7.05-1.36,14.21-2,21.27-3.34,4.75-.93,9.64-1.17,14.44-1.89,7-1,14-2.51,21-3.28,6.25-.68,12.44-1.74,18.67-2.53,8.37-1,16.69-2.57,25.09-3.51C305.4,193.93,306.84,194.08,307.47,192.7Z"/><path class="cls-109" d="M307.47,192.7c-.63,1.38-2.07,1.23-3.14,1.36-8.4.94-16.72,2.46-25.09,3.51-6.23.79-12.42,1.85-18.67,2.53-7,.77-14,2.24-21,3.28-4.8.72-9.69,1-14.44,1.89-7.06,1.39-14.22,2-21.27,3.34l-.12-1.35.51-4.53c4.16.14,8.19-1,12.23-1.58,7.6-1.13,15.23-2.11,22.82-3.38,6.26-1,12.57-1.83,18.85-2.75,5-.74,10.05-1.51,15.08-2.25q8.87-1.31,17.75-2.57c4.73-.68,9.47-1.31,14.21-2,0,1.77,0,3.52,2.22,4.1A1.36,1.36,0,0,1,307.47,192.7Z"/><path class="cls-110" d="M203.4,214.93c.07-3.76,3.21-2.62,5.18-3.1,5.52-1.35,11.22-1.69,16.83-2.52,6.19-.91,12.41-1.87,18.65-2.57s12.69-2,19.05-2.88,12.61-1.53,18.88-2.54c4.8-.77,9.61-1.42,14.41-2.11,5.25-.75,10.49-1.58,15.74-2.36,4.65-.7,9.29-1.66,14-2,6.64-.51,13.05-2.8,19.78-2.52a9.37,9.37,0,0,1-1.79,3.46c-.38-1.18-1.37-.8-2.09-.68-11.58,1.93-23.22,3.42-34.81,5.24-8.49,1.33-17,2.41-25.52,3.67s-16.72,2.37-25.07,3.61c-9.09,1.36-18.23,2.44-27.33,3.74-6.06.86-12.09,1.91-18.14,2.87l-7.75,1.2Z"/><path class="cls-111" d="M310.18,169.73l-.33,1.76c-.9,2.85-1.25,5.86-2.49,8.6a17.17,17.17,0,0,0-4.46.46L285,183.24c-4,.6-8,1.26-11.95,1.82-6.21.88-12.44,1.64-18.64,2.56s-12.07,2.11-18.15,2.82c-5.42.62-10.78,1.59-16.19,2.22-5.12.59-10.16,1.87-15.34,1.92l-.1-1.81.45-7.7.17-.46.37-.44a9.57,9.57,0,0,0,4.85-.13c9.16-1.95,18.49-2.73,27.71-4.26,5.89-1,11.84-1.78,17.78-2.5,9.36-1.13,18.65-2.77,28-4.16,6.81-1,13.61-2.09,20.45-2.85C306.26,170.06,308.17,169.21,310.18,169.73Z"/><path class="cls-112" d="M204.69,194.58c5.18-.05,10.22-1.33,15.34-1.92,5.41-.63,10.77-1.6,16.19-2.22,6.08-.71,12.09-1.93,18.15-2.82s12.43-1.68,18.64-2.56c4-.56,8-1.22,11.95-1.82l17.94-2.69a17.17,17.17,0,0,1,4.46-.46v1.34a27,27,0,0,0-1.71,5.91l-.49.9c-4.74.65-9.48,1.28-14.21,2q-8.88,1.26-17.75,2.57c-5,.74-10.05,1.51-15.08,2.25-6.28.92-12.59,1.71-18.85,2.75C231.67,199,224,200,216.44,201.15c-4,.6-8.07,1.72-12.23,1.58,0-.91,0-1.81-.07-2.72l.17-.47c.73-1.19.23-2.48.33-3.73Z"/><path class="cls-111" d="M204.64,195.81c-.1,1.25.4,2.54-.33,3.73A9.4,9.4,0,0,1,204.64,195.81Z"/><path class="cls-113" d="M247.65,367.51c1.09-2.61,1.28-5.42,1.9-8.13,1-2.78,1-5.75,1.77-8.58a59.79,59.79,0,0,0,2-9.54,68.18,68.18,0,0,0,14-1.61,9.83,9.83,0,0,1,4.85-.2c-1.09,2.4-2.17,4.81-3.26,7.21a84.1,84.1,0,0,0-4.37,8.63l-4.29,8.55a42.1,42.1,0,0,0-3.14,6.35c-.63,1-1.23,2-1.89,3-2,2.95-3.31,3.36-6.56,2a4.89,4.89,0,0,1-1.15-5.09A3.9,3.9,0,0,0,247.65,367.51Z"/><path class="cls-114" d="M330.27,223.61c-6.23.09-12.31,1.4-18.45,2.3-5.24.77-10.5,1.43-15.75,2.18s-10.5,1.55-15.75,2.32c-6.05.89-12.12,1.74-18.17,2.66-7.68,1.17-15.37,2.28-23,3.44-6.2.94-12.4,1.92-18.66,2.49-4.23.39-8.41,1.31-12.62,2-2,.32-4,.26-5.94,1.1,0-1.2,0-2.39,0-3.58L202,238c.7-.81.2-1.81.43-2.69l16-2.39c2.58-.39,5.16-.86,7.74-1.23,5.92-.84,11.84-1.6,17.76-2.46,4.43-.64,8.82-1.61,13.27-2a81,81,0,0,0,9.08-1.26c5.14-1.06,10.35-1.55,15.5-2.29,7.16-1,14.36-2,21.51-3.08,9.37-1.42,18.82-2.37,28.12-4.24a1.47,1.47,0,0,1,1.85.88Q331.78,220.44,330.27,223.61Z"/><path class="cls-115" d="M333.26,217.27a1.47,1.47,0,0,0-1.85-.88c-9.3,1.87-18.75,2.82-28.12,4.24-7.15,1.09-14.35,2-21.51,3.08-5.15.74-10.36,1.23-15.5,2.29a81,81,0,0,1-9.08,1.26c-4.45.38-8.84,1.35-13.27,2-5.92.86-11.84,1.62-17.76,2.46-2.58.37-5.16.84-7.74,1.23l-16,2.39c0-.36-.07-.71-.11-1.07,0-.85.07-1.7.1-2.56q8.11-1.14,16.21-2.28c5.55-.8,11.13-1.46,16.64-2.46,6.55-1.2,13.17-1.91,19.74-2.94,6-1,12-1.76,18-2.65s12.09-2.14,18.19-2.71c7.23-.68,14.36-2,21.55-3S327,213.74,334,212.47a1.15,1.15,0,0,1,1.46.64l-.66,1.77Z"/><path class="cls-116" d="M310.18,169.73c-2-.52-3.92.33-5.84.54-6.84.76-13.64,1.84-20.45,2.85-9.32,1.39-18.61,3-28,4.16-5.94.72-11.89,1.51-17.78,2.5-9.22,1.53-18.55,2.31-27.71,4.26a9.57,9.57,0,0,1-4.85.13c0-1.12,0-2.23-.05-3.35l0-.73c3.61,0,7.07-1.09,10.63-1.53,7.12-.87,14.21-2,21.31-3,5.47-.8,10.94-1.64,16.41-2.44l17.53-2.53c5.44-.8,10.87-1.62,16.31-2.4q9-1.31,18-2.58c1.48-.22,3-.38,4.43-.71.86-.2,1.3,0,1.42.84C311,167,311,168.54,310.18,169.73Z"/><path class="cls-10" d="M205.53,180.82c0,1.12,0,2.23.05,3.35l-.37.44-.12-1.35Z"/><path class="cls-117" d="M272.14,339.45a9.83,9.83,0,0,0-4.85.2,68.18,68.18,0,0,1-14,1.61c.12-.56.24-1.12.37-1.67a62.32,62.32,0,0,0,1.78-8.65l.93-3.28c1.09-1.81,3.07-1.32,4.66-1.71,5.57-1.38,11.4-1.2,17-2.72a1.44,1.44,0,0,1,1.86.84l-1.92,4.47a45.78,45.78,0,0,0-3.59,7.26,14.6,14.6,0,0,0-1.85,3.6A1.26,1.26,0,0,0,272.14,339.45Z"/><path class="cls-115" d="M335.49,213.11a1.15,1.15,0,0,0-1.46-.64c-7.06,1.27-14.18,2.26-21.28,3.21s-14.32,2.3-21.55,3c-6.1.57-12.13,1.8-18.19,2.71s-12,1.7-18,2.65c-6.57,1-13.19,1.74-19.74,2.94-5.51,1-11.09,1.66-16.64,2.46q-8.1,1.16-16.21,2.28l0-1.37c.13-4.16,3.63-2.67,5.63-3.05,6.61-1.23,13.27-2.23,20-2.93,5.21-.56,10.27-2,15.54-2.23,2.74-.09,5.45-1,8.18-1.36,6.06-.91,12.12-1.75,18.18-2.64,5.54-.82,11.08-1.68,16.63-2.48,6.95-1,13.93-1.84,20.86-3,5.38-.89,10.83-1.27,16.2-2.36,3.87-.79,7.83-1.15,11.76-1.64.66-.08,1.58-.37,1.88.71C336.61,210.56,336.52,212.06,335.49,213.11Z"/><path class="cls-115" d="M202.36,234.26c0,.36.07.71.11,1.07-.23.88.27,1.88-.43,2.69,0-1.05,0-2.1,0-3.15Z"/><path class="cls-104" d="M201.46,249.65c0,.84,0,1.69,0,2.54l-.37-.23C201.28,251.2,201,250.37,201.46,249.65Z"/><path class="cls-83" d="M201.87,238.51c0,1.19,0,2.38,0,3.58a1.41,1.41,0,0,0-.32.17c0-.95-.05-1.91-.07-2.86Z"/><path class="cls-118" d="M305.63,122.6c-3.8,1.51-7.89,1.54-11.84,2.17-4.71.76-9.46,1.36-14.19,2-5.08.74-10.19,1.27-15.24,2.17-6.26,1.11-12.61,1.58-18.85,2.82-3.84.76-7.76,1.08-11.66,1.5-.63.07-1.16.09-1.56.62-3.72.59-7.43,1.21-11.16,1.78-4.27.64-8.55,1.23-12.82,1.85.37-2.06,2.26-1.68,3.43-1.73,4.48-.19,8.75-1.56,13.18-2,3.92-.38,7.81-1.08,11.7-1.66,5.74-.86,11.52-1.46,17.23-2.51,4.77-.89,9.61-1.38,14.41-2.08,5.47-.79,10.92-1.65,16.39-2.42s10.67-1.46,16-2.07C302.31,122.9,303.86,121.49,305.63,122.6Z"/><path class="cls-88" d="M229.57,132.11c2.63-1.44,5.61-1.17,8.42-1.66,4.31-.75,8.67-1.29,13-1.88.23,0,.5.24.76.37-2.8,1.15-5.83,1-8.73,1.53-4.08.79-8.24,1.21-12.38,1.77A4.09,4.09,0,0,1,229.57,132.11Z"/><path class="cls-88" d="M295.67,122.6a1.27,1.27,0,0,1,1-.84c6.5-.5,12.84-2.25,19.39-2.33-2.52,1.33-5.36.89-8,1.46A82.51,82.51,0,0,1,295.67,122.6Z"/><path class="cls-88" d="M266.69,126.68c3-1.41,6.3-1.38,9.48-1.72,1.66-.18,3.27-1.09,5-.55-1.41,1.38-3.28.81-4.92,1.06C273.09,126,270,127,266.69,126.68Z"/><path class="cls-88" d="M316.49,119.43c2.78-1,5.59-1.78,8.57-.92C322.19,118.66,319.41,119.73,316.49,119.43Z"/><path class="cls-88" d="M288,123.51c2.3-1.21,4.77-1.07,7.24-.91A19.93,19.93,0,0,1,288,123.51Z"/><path class="cls-88" d="M252.21,128.94c1.77-1.53,3.86-1,5.88-.91C256.23,129,254.16,128.54,252.21,128.94Z"/><path class="cls-88" d="M281.63,124.41a13.62,13.62,0,0,1,5.89-.9C285.71,124.81,283.63,124.34,281.63,124.41Z"/><path class="cls-88" d="M260.36,127.58c1.27-1,2.66-.78,4.07-.45C263.16,128,261.71,127.38,260.36,127.58Z"/><path class="cls-88" d="M264.88,127.13c.34-.49.59-1.26,1.36-.45C265.92,127.21,265.38,127.11,264.88,127.13Z"/><path class="cls-90" d="M271.22,124.41c1.56-1.82,3.76-.72,5.62-1.22,3.13-.83,6.41-.8,9.57-1.55,2.8-.66,5.72-.64,8.57-1.23,4.6-1,9.32-1.21,13.95-2.09a117.34,117.34,0,0,1,13-1.53c1.17-.08,2.42-1.62,3.63-.06-8.41,1.71-16.95,2.52-25.41,3.86-7.28,1.17-14.59,2.11-21.88,3.21C276,124.14,273.62,125,271.22,124.41Z"/><path class="cls-90" d="M264.88,125.32c1.92-1.66,4.2-.77,6.34-.91C269.16,125,267.09,125.69,264.88,125.32Z"/><path class="cls-90" d="M258.55,126.22c2-1.27,4.16-1,6.33-.9C262.9,126.5,260.73,126.4,258.55,126.22Z"/></g></g></svg>