<svg xmlns="http://www.w3.org/2000/svg" viewBox="0 0 500 500"><defs><style>.cls-1{fill:#878787;}.cls-2{fill:#435466;}.cls-2,.cls-3{fill-rule:evenodd;}.cls-3{fill:#4dba87;}</style></defs><g id="Frameworks"><g id="vue"><path class="cls-1" d="M280,11.21a7.94,7.94,0,0,0-2.07,1.55c-.52.59-5.66,9.88-11.43,20.68S255.43,53.9,254.77,55c-2,3.1-1.82,3.07-12.14,3.47l-9.14.41-2-1c-2-1-2.18-1.26-15.39-20.31-7.4-10.62-13.8-19.83-14.28-20.46A6.17,6.17,0,0,0,197,14.76c-1.6,0-43.44,13.91-44.88,14.91-2.15,1.52-2.59,3.29-2.19,8.69.89,11,2.63,33,3,38.07l.44,5.67-1.07,2.1c-1,2-1.4,2.37-8.66,7.4a86.51,86.51,0,0,1-8.88,5.66c-3,.89-3.4.78-27.23-9.1C83.06,78,83.76,78.28,80.87,79.58c-1.4.67-28.89,34.85-29.45,36.63a4.78,4.78,0,0,0,0,2.85c.3.92,5.63,8.25,14.88,20.42,12.5,16.5,14.46,19.28,14.83,20.87.52,2.4.52,2.4-4.29,13.87-4.25,10.25-5.22,11.69-8.1,12.73-.85.3-12,2.44-24.83,4.74-24.42,4.36-24.53,4.4-26.16,6.62-1.92,2.59-6.69,46.91-5.14,47.84.22.14,10.84,4.07,23.57,8.73s23.68,8.8,24.31,9.17c2.44,1.41,3,3,5.21,15.28,1.15,6.26,2.08,12.14,2.08,13.14a7.58,7.58,0,0,1-.85,3.37c-.56,1.07-6.18,6.54-18.21,17.72-9.58,8.88-17.72,16.68-18.13,17.28a5.19,5.19,0,0,0-.66,3c0,1.71.92,3.59,9.43,20.13,5.22,10,9.92,18.72,10.47,19.31a6.33,6.33,0,0,0,2.52,1.45c1.44.4,3.22.07,24.68-4.78,24.19-5.47,25-5.58,27.74-4.32,1.45.7,18.65,18.46,19.69,20.31,1.4,2.59,1.33,3.33-2.44,18.05-8.7,33.93-8.51,33.19-8,34.78a7.24,7.24,0,0,0,1.26,2.41c.44.51,9,5.51,18.9,11.1,16.39,9.21,18.28,10.17,19.8,10.17a6.33,6.33,0,0,0,2.81-.67c.63-.4,8.51-8.21,17.57-17.42s17.06-17.06,17.84-17.43c2.7-1.44,3.44-1.37,17,1.67,7,1.55,13.13,3.07,13.61,3.4,2.56,1.67,2.7,2,10.58,25.68,7.44,22.31,7.66,22.9,9.07,24.16a6.78,6.78,0,0,0,2.85,1.55c3.37.63,24.34-.7,37.74-2.4,6.06-.78,7.36-1.41,8.4-4.18.33-.89,2.77-11.92,5.4-24.5,3.18-15,5.07-23.31,5.51-24.05,1.44-2.29,2.52-2.85,13.8-7.14,12.17-4.66,13.73-5,16.43-3.55.66.37,9.17,7.07,18.87,14.91S369.57,447,370.2,447.38a4.83,4.83,0,0,0,3.07.52c1.89-.11,2.3-.41,12.92-8.44,21.57-16.31,23.6-17.9,24.3-18.9a6.08,6.08,0,0,0,.89-2.78c.19-1.62-.55-3.77-8.4-24.34-4.73-12.43-8.69-23.16-8.77-23.87-.37-2.55.49-4.14,6.41-12.28,3.18-4.33,6.14-8.29,6.58-8.73a7.7,7.7,0,0,1,5.59-2.37c1,0,12.06,1.11,24.53,2.48L460,351.11l1.59-.7a9.16,9.16,0,0,0,2.22-1.44c.52-.6,13.47-35.3,15.62-41.85a5.75,5.75,0,0,0-1.6-6.36c-.74-.78-9.91-7.7-20.38-15.39-18.8-13.81-19-14-19.94-16l-.93-2,.44-7.95c.6-10.4.67-10.88,2-12.88,1.11-1.59,2-2.07,22.68-12.47,11.88-6,21.83-11.06,22.16-11.32a8.27,8.27,0,0,0,2-4.14c0-1.56-9.58-45-10.17-46.18a6.85,6.85,0,0,0-2-2c-1.55-1,0-.89-37.48-3.3-14.39-.92-14.65-1-16.83-3.07-1.59-1.51-8.25-14.06-8.51-16.05a7.18,7.18,0,0,1,.3-3.11c.29-.82,6-10.69,12.65-21.94,11.62-19.54,12.14-20.5,12.14-22.28a8.36,8.36,0,0,0-.52-2.73C435,96.93,404,65.15,402.24,63.78a5.6,5.6,0,0,0-3-.85l-2.11-.15L376.31,74.36c-11.47,6.37-21.54,11.81-22.35,12.1-2.55.89-4.22.33-11.1-3.51s-7.7-4.44-8.77-6.55c-1-1.85-.92-1.37-1.81-27.79-.74-21.83-.78-22.6-1.59-24.23-1.37-2.78,1.33-2-36.41-10.95-6.36-1.48-11.95-2.74-12.39-2.74A8,8,0,0,0,280,11.21Z"/><g id="Icons1"><g id="vue-2" data-name="vue"><path class="cls-2" d="M158,151.92h55.83l34.69,58.84,35-58.84H338.9L248.54,310.81,158,151.92Z"/><path class="cls-3" d="M98.46,151.92,248.54,414.1,399.7,151.92H338.9L248.54,310.81,158,151.92Z"/></g></g></g></g></svg>