<svg xmlns="http://www.w3.org/2000/svg" viewBox="0 0 500 500">
  <path fill="#1172b8" d="M85 402v-46c0-4-1-5-5-6-34-3-59-25-66-57-9-40 20-80 61-86 10-1 10-1 10-11v-85c0-19 11-30 30-30h91c3 0 5-1 5-4a72 72 0 0 1 143-9v2c1 11 1 11 12 11h85c18 0 30 12 30 30v90c0 4-1 6-5 6a72 72 0 0 0-67 68c-2 36 23 68 59 74a26 26 0 0 0 7 1c6 0 6 2 6 7v89c0 19-12 30-30 30H115c-19 0-30-11-30-30v-44Z"/>
  <path fill="#fff" d="M262 177h7l-7 3-122 51 4 50 118 1h64l-4 67-60 17-58-14-3-42h-54l7 80 108 32 108-31 14-160H262l126-54 5-52H128l7 52h127z"/>
</svg>
