<svg xmlns="http://www.w3.org/2000/svg" viewBox="0 0 500 500">
  <defs>
    <style>
      .cls-2{fill:#1565c0}
    </style>
  </defs>
  <g id="Linguagens">
    <g id="Dart">
      <path fill="#22d3c5" d="M88 409v-46c0-4 0-5-5-5-33-4-58-25-66-57-9-40 20-81 61-86 10-1 10-1 10-12v-85c0-18 12-30 30-30h91c4 0 5 0 5-4a72 72 0 0 1 143-8v2c2 10 2 10 12 10h85c18 0 30 12 30 30v90c0 4 0 6-5 6a72 72 0 0 0-67 68c-2 36 24 68 60 75a25 25 0 0 0 6 0c6 0 6 3 6 7v89c0 19-12 31-30 31H118c-18 0-30-12-30-30v-45Z"/>
      <path d="m145 179 24 204-65-66a33 33 0 0 1-6-36Z" class="cls-2"/>
      <path fill="#42a5f5" d="M286 133a37 37 0 0 0-43-6l-98 52v166a33 33 0 0 0 10 23l14 15h179v-41l57-90Z"/>
      <path d="M145 179h174a33 33 0 0 1 23 10l63 63v131h-57Z" class="cls-2"/>
      <path fill="#85cbf8" d="M348 383H169l49 49h130v-49z"/>
    </g>
  </g>
</svg>
