<svg xmlns="http://www.w3.org/2000/svg" viewBox="0 0 500 500">
  <defs>
    <linearGradient id="a" x1="12.6" x2="481" y1="237.2" y2="237.2" gradientUnits="userSpaceOnUse">
      <stop offset="0" stop-color="#ffda4b"/>
      <stop offset="1" stop-color="#f9c600"/>
    </linearGradient>
  </defs>
  <path fill="url(#a)" d="M85 397v-47c0-3-1-5-5-5-34-4-59-25-66-57-9-40 20-81 61-86 10-1 10-1 10-11v-86c0-18 11-30 30-30l91 1c3 0 5-1 5-5a72 72 0 0 1 143-8v2c1 10 1 10 12 10h85c18 0 30 12 30 30v90c0 4-1 6-5 6a72 72 0 0 0-67 68c-2 36 23 68 59 75a26 26 0 0 0 7 1c6-1 6 2 6 7v89c0 18-12 30-30 30H115c-19 0-30-12-30-30v-44Z"/>
  <path d="M229 274c0 39 3 72-17 92a69 69 0 0 1-49 17c-35 0-55-17-67-40l36-22c5 14 23 30 42 20 12-6 11-25 11-45V165h44Zm110-26c-11-5-25-10-28-21-4-11 3-21 10-24 16-7 35 5 39 17l34-23a67 67 0 0 0-65-35c-19 1-33 7-43 15a52 52 0 0 0-20 38c-3 52 35 65 68 79 10 4 22 9 26 18 10 18-7 31-22 32-24 2-40-12-49-27l-36 21c16 28 41 46 81 45 41 0 71-19 73-56 4-50-34-65-68-79Z"/>
</svg>
