<svg xmlns="http://www.w3.org/2000/svg" viewBox="0 0 500 500">
  <defs>
    <style>
      .cls-2{fill:#fff}
    </style>
  </defs>
  <g id="Linguagens">
    <g id="JAVA">
      <path fill="red" d="M84 402v-46c0-4 0-5-5-6a72 72 0 0 1-5-143c10-1 10-1 10-11v-85c0-19 12-30 30-30h91c4 0 5-1 5-4a72 72 0 0 1 143-9v2c2 11 2 11 12 11h85c19 0 30 12 30 30v90c0 4 0 6-5 6a72 72 0 0 0-67 68c-2 36 24 68 60 74a26 26 0 0 0 6 1c6 0 6 2 6 7v89c0 19-12 30-30 30H114c-18 0-30-11-30-30v-44Z"/>
      <path d="M243 269s-19-37-19-64c1-19 44-38 61-66s-2-54-2-54a63 63 0 0 1-7 40c-11 21-53 33-69 68s36 76 36 76Z" class="cls-2"/>
      <path d="M314 157s-65 25-65 53 18 37 21 47-5 24-5 24 25-17 21-38-24-27-13-47c8-14 41-39 41-39Z" class="cls-2"/>
      <path d="M236 306c60-2 82-21 82-21-39 11-143 10-143 2s32-14 32-14-51 0-56 13 24 22 85 20Zm87 30s59-13 53-45c-7-39-48-17-48-17s29 0 31 18-36 44-36 44Zm-29-17a285 285 0 0 1-37 6c-30 4-65 1-68-4s5-8 5-8c-36 9-16 24 25 27 36 2 89-11 89-11Zm-92 31s-16 0-17 9 10 16 50 18 67-11 67-11l-18-10-28 4c-17 2-54-2-55-5a4 4 0 0 1 1-5Z" class="cls-2"/>
      <path d="M357 388c6-6-2-12-2-12s3 4-1 7-38 14-94 16-115-5-117-12 31-13 31-13c-4 1-49 2-51 14s20 22 105 22 123-15 129-22Z" class="cls-2"/>
      <path d="M324 416c-38 8-151 3-151 3s74 17 158 3c40-7 42-27 42-27s-12 13-49 21Z" class="cls-2"/>
    </g>
  </g>
</svg>
