<svg xmlns="http://www.w3.org/2000/svg" viewBox="0 0 500 500">
  <path fill="#8892bf" d="M72 402v-46c0-4 0-5-5-6a72 72 0 0 1-5-143c10-1 10-1 10-11v-85c0-19 12-30 30-30h91c4 0 5-1 5-4a72 72 0 0 1 143-9v2c2 11 2 11 12 11h85c19 0 30 12 30 30v90c0 4 0 6-5 6a72 72 0 0 0-67 68c-2 36 24 68 60 74a26 26 0 0 0 6 1c6 0 6 2 6 7v89c0 19-11 30-30 30H102c-18 0-30-11-30-30v-44Z"/>
  <path fill="#fcfcfc" d="M137 208q21 1 31 13t6 33a64 64 0 0 1-6 19 57 57 0 0 1-11 17q-9 9-20 12a90 90 0 0 1-21 2H94l-7 35H62l26-130Zm215 0q22 1 31 13t7 33a64 64 0 0 1-6 19 57 57 0 0 1-11 17q-10 9-20 12a90 90 0 0 1-21 2h-22l-7 35h-25l26-130Zm-124-34-7 34h22q19 1 28 8t6 28l-13 60h-25l12-58q1-9-2-12t-12-4h-20l-15 74h-25l26-130Zm-111 55h-8l-11 55a13 13 0 0 0 2 0h3q17 0 29-3 12-4 16-27 3-19-7-22t-24-3Zm216 0h-8l-11 55a13 13 0 0 0 2 0h3q17 0 29-3 11-4 15-27 4-19-6-22t-24-3Z"/>
</svg>
