<svg xmlns="http://www.w3.org/2000/svg" xmlns:xlink="http://www.w3.org/1999/xlink" viewBox="0 0 500 500"><defs><style>.cls-1{fill:#b0c0d4;}.cls-2{fill:url(#Gradiente_sem_nome_5);}</style><linearGradient id="Gradiente_sem_nome_5" x1="-1683.06" y1="-152.56" x2="-1636.77" y2="-198.84" gradientTransform="matrix(5, 0, 0, -5, 8525.43, -676.14)" gradientUnits="userSpaceOnUse"><stop offset="0" stop-color="#6d7479"/><stop offset="1" stop-color="#323538"/></linearGradient></defs><g id="Frameworks"><path class="cls-1" d="M296.44,20.49A7.82,7.82,0,0,0,294.36,22c-.51.59-5.66,9.88-11.43,20.68s-11,20.46-11.69,21.54c-2,3.1-1.81,3.07-12.14,3.47l-9.13.41-2-1c-2-1-2.19-1.26-15.4-20.31-7.4-10.62-13.8-19.83-14.28-20.46A6.17,6.17,0,0,0,213.45,24C211.86,24,170,38,168.57,39c-2.15,1.52-2.59,3.29-2.18,8.69.88,11,2.62,33,3,38.08l.45,5.66-1.08,2.1c-1,2-1.4,2.37-8.65,7.4a90.64,90.64,0,0,1-8.88,5.67c-3,.88-3.41.77-27.23-9.11-24.46-10.13-23.76-9.87-26.64-8.58-1.41.67-28.9,34.85-29.45,36.63a4.62,4.62,0,0,0,0,2.85c.29.92,5.62,8.25,14.87,20.42,12.51,16.5,14.47,19.28,14.84,20.87.51,2.4.51,2.4-4.3,13.87-4.25,10.25-5.21,11.69-8.1,12.73-.85.3-12,2.44-24.82,4.74-24.42,4.36-24.53,4.4-26.16,6.62-1.93,2.59-6.7,46.91-5.14,47.84.22.15,10.84,4.07,23.56,8.73S76.33,273,77,273.33c2.44,1.41,3,3,5.22,15.29,1.14,6.25,2.07,12.13,2.07,13.13a7.45,7.45,0,0,1-.85,3.37c-.56,1.07-6.18,6.55-18.2,17.72-9.59,8.88-17.73,16.69-18.13,17.28a5.19,5.19,0,0,0-.67,3c0,1.71.93,3.59,9.44,20.13,5.21,10,9.91,18.72,10.47,19.31A6.11,6.11,0,0,0,68.82,384c1.44.4,3.22.07,24.68-4.78,24.2-5.47,25-5.58,27.75-4.32,1.44.7,18.65,18.46,19.68,20.31,1.41,2.59,1.33,3.33-2.44,18.05-8.69,33.93-8.51,33.19-8,34.78a7.43,7.43,0,0,0,1.26,2.41c.44.51,8.95,5.51,18.91,11.1,16.39,9.21,18.27,10.17,19.79,10.17a6.29,6.29,0,0,0,2.81-.67c.63-.4,8.51-8.21,17.58-17.42s17.05-17.06,17.83-17.43c2.7-1.44,3.44-1.37,17,1.67,7,1.55,13.14,3.07,13.62,3.4,2.55,1.67,2.7,2,10.58,25.68,7.44,22.31,7.66,22.9,9.06,24.16a6.9,6.9,0,0,0,2.85,1.55c3.37.63,24.35-.7,37.74-2.4,6.07-.78,7.36-1.41,8.4-4.18.33-.89,2.77-11.92,5.4-24.5,3.18-15,5.07-23.31,5.51-24.05,1.45-2.29,2.52-2.84,13.8-7.14,12.18-4.66,13.73-5,16.43-3.55.67.37,9.18,7.07,18.87,14.91s18.17,14.54,18.8,14.91a4.8,4.8,0,0,0,3.07.52c1.88-.11,2.29-.41,12.91-8.44,21.57-16.31,23.6-17.9,24.31-18.9a6.33,6.33,0,0,0,.89-2.78c.18-1.62-.56-3.77-8.4-24.34-4.74-12.43-8.7-23.16-8.77-23.87-.37-2.55.48-4.14,6.4-12.28,3.18-4.33,6.14-8.29,6.58-8.73a7.7,7.7,0,0,1,5.59-2.37c1,0,12.06,1.11,24.53,2.48l22.64,2.44,1.6-.7a9.16,9.16,0,0,0,2.22-1.44c.51-.6,13.46-35.3,15.61-41.85a5.76,5.76,0,0,0-1.59-6.36c-.74-.78-9.92-7.7-20.39-15.39-18.79-13.8-19-14-19.94-16l-.93-2,.45-7.95c.59-10.4.66-10.88,2-12.88,1.11-1.59,2-2.07,22.68-12.47,11.88-5.95,21.83-11.06,22.17-11.32a8.34,8.34,0,0,0,2-4.14c0-1.56-9.58-45-10.17-46.18a6.8,6.8,0,0,0-2-2c-1.56-1,0-.89-37.48-3.3-14.39-.92-14.65-1-16.84-3.07-1.59-1.51-8.25-14.06-8.51-16.05a7.34,7.34,0,0,1,.3-3.11c.3-.82,6-10.69,12.65-21.94,11.62-19.54,12.14-20.5,12.14-22.27a8.43,8.43,0,0,0-.52-2.74c-.48-.93-31.45-32.71-33.22-34.08a5.66,5.66,0,0,0-3-.85l-2.11-.15L392.78,83.64c-11.47,6.37-21.53,11.81-22.35,12.1-2.55.89-4.21.33-11.1-3.51s-7.69-4.44-8.76-6.55c-1-1.85-.93-1.37-1.82-27.79-.74-21.83-.77-22.6-1.59-24.23-1.37-2.78,1.33-2-36.41-10.95C304.39,21.23,298.8,20,298.36,20A8.07,8.07,0,0,0,296.44,20.49Z"/><path class="cls-2" d="M332.31,256l-68.94-90.7h8.92a20.29,20.29,0,0,1,16.17,8l53.35,70.19,53.36-70.19a20.25,20.25,0,0,1,16.16-8h8.92L351.31,256l72.16,94.93h-8.92a20.29,20.29,0,0,1-16.17-8L341.8,268.47l-56.57,74.42a20.31,20.31,0,0,1-16.17,8h-8.92Zm-221,7.56v5.92c0,31.73,21,60.71,51.91,67.81,33.55,7.71,64.17-9.42,77.31-36.6a12.2,12.2,0,0,1,11-6.9h7.77a83.11,83.11,0,0,1-80.93,60.46c-46-.54-82.15-40.1-82.15-89.62V243c0-41,28.81-77.65,69.32-84.17a83.19,83.19,0,0,1,97,82v22.68Zm0-15.12H247.32v-7.56c0-42.69-39.32-76.19-83.72-66.27-31.14,7-52.33,36-52.33,71.64Z"/></g></svg>