<svg xmlns="http://www.w3.org/2000/svg" viewBox="0 0 500 500"><defs><style>.cls-1{fill:#1172b8;}.cls-2{fill:#fff;}</style></defs><g id="Linguagens"><g id="CSS"><path class="cls-1" d="M84.77,402c0-15.41-.12-30.83.08-46.24.05-3.7-.54-5.11-4.78-5.53-33.75-3.29-58.62-25-65.83-56.92-9-39.82,19.8-80.69,60.46-85.84,10.07-1.27,10.07-1.27,10.07-11.33q0-42.6,0-85.18c0-18.48,11.56-30,30.11-30,30.4,0,60.8-.06,91.19.07,3.4,0,4.61-.58,4.85-4.38C213.2,40.24,242.4,11,278.11,9.1c37-2,68.81,22.9,75.65,59.28.12.64.19,1.29.27,1.93C355.31,81,355.31,81,365.83,81q42.42,0,84.85,0c18.53,0,30.16,11.61,30.18,30,0,30-.06,60,.09,90.05,0,4-.55,5.6-5.27,5.95a71.87,71.87,0,0,0-66.83,67.9c-2,35.93,23.42,67.82,59.43,74.54a25.67,25.67,0,0,0,6.77.75c5.46-.48,6,2.25,5.93,6.88-.22,29.69-.1,59.38-.12,89.07,0,18.43-11.7,30.15-30.09,30.17-30.4,0-60.79,0-91.19.07-3.25,0-149.32-.06-159.76-.06q-42.42,0-84.85,0c-18.53,0-30.17-11.58-30.2-30Q84.74,424.17,84.77,402Z"/><polygon class="cls-2" points="262.09 176.69 269.24 176.69 262.09 179.66 139.52 230.71 143.59 281.25 262.09 281.63 325.61 281.83 321.54 349.21 262.09 365.95 262.09 365.9 261.6 366.04 204.19 351.54 200.71 309.71 200.51 309.71 147.26 309.71 147.07 309.71 154.04 390.46 262.09 422.41 262.09 422.36 262.29 422.41 369.76 391.04 383.7 230.71 262.09 230.71 261.79 230.71 262.09 230.58 388.15 176.69 393.38 124.98 262.09 124.98 128.48 124.98 134.87 176.69 262.09 176.69"/></g></g></svg>