<svg xmlns="http://www.w3.org/2000/svg" viewBox="0 0 500 500"><defs><style>.cls-1{fill:#22d3c5;}.cls-2{fill:#1565c0;}.cls-3{fill:#42a5f5;}.cls-4{fill:#85cbf8;}</style></defs><g id="Linguagens"><g id="Dart"><path class="cls-1" d="M88,409.35c0-15.42-.11-30.83.09-46.24,0-3.7-.55-5.12-4.79-5.53-33.74-3.29-58.62-25-65.82-56.92-9-39.82,19.8-80.69,60.45-85.84C88,213.54,88,213.54,88,203.48q0-42.58,0-85.17c0-18.48,11.55-30,30.1-30q45.6,0,91.2.06c3.39,0,4.61-.57,4.85-4.37,2.28-36.41,31.48-65.63,67.19-67.55,37-2,68.81,22.9,75.65,59.28.12.64.19,1.28.27,1.93,1.27,10.64,1.27,10.64,11.79,10.64q42.43,0,84.86,0c18.52,0,30.16,11.6,30.17,30,0,30-.05,60,.09,90,0,4-.54,5.6-5.27,6a71.84,71.84,0,0,0-66.82,67.9c-2,35.93,23.42,67.82,59.43,74.54a25.17,25.17,0,0,0,6.76.74c5.46-.48,6,2.26,5.93,6.89-.22,29.68-.09,59.38-.12,89.06,0,18.43-11.7,30.16-30.08,30.17-30.4,0-60.8,0-91.2.07-3.24,0-149.32-.06-159.75-.06q-42.43,0-84.86,0C99.65,483.6,88,472,88,453.64Q88,431.49,88,409.35Z"/><path class="cls-2" d="M145,179.19l24.42,203.49-65.27-65.27a32.54,32.54,0,0,1-6.48-36.79Z"/><path class="cls-3" d="M285.93,133a36.64,36.64,0,0,0-43.29-6.36L145,179.19V344.77a32.52,32.52,0,0,0,9.54,23l14.88,14.89H348.45V342l57-89.53Z"/><path class="cls-2" d="M145,179.19H318.69a32.51,32.51,0,0,1,23,9.54l63.73,63.72V382.68h-57Z"/><polygon class="cls-4" points="348.45 382.68 169.38 382.68 218.22 431.52 348.45 431.52 348.45 382.68"/></g></g></svg>