<svg xmlns="http://www.w3.org/2000/svg" viewBox="0 0 500 500"><defs><style>.cls-1{fill:#ff4600;}.cls-2{fill:#fff;}</style></defs><g id="Linguagens"><g id="HTML"><path class="cls-1" d="M78.09,402c0-15.41-.12-30.83.08-46.24,0-3.7-.54-5.11-4.79-5.53-33.74-3.29-58.62-25-65.82-56.92-9-39.82,19.8-80.69,60.45-85.84,10.08-1.27,10.08-1.27,10.08-11.33q0-42.6,0-85.18c0-18.48,11.55-30,30.11-30,30.39,0,60.79-.06,91.19.07,3.4,0,4.61-.58,4.85-4.38C206.52,40.24,235.72,11,271.43,9.1c37-2,68.81,22.9,75.65,59.28.12.64.19,1.29.27,1.93C348.63,81,348.63,81,359.15,81q42.42,0,84.85,0c18.53,0,30.16,11.61,30.18,30,0,30-.06,60,.08,90.05,0,4-.54,5.6-5.27,5.95a71.86,71.86,0,0,0-66.82,67.9c-2,35.93,23.42,67.82,59.43,74.54a25.64,25.64,0,0,0,6.76.75c5.47-.48,6,2.25,5.93,6.88-.21,29.69-.09,59.38-.11,89.07,0,18.43-11.71,30.15-30.09,30.17-30.4,0-60.8,0-91.19.07-3.25,0-149.33-.06-159.76-.06q-42.43,0-84.85,0c-18.54,0-30.17-11.58-30.2-30Q78.06,424.17,78.09,402Z"/><path class="cls-2" d="M382.11,124.93H134c-4.37,0-7.67,3.18-7.33,7.07s1,10.64,1.34,15l11.55,129.41a8.89,8.89,0,0,0,8.67,7.93H315a7.16,7.16,0,0,1,7.24,7.93l-4.7,52.48a12.29,12.29,0,0,1-8.39,10l-43.41,11.73c-4.23,1.15-7.7,2.08-7.72,2.08l-7.71-2.07L207,354.79a12.3,12.3,0,0,1-8.39-10l-2.34-26.19a8.89,8.89,0,0,0-8.67-7.93h-37a7.18,7.18,0,0,0-7.26,7.93l6,66.92a12.37,12.37,0,0,0,8.37,10.05l92.63,25.71c4.22,1.17,7.72,2.11,7.79,2.1l7.79-2.15,92.53-25.66c4.21-1.17,7.84-4.13,8.06-6.57s.71-8,1.1-12.38l11-122.92c.39-4.36,1-11.11,1.35-15a6.38,6.38,0,0,0-6.45-7.07h-177a8.89,8.89,0,0,1-8.67-7.93l-3.41-38.13a7.16,7.16,0,0,1,7.25-7.92H385.26c.05,0,.33-2.67.62-5.93s.85-9.49,1.25-13.85l1-10.86c.39-4.36,1-11.11,1.34-15S386.49,124.93,382.11,124.93Z"/></g></g></svg>