<svg xmlns="http://www.w3.org/2000/svg" viewBox="0 0 500 500"><defs><style>.cls-1{fill:red;}.cls-2{fill:#fff;}</style></defs><g id="Linguagens"><g id="JAVA"><path class="cls-1" d="M84.07,402c0-15.41-.12-30.83.08-46.24,0-3.7-.54-5.11-4.78-5.53-33.75-3.29-58.63-25-65.83-56.92-9-39.82,19.8-80.69,60.45-85.84,10.08-1.27,10.08-1.27,10.08-11.33q0-42.6,0-85.18c0-18.48,11.55-30,30.11-30,30.4,0,60.79-.06,91.19.07,3.4,0,4.61-.58,4.85-4.38C212.5,40.24,241.7,11,277.41,9.1c37-2,68.81,22.9,75.65,59.28.12.64.19,1.29.27,1.93C354.61,81,354.61,81,365.13,81q42.42,0,84.85,0c18.53,0,30.16,11.61,30.18,30,0,30-.06,60,.08,90.05,0,4-.54,5.6-5.27,5.95a71.86,71.86,0,0,0-66.82,67.9c-2,35.93,23.42,67.82,59.43,74.54a25.64,25.64,0,0,0,6.76.75c5.47-.48,6,2.25,5.94,6.88-.22,29.69-.1,59.38-.12,89.07,0,18.43-11.7,30.15-30.09,30.17-30.4,0-60.8,0-91.19.07-3.25,0-149.33-.06-159.76-.06q-42.42,0-84.85,0c-18.54,0-30.17-11.58-30.2-30Q84,424.17,84.07,402Z"/><path class="cls-2" d="M242.66,268.72S223.55,231.89,224.25,205c.52-19.23,43.87-38.24,60.89-65.84S283,84.65,283,84.65A63.35,63.35,0,0,1,276,125c-11.33,20.53-53.14,32.58-69.4,68S242.66,268.72,242.66,268.72Z"/><path class="cls-2" d="M314.18,156.85s-65.13,24.79-65.13,53.09,17.69,37.53,20.54,46.73-5,24.79-5,24.79,25.48-17.7,21.22-38.24-24.07-26.92-12.73-47.43C280.7,182,314.18,156.85,314.18,156.85Z"/><path class="cls-2" d="M235.59,306.13C295.78,304,317.73,285,317.73,285c-38.93,10.6-142.3,9.91-143,2.13S206.55,273,206.55,273s-51,0-55.21,12.74S175.45,308.23,235.59,306.13Z"/><path class="cls-2" d="M322.67,336s58.9-12.56,53.08-44.56c-7.06-38.95-48.14-17-48.14-17s29.06,0,31.87,17.69S322.67,336,322.67,336Z"/><path class="cls-2" d="M293.64,319a285.18,285.18,0,0,1-36.83,6.37c-29.48,3.31-65.13.69-68-4.26s5-7.79,5-7.79c-35.41,8.51-16,23.35,25.46,26.21,35.58,2.42,88.52-10.63,88.52-10.63Z"/><path class="cls-2" d="M202.33,349.91s-16.06.45-17,9,9.89,16,49.55,18.39,67.51-10.85,67.51-10.85l-17.93-10.88s-11.34,2.38-28.81,4.73-53.31-1.89-54.72-5.17A4.15,4.15,0,0,1,202.33,349.91Z"/><path class="cls-2" d="M356.64,388.14c6.13-6.62-1.9-11.81-1.9-11.81s2.82,3.31-.91,7.07-38.25,13.2-93.48,16-115.16-5.19-117.06-12.27S174,374.44,174,374.44c-3.77.48-49.08,1.42-50.52,13.7s19.81,22.17,104.8,22.17S350.53,394.72,356.64,388.14Z"/><path class="cls-2" d="M323.61,416c-37.29,7.54-150.54,2.78-150.54,2.78s73.6,17.48,157.62,2.86c40.16-7,42.5-26.44,42.5-26.44S360.9,408.4,323.61,416Z"/></g></g></svg>