<svg xmlns="http://www.w3.org/2000/svg" xmlns:xlink="http://www.w3.org/1999/xlink" viewBox="0 0 500 500"><defs><style>.cls-1{fill:#c9c9c9;}.cls-2,.cls-3{fill-rule:evenodd;}.cls-2{fill:url(#Gradiente_sem_nome_3);}.cls-3{fill:url(#Gradiente_sem_nome_2);}</style><linearGradient id="Gradiente_sem_nome_3" x1="-2565.88" y1="495.82" x2="-2565.88" y2="486.99" gradientTransform="matrix(25, 0, 0, -25, 64359.43, 12526)" gradientUnits="userSpaceOnUse"><stop offset="0" stop-color="#327ebd"/><stop offset="1" stop-color="#1565a7"/></linearGradient><linearGradient id="Gradiente_sem_nome_2" x1="-2562.88" y1="492.73" x2="-2562.88" y2="483.9" gradientTransform="matrix(25, 0, 0, -25, 64359.43, 12526)" gradientUnits="userSpaceOnUse"><stop offset="0" stop-color="#ffda4b"/><stop offset="1" stop-color="#f9c600"/></linearGradient></defs><g id="Linguagens"><g id="Python"><path class="cls-1" d="M88,407.17c0-15.42-.11-30.83.09-46.24,0-3.7-.55-5.12-4.79-5.53-33.74-3.29-58.62-25-65.82-56.92-9-39.82,19.8-80.69,60.45-85.84C88,211.36,88,211.36,88,201.3q0-42.59,0-85.17c0-18.48,11.55-30,30.1-30q45.6,0,91.2.06c3.39,0,4.61-.58,4.85-4.37,2.28-36.41,31.48-65.63,67.19-67.55,37-2,68.81,22.9,75.65,59.28.12.64.19,1.28.27,1.93C358.52,86.1,358.52,86.1,369,86.1q42.43,0,84.86,0c18.52,0,30.16,11.6,30.17,30,0,30-.05,60,.09,90,0,4-.54,5.6-5.27,6A71.84,71.84,0,0,0,412.07,280c-2,35.94,23.42,67.82,59.43,74.55a25.17,25.17,0,0,0,6.76.74c5.46-.48,6,2.26,5.93,6.89-.22,29.68-.09,59.37-.12,89.06,0,18.43-11.7,30.16-30.08,30.17-30.4,0-60.8,0-91.2.07-3.24,0-149.32-.06-159.75-.06q-42.43,0-84.86,0c-18.53,0-30.17-11.58-30.19-30Q88,429.31,88,407.17Z"/><path class="cls-2" d="M218.23,130.41c-23.39,0-42.35,18.36-42.35,41v28.39h73.31v7.89H143.29c-23.39,0-42.35,18.36-42.35,41v61.52c0,22.65,19,41,42.35,41h24.44v-34.7c0-22.65,19-41,42.36-41h78.2c19.79,0,35.84-15.54,35.84-34.7V171.42c0-22.65-19-41-42.36-41Zm-9.77,50.47a14.2,14.2,0,1,0-14.66-14.19A14.43,14.43,0,0,0,208.46,180.88Z"/><path class="cls-3" d="M281.77,428.54c23.39,0,42.36-18.36,42.36-41v-28.4H250.81v-7.88h105.9c23.39,0,42.35-18.37,42.35-41V248.71c0-22.65-19-41-42.35-41H332.27v34.7c0,22.65-19,41-42.36,41h-78.2c-19.79,0-35.84,15.53-35.84,34.7v69.41c0,22.65,19,41,42.36,41Zm9.77-50.48a14.2,14.2,0,1,0,14.66,14.2A14.43,14.43,0,0,0,291.54,378.06Z"/></g></g></svg>