<svg xmlns="http://www.w3.org/2000/svg" viewBox="0 0 500 500"><defs><style>.cls-1{fill:#009fe3;}.cls-2{fill:#fff;}</style></defs><g id="Linguagens"><g id="TypeScript"><path class="cls-1" d="M84.77,407.17c0-15.42-.12-30.83.08-46.24.05-3.7-.54-5.12-4.78-5.53-33.75-3.29-58.62-25-65.83-56.92-9-39.82,19.8-80.69,60.46-85.84,10.07-1.28,10.07-1.28,10.07-11.34q0-42.59,0-85.17c0-18.48,11.56-30,30.11-30q45.6,0,91.19.06c3.4,0,4.61-.58,4.85-4.37,2.28-36.41,31.48-65.63,67.19-67.55,37-2,68.81,22.9,75.65,59.28.12.64.19,1.28.27,1.93,1.28,10.64,1.28,10.64,11.8,10.64q42.42,0,84.85,0c18.53,0,30.16,11.6,30.18,30,0,30-.06,60,.09,90,0,4-.55,5.6-5.27,6A71.86,71.86,0,0,0,408.85,280c-2,35.94,23.42,67.82,59.43,74.55a25.24,25.24,0,0,0,6.77.74c5.46-.48,6,2.26,5.93,6.89-.22,29.68-.1,59.37-.12,89.06,0,18.43-11.7,30.16-30.09,30.17-30.4,0-60.79,0-91.19.07-3.25,0-149.32-.06-159.76-.06q-42.42,0-84.85,0c-18.53,0-30.17-11.58-30.2-30Q84.74,429.31,84.77,407.17Z"/><path class="cls-2" d="M355.69,178.07a55.78,55.78,0,0,1,28,16.14,73.94,73.94,0,0,1,10.73,14.39c.13.57-19.32,13.64-31.13,20.94-.42.29-2.12-1.56-4.05-4.41a25.39,25.39,0,0,0-21-12.6c-13.56-.93-22.3,6.18-22.24,18.05a16.33,16.33,0,0,0,1.93,8.39c3,6.17,8.53,9.88,25.93,17.42,32,13.79,45.8,22.89,54.29,35.81a65,65,0,0,1,5.24,54.57,60,60,0,0,1-49.53,35.46,137,137,0,0,1-34.1-.36,82.2,82.2,0,0,1-45.55-23.73,79.11,79.11,0,0,1-11.66-17.26,32.22,32.22,0,0,1,4.12-2.62c2-1.14,9.52-5.47,16.62-9.59l12.9-7.55,2.7,3.93a60,60,0,0,0,17,16.27,41.55,41.55,0,0,0,43.55-2.21,19.44,19.44,0,0,0,2.52-24.86c-3.47-5-10.58-9.16-30.77-17.91A110.94,110.94,0,0,1,289,270.46a59,59,0,0,1-12.29-22.38,89.53,89.53,0,0,1-.78-28.57A54.55,54.55,0,0,1,321.79,177,113.35,113.35,0,0,1,355.69,178.07ZM250.61,196.75l.14,18.32H192.43V380.66H151.31V215.1H93v-18a177.92,177.92,0,0,1,.51-18.47c.21-.29,35.67-.42,78.65-.35l78.23.22Z"/></g></g></svg>