<svg xmlns="http://www.w3.org/2000/svg" viewBox="0 0 500 500"><defs><style>.cls-1{fill:#254077;}.cls-2{fill:#242938;}.cls-3{fill:#edeeed;}.cls-4,.cls-5{fill:#53c1de;}.cls-5{fill-rule:evenodd;}</style></defs><g id="Bibliotecas"><g id="react"><path class="cls-1" d="M65.92,21.17c3-.08,271.89-.16,403.25-.38,9.43,0,11.8,1.8,11.79,8.23q-.4,178-.23,356.05c0,2.32.69,4.73-1.14,6.93-4.57,1.89-9.59,2.09-14.75,2.09q-194,0-387.93,0c-4,0-8.19.39-11.89-1.26-4.14-2.5-3.55-6-3.68-9.21-.37-9.66-.16-19.33-.16-29,0-106-.46-212.75-.29-318.8C61.46,27.35,58.84,25.43,65.92,21.17Z"/><path class="cls-2" d="M73.16,388.33c114.8.08,292.86.12,407.66.15a1.32,1.32,0,0,0,0-1.55c-117.46,0-300,0-419.38,0h0c-.34-118.76-.85-240.37-.55-359.09v-.12c0-5.18,6.12-6.33,5-6.54-.53-.1-8.12,4.09-8.66,4.4-10.46,6-26.64,17.86-26.58,33.66.5,125.53.3,228.06.29,353.59,0,29.6,25,50.12,61.58,50.13q189.24.07,378.49,0c1.34,0,2.81.29,4.21.29a2.42,2.42,0,0,0,1.93-3.85c-3.74-5.19-7.58-10.21-10.76-15.49-14.43-24-13.12-23.91,8-45.28.63-.64,5.18-6.58,5.18-6.58-2,.51-2,1.54-11.44,2.09-106.65,0-370.91.62-398.9-.31-5.24-.18-7-3.51-7.55-5.47C65.76,388.68,70.56,388.33,73.16,388.33Z"/><path class="cls-3" d="M449.7,433.29c7.4,10.86,7.4,10.86-7.6,10.86q-172,0-344,0c-6.76,0-13.54,0-20.09-1.46-19.26-4.29-30,1.46-29.83-21.46.15-15.69,18.62-19.43,38.38-20.37,4.1-.2,8.21-.17,12.32-.17H440.24c14.6,0,14.6,0,7.87,10.46C445.32,413.77,446,430.2,449.7,433.29Z"/><path class="cls-4" d="M305.17,196.56c0-17.65-14.76-32-33-32s-33,14.31-33,32,14.76,32,33,32S305.17,214.22,305.17,196.56Z"/><path class="cls-5" d="M379.29,137.21c7-27.43,15.71-78.3-15.14-95.55s-70.68,15.73-91.78,35.48c-21-19.55-62.12-52.32-93-35S158.19,109.39,165.3,137c-28.63,7.89-77.72,24.87-77.72,59.57s49,53.09,77.5,61c-7.14,27.75-16.13,77.07,14.61,94.26,30.94,17.3,71.9-14.68,93.19-34.65C294.12,337,333.7,369.2,364.42,352s22.78-67.48,15.66-95.25c27.6-7.9,76.74-26,76.74-60.15C456.82,162.2,407.47,145.07,379.29,137.21ZM375.79,242a352.92,352.92,0,0,0-18.7-45.36,350.92,350.92,0,0,0,18-44.69c20.66,5.81,66,19.08,66,44.61C441.05,222.34,397.55,235.74,375.79,242Zm-19.28,96.72c-22.92,12.87-57-17.92-72.64-32.55a362.23,362.23,0,0,0,30.95-38.11,377.81,377.81,0,0,0,50-7.47C369.84,280.23,379.53,325.8,356.51,338.72Zm-168.94-.18c-22.92-12.81-12.45-56.82-7.19-77.27a380.92,380.92,0,0,0,49.76,7,374.07,374.07,0,0,0,31.69,38C248.51,318.72,210.59,351.41,187.57,338.54Zm-84.22-142c0-25.87,45.06-39,66.19-44.84a359.4,359.4,0,0,0,18,45.22,364,364,0,0,0-18.22,45.86C149.17,237.2,103.35,222.45,103.35,196.56Zm84-141.2c23-12.91,58.72,18.54,74,32.7a367.39,367.39,0,0,0-31.45,37.74,396.24,396.24,0,0,0-49.28,7.43C174.86,111,164.33,68.26,187.32,55.36ZM326.1,142.42c11.78,1.45,23.07,3.36,33.67,5.71A319.57,319.57,0,0,1,348,179Q337.8,160.27,326.1,142.42ZM272.38,99a330.5,330.5,0,0,1,21.73,25.43q-21.81-1-43.64,0C257.64,115.24,265,106.72,272.38,99Zm-75.79,80a330.11,330.11,0,0,1-11.74-31c10.54-2.29,21.77-4.16,33.48-5.57Q206.58,160.16,196.59,179Zm22.08,72.88c-12.1-1.31-23.5-3.09-34-5.31a337.36,337.36,0,0,1,12-31.61Q206.73,233.87,218.67,251.83Zm54.14,43.39c-7.47-7.82-14.93-16.47-22.21-25.78q21.93.84,43.89-.07A326.56,326.56,0,0,1,272.81,295.22Zm75.29-80.85a316.18,316.18,0,0,1,12.4,31.49,342.2,342.2,0,0,1-34.44,5.69C333.93,239.46,341.31,227.06,348.1,214.37Zm-42.08,39a509.86,509.86,0,0,1-67.25.12,429.83,429.83,0,0,1-33.8-56.6,430.37,430.37,0,0,1,33.61-56.49,458.26,458.26,0,0,1,67.31,0,481.45,481.45,0,0,1,33.71,56.27A484,484,0,0,1,306,253.41Zm50.25-198.5c23,12.87,12.77,58.59,7.74,78.47a391.09,391.09,0,0,0-49.37-7.56,361.45,361.45,0,0,0-31.21-37.77C298.9,73.59,333.47,42.16,356.27,54.91Z"/></g></g></svg>